<svg xmlns="http://www.w3.org/2000/svg" xmlns:xlink="http://www.w3.org/1999/xlink" version="1.1" id="Layer_1_99_" x="0px" y="0px" enable-background="new 0 0 595.276 595.276" xml:space="preserve" viewBox="110.44 142.21 373.67 310.13">
<path id="color_x5F_6" fill-rule="evenodd" clip-rule="evenodd" fill="#999999" d="M280.548,317.171h-168.61v-16.705h168.375  l0.235-0.057V317.171z M352.041,288.497h-38.12c0.004-0.026,0.006-0.051,0.006-0.077c0-12.589,8.583-22.722,19.053-22.722  c10.47,0,19.055,10.134,19.055,22.722C352.035,288.446,352.037,288.471,352.041,288.497z M211.144,279.066  c0.001-0.002,0.001-0.004,0.001-0.007l8.461-48.122c0,0,3.581,4.031,3.725,4.031c0.14,0,3.461-3.507,3.461-3.507l9.095,52.999  c0.021,0.118,0.083,0.225,0.176,0.3l-21.921,3.537c-0.113,0.013-0.218,0.064-0.298,0.145l0.21-8.22c0-0.275-0.225-0.499-0.499-0.499  h-2.41V279.066z M333.212,247.042c4.806,0,8.69,3.885,8.69,8.69s-3.884,8.69-8.69,8.69c-4.805,0-8.688-3.885-8.688-8.69  S328.407,247.042,333.212,247.042z M222.856,218.453c0.09-0.162,1.22-0.17,1.31,0l4.909,9.069l-5.732,6.195l-5.387-6.211  L222.856,218.453z"/>
<path id="color_x5F_5" fill-rule="evenodd" clip-rule="evenodd" fill="#FFD2BB" d="M227.823,299.468h-14.615  c0.021-0.057,0.031-4.672,0.031-4.672c0.133-0.094,0.212-0.248,0.211-0.411l0.014-3.552c0.223-0.055,0.381-0.257,0.381-0.486v-1.202  c0.119,0.12,0.291,0.171,0.456,0.137l13.523-2.183V299.468z M174.44,220.453c0.554-0.03,10.646,3.478,10.646,3.478  c2.22,0.8,3.369,3.239,2.569,5.46l-3.551,9.857c-1.066,3.277-4.037,2.898-4.124,3.02l-1.945,2.684  c-0.018-0.018-0.038-0.034-0.059-0.049l-13.563-10.251l3.196-3.069c0.055-0.053,3.048-8.314,3.048-8.314  C171.258,221.603,172.78,220.542,174.44,220.453z M230.009,169.936l0.653,8.345c0.021,0.259,4.503,0.111,4.503,0.111  c0.019-0.001,0.037-0.004,0.055-0.007c0.002,0,0.004,0,0.006,0c0.022-0.001,0.044-0.003,0.066-0.006  c1.856-0.176,3.407,0.553,4.531,1.769c1.125,1.216,1.793,2.924,1.793,4.641c0,3.464-2.313,6.183-5.052,6.183  c-0.224,0-1.237,0.167-1.237,0.44l0.049,19.457c-0.004,0.037-0.004,0.074,0,0.111v0.198c-3.803,3.66-7.551,5.65-11.24,5.748  c-3.727,0.1-7.48-1.7-11.316-5.83l-0.295-14.091c-0.006-0.273-0.236-0.493-0.509-0.487l-17.113,0.357  c-0.009-0.058-0.028-0.114-0.057-0.166c-1.125-2.231-1.723-4.696-1.723-7.221v-18.465c0.001-0.026-0.001-0.052-0.005-0.078  c1.098,0.554,2.287,0.953,3.624,1.214c3.398,0.662,7.704,0.522,13.876,0.221C222.325,171.808,229.238,170.127,230.009,169.936z"/>
<path id="color_x5F_4" fill-rule="evenodd" clip-rule="evenodd" fill="#1e2037" d="M290.487,192.202  c-0.274,0-0.499,0.225-0.499,0.499v245.966c0,0.274,0.226,0.499,0.499,0.499h154.566c0.15,0,0.292-0.067,0.386-0.183l28.626-35.114  c0.072-0.089,0.111-0.2,0.111-0.314v-0.026c0.082-0.149,0.082-0.33,0-0.479V192.702c0-0.275-0.226-0.499-0.499-0.499h-56.648v-7.595  c0.065,0.028,0.135,0.042,0.205,0.041h65.381v266.194H281.547V184.648h65.374v7.554H290.487z M121.67,294.811l90.57-0.242v4.718  c-0.001,0.062,0.01,0.123,0.031,0.18h-90.632c0.021-0.057,0.032-0.118,0.031-0.18V294.811z M212.455,293.571h-90.488l0.18-2.726  h90.318L212.455,293.571z M212.845,289.846h-90.537v-3.995l90.537-0.226V289.846z M213.055,284.627h-90.538v-3.907h90.538V284.627z   M211.536,197.528l1.22,58.378l-41.298-0.168l9.262-12.791c1.904-0.241,3.633-1.438,4.326-3.361l3.548-9.857  c0.983-2.73-0.44-5.755-3.17-6.738l-8.967-3.229c-0.682-0.246-1.383-0.342-2.065-0.304c-0.897,0.049-1.756,0.341-2.507,0.811  l-0.456-21.906L211.536,197.528z M410.155,192.202h-56.36v-9.175h56.36V192.202z M220.462,143.71  c7.45-0.053,12.265,1.881,15.409,4.409c3.595,2.888,5.033,6.591,5.616,9.124c0.555,2.409,0.252,8.133-0.232,13.144  c-0.43,4.458-0.918,7.937-1.034,8.754c-1.284-1.213-3.03-1.945-5.026-1.755c-0.023,0.001-0.047,0.003-0.07,0.007  c-0.001,0-0.001,0-0.002,0c-0.015,0.001-0.03,0.002-0.045,0.004l-3.459,0.303c0,0-1.202-8.756-1.241-8.746  c0,0-7.517,1.829-19.811,2.43c-6.165,0.302-10.422,0.423-13.635-0.203c-3.174-0.619-5.339-1.945-7.517-4.608l-1.96-14.739  c0.746-0.436,11.44-6.536,29.649-7.975C218.28,143.765,219.398,143.717,220.462,143.71z"/>
<path id="color_x5F_3" fill-rule="evenodd" clip-rule="evenodd" fill="#97a4c5" d="M280.116,440.679H127.605V318.601  c0.002-0.175-0.088-0.339-0.237-0.43h153.18v122.747C280.456,440.768,280.292,440.677,280.116,440.679z M441.631,368.421H313.549  v-5.94h128.082V368.421z M441.631,351.04H313.549v-5.94h128.082V351.04z M441.631,332.63H313.549v-5.94h128.082V332.63z   M441.631,315.25H313.549v-5.94h128.082V315.25z M280.313,299.468h-43.927v-13.62c0-0.043-0.005-0.086-0.016-0.129l23.361-3.768  c0.246-0.04,0.165-35.643,0.322-50.384c0.08-7.518,6.225-13.535,13.743-13.457c0.001,0,0.001,0,0.002,0  c2.693,0.028,5.113,1.242,6.75,3.16v78.253C280.475,299.486,280.395,299.467,280.313,299.468z M353.701,288.497h-0.673  c0.004-0.026,0.006-0.051,0.006-0.077c0-11.801-7.318-21.664-16.942-23.435c3.942-1.229,6.81-4.91,6.81-9.253  c0-5.346-4.344-9.689-9.689-9.689c-5.345,0-9.687,4.344-9.687,9.689c0,4.291,2.8,7.93,6.668,9.202  c-9.704,1.597-17.142,11.399-17.259,23.206v-48.466h40.767V288.497z M444.584,288.415h-82.168v-15.195h82.168V288.415z   M244.942,213.095l24.826,4.55c-6.115,1.69-10.643,7.255-10.714,13.911c-0.158,14.814,0.086,49.479,0.086,49.479l-14.186,2.288  v-70.122L244.942,213.095z M203.979,279.721h-25.554v-0.701l0.728-22.189c0.001-0.021,24.826,0.039,24.826,0.039V279.721z   M158.426,279.721h-7.212c2.45-0.845,4.618-2.409,6.171-4.551l13.351-18.437c0,0,7.421,0.053,7.421,0.064  c0,0-0.382,12.37-0.449,12.408l-19.029,10.169C158.546,279.445,158.454,279.573,158.426,279.721z M159.572,239.303  c0.029,0.042,0.064,0.08,0.105,0.111l14.167,11.326l-17.268,23.844c-2.067,2.854-5.387,4.051-8.823,4.832  c-6.033,1.37-10.312-4.849-10.794-5.372c-3.535-3.846-3.35-9.798,0.417-13.418L159.572,239.303z"/>
<path id="color_x5F_2" fill-rule="evenodd" clip-rule="evenodd" fill="#ffffff" d="M290.986,193.201h55.934v11.874  c0,1.221,0.485,2.391,1.347,3.254c0.864,0.862,2.035,1.348,3.254,1.348h61.265c2.337,0,4.241-1.906,4.241-4.243v-12.233h56.149  v209.647c-0.587,0.059-15.76,1.578-25.666,2.591c-2.147,0.219-4.105,1.333-5.388,3.068c-1.283,1.736-1.776,3.933-1.355,6.052  c1.839,9.289,3.506,23.554,3.506,23.554c0.002,0.019,0.005,0.037,0.009,0.055H290.986V193.201z M472.757,403.892l-27.533,33.773  c-0.112-0.943-1.689-14.261-3.479-23.3c-0.365-1.843,0.063-3.752,1.181-5.263c1.116-1.509,2.818-2.48,4.685-2.671  C457.316,405.44,471.593,404.009,472.757,403.892z M442.13,361.482H313.049c-0.275,0-0.499,0.226-0.499,0.499v6.939  c0,0.274,0.225,0.499,0.499,0.499H442.13c0.275,0,0.499-0.226,0.499-0.499v-6.939C442.63,361.708,442.404,361.482,442.13,361.482z   M442.13,344.101H313.049c-0.275,0-0.499,0.225-0.499,0.499v6.939c0,0.274,0.225,0.499,0.499,0.499H442.13  c0.275,0,0.499-0.226,0.499-0.499v-6.939C442.63,344.326,442.404,344.101,442.13,344.101z M442.13,325.692H313.049  c-0.275,0-0.499,0.226-0.499,0.499v6.939c0,0.274,0.225,0.499,0.499,0.499H442.13c0.275,0,0.499-0.226,0.499-0.499v-6.939  C442.63,325.918,442.404,325.692,442.13,325.692z M442.13,308.311H313.049c-0.275,0-0.499,0.225-0.499,0.499v6.939  c0,0.274,0.225,0.499,0.499,0.499H442.13c0.275,0,0.499-0.226,0.499-0.499v-6.939C442.63,308.536,442.404,308.311,442.13,308.311z   M235.388,299.468h-6.566v-12.53l6.566-1.059V299.468z M354.2,238.675h-41.766c-0.275,0.001-0.499,0.226-0.499,0.499v49.822  c0,0.274,0.226,0.499,0.499,0.499H354.2c0.274,0,0.499-0.226,0.499-0.499v-49.822C354.7,238.9,354.475,238.676,354.2,238.675z   M445.084,272.222h-83.167c-0.274,0-0.499,0.226-0.499,0.499v16.193c0,0.274,0.226,0.499,0.499,0.499h83.167  c0.274,0,0.499-0.226,0.499-0.499v-16.193C445.583,272.448,445.358,272.222,445.084,272.222z M241.899,212.535l2.134,0.393  c-0.052,0.082-0.078,70.494-0.078,70.494c0,0.021,0.001,0.043,0.004,0.064l-7.157,1.155c0.066-0.104-9.12-53.893-9.12-53.893  c-0.01-0.062-0.032-0.123-0.064-0.177L241.899,212.535z M209.994,279.592c0,0.171-5.016,0.129-5.016,0.129v-22.847l8.284,0.033  c0.001,0,0.002,0,0.002,0c0.275,0,0.5-0.226,0.5-0.499c0-0.004,0-0.007-0.001-0.01l-0.696-33.369l5.858,7.122  C218.788,230.223,209.994,279.563,209.994,279.592z M163.684,235.353l13.69,10.346c0.025,0.02,0.053,0.038,0.082,0.053l-3.025,4.178  l-14.13-11.296c-0.006-0.005-0.013-0.009-0.019-0.014L163.684,235.353z M212.848,212.544c3.065,3.066,6.176,4.789,9.31,5.242  c-0.076,0.047-4.928,8.961-4.928,8.961l-4.198-5.389L212.848,212.544z M236.449,211.263l4.348,1.071l-11.007,14.406  c0,0-4.802-8.851-4.841-8.888C228.759,217.5,232.744,214.872,236.449,211.263z M412.787,208.678h-61.265  c-0.955,0-1.871-0.382-2.548-1.058c-0.674-0.675-1.055-1.591-1.055-2.546v-23.633c0-2.18,1.757-3.934,3.936-3.934h60.495  c0.975,0,1.912,0.386,2.602,1.077c0.689,0.689,1.077,1.627,1.077,2.602v24.249C416.029,207.231,414.585,208.677,412.787,208.678z   M410.655,182.029h-57.359c-0.275,0-0.499,0.226-0.499,0.499v21.236c0,0.274,0.225,0.499,0.499,0.499h57.359  c0.275,0,0.499-0.226,0.499-0.499v-21.236C411.154,182.254,410.929,182.029,410.655,182.029z M410.155,203.265h-56.36v-10.064h56.36  V203.265z"/>
<path id="color_x5F_1" fill="#000000" d="M220.453,142.214c-1.104,0.007-2.258,0.057-3.467,0.152  c-19.175,1.515-30.586,8.33-30.586,8.33c-0.342,0.205-0.528,0.594-0.476,0.989c0,0,2.128,15.61,2.243,15.753  c1.095,1.355,2.249,2.416,3.514,3.244c-0.039,0.11-0.057,18.807-0.057,18.807c0,2.4,0.498,4.75,1.434,6.925l-22.162,0.462  c-0.547,0.012-0.989,0.471-0.978,1.019c0,0,0.481,22.908,0.491,22.962c-0.493,0.542-0.9,1.177-1.163,1.906l-2.846,7.902  l-30.063,28.881c-4.343,4.173-4.557,11.077-0.483,15.511c0.48,0.523,0.973,1.059,1.468,1.597c0.952,1.037,2.057,1.892,3.256,2.568  h-18.561c-0.548,0-0.999,0.45-0.999,0.999c0,0-0.209,4.684-0.209,4.906c0,0-0.127,5.111-0.135,5.271l-0.193,2.951  c-0.198,0.188-0.31,0.449-0.311,0.722v4.898h-8.733c-0.547,0-0.999,0.45-0.999,0.999v17.703c0,0.547,0.451,0.999,0.999,0.999h14.668  v122.509c0,0.547,0.45,0.999,0.999,0.999h152.943v9.165c0,0.547,0.45,0.999,0.999,0.999h202.066c0.548,0,0.999-0.451,0.999-0.999  V184.149c0-0.548-0.45-0.999-0.999-0.999h-65.586v-1.965c0-1.372-0.545-2.691-1.515-3.662c-0.972-0.971-2.289-1.515-3.662-1.515  h-60.495c-2.988,0-5.434,2.443-5.434,5.432v1.709h-65.374c-0.548,0-0.999,0.45-0.999,0.999v34.603  c-1.742-1.323-3.904-2.115-6.235-2.14h-0.001c-0.615-0.006-1.22,0.036-1.817,0.102c-0.151-0.153-0.347-0.253-0.557-0.286  l-34.564-6.337l-0.049-17.681c3.578-0.173,6.289-3.587,6.289-7.62c0-1.721-0.541-3.4-1.5-4.781c0.002-0.011,0.004-0.021,0.006-0.032  c0,0,0.639-4.393,1.128-9.446c0.488-5.053,0.888-10.631,0.199-13.623c-0.632-2.748-2.208-6.797-6.137-9.955  c-2.947-2.368-7.185-4.195-13.199-4.637C222.608,142.241,221.557,142.206,220.453,142.214z M220.464,144.208  c7.359-0.054,12.048,1.852,15.096,4.301c3.482,2.8,4.873,6.384,5.44,8.845c0.51,2.215,0.241,7.987-0.242,12.984  c-0.353,3.652-0.704,6.327-0.911,7.843c-1.289-0.935-2.909-1.462-4.697-1.292c-0.014,0.001-0.028,0.003-0.041,0.005  c-0.01,0.001-0.019,0.002-0.028,0.002c-0.015,0.001-0.031,0.003-0.047,0.004l-2.955,0.26l-0.618-7.898  c-0.04-0.517-0.477-0.921-0.996-0.921c-0.084,0-0.168,0.01-0.249,0.031c0,0-7.42,1.914-19.671,2.513  c-6.161,0.301-10.395,0.413-13.517-0.196c-3.041-0.592-5.047-1.825-7.138-4.35l-1.894-14.227c1.43-0.813,11.711-6.378,29.148-7.757  C218.307,144.264,219.413,144.216,220.464,144.208z M229.557,170.535l0.608,7.786c0.041,0.517,1.054,0.92,1.083,0.917  c0,0,4.081-0.36,4.091-0.361c1.698-0.161,3.084,0.493,4.118,1.611c1.034,1.118,1.66,2.714,1.66,4.302  c0,3.239-2.138,5.684-4.552,5.684c-0.197,0-0.686-0.059-0.738-0.059c-0.547,0-0.999,0.451-0.999,0.999l0,0  c0,0,0.044,19.504,0.045,19.543c-3.693,3.509-7.279,5.379-10.75,5.471c-3.518,0.094-7.081-1.578-10.808-5.541l-0.291-13.89  c-0.012-0.547-0.47-0.988-1.018-0.977l-16.769,0.349c-1.053-2.132-1.616-4.478-1.616-6.88v-17.767  c0.939,0.405,1.936,0.718,3.024,0.93c3.489,0.68,7.82,0.53,13.996,0.229C221.727,172.337,228.118,170.878,229.557,170.535z   M351.855,178.007h60.495c0.842,0,1.652,0.334,2.249,0.93c0.595,0.596,0.93,1.406,0.93,2.249v24.249  c0,1.528-1.215,2.745-2.743,2.745h-61.265c-0.823,0-1.611-0.329-2.194-0.911c-0.581-0.582-0.909-1.37-0.909-2.193v-23.633  C348.418,179.532,349.946,178.007,351.855,178.007z M353.295,181.529c-0.548,0-0.999,0.45-0.999,0.999v21.236  c0,0.547,0.45,0.999,0.999,0.999h57.359c0.548,0,0.999-0.451,0.999-0.999v-21.236c0-0.548-0.45-0.999-0.999-0.999H353.295z   M354.294,183.527h55.362v8.176h-55.362V183.527z M282.046,185.148h64.375v6.555h-55.934c-0.548,0-0.999,0.45-0.999,0.999v245.966  c0,0.548,0.45,0.999,0.999,0.999h154.566c0.3,0,0.584-0.134,0.774-0.367l28.623-35.113c0.112-0.138,0.184-0.302,0.211-0.476  c0.118-0.255,0.014-211.008,0.014-211.008c0-0.548-0.45-0.999-0.999-0.999h-56.149v-6.555h64.587v265.195H282.046V185.148z   M291.485,193.7h54.935v11.374c0,1.352,0.538,2.651,1.494,3.608c0.957,0.955,2.254,1.494,3.607,1.494h61.265  c2.607,0,4.74-2.135,4.74-4.742V193.7h55.15v208.695c-1.09,0.109-15.484,1.551-25.217,2.546c-2.287,0.233-4.371,1.421-5.737,3.269  c-1.367,1.849-1.893,4.19-1.445,6.445c1.734,8.76,3.275,21.633,3.439,23.013H291.485V193.7z M354.294,193.7h55.362v9.065h-55.362  V193.7z M211.048,198.036l1.196,57.368l-39.811-0.162l8.624-11.908c1.964-0.355,3.737-1.578,4.458-3.58l3.549-9.857  c1.075-2.984-0.486-6.303-3.471-7.378l-8.967-3.228c-0.746-0.269-1.513-0.374-2.261-0.332c-0.696,0.039-1.369,0.219-2,0.495  l-0.428-20.604L211.048,198.036z M236.614,212.074l3.291,0.603l-10.044,13.148l-4.085-7.548c3.689-0.569,7.286-2.741,10.795-6.157  C236.586,212.106,236.601,212.09,236.614,212.074z M242.112,213.083l1.344,0.246v69.731l-6.12,0.988l-9.155-53.353L242.112,213.083z   M245.453,213.695l22.358,4.099c-5.379,2.265-9.191,7.557-9.257,13.756c-0.158,14.814,0.072,49.061,0.072,49.061l-13.173,2.126  V213.695z M213.373,213.754c2.595,2.374,5.252,3.841,7.939,4.405l-4.157,7.68l-3.627-4.654L213.373,213.754z M223.294,218.691  c0.048-0.085,0.389-0.085,0.433,0l4.738,8.753l-5.111,5.526l-4.797-5.528L223.294,218.691z M273.792,218.609  c2.484,0.026,4.713,1.123,6.256,2.858v77.502h-43.163v-12.826l22.925-3.698c0.492-0.08,0.853-0.516,0.839-1.015  c0,0-0.255-35.171-0.098-49.856C260.629,224.324,266.544,218.533,273.792,218.609z M174.466,220.95  c0.488-0.026,0.991,0.043,1.482,0.22l8.968,3.231c1.967,0.708,2.976,2.854,2.268,4.82l-3.551,9.857  c-0.527,1.465-1.86,2.394-3.312,2.485c-0.298,0.019-0.572,0.169-0.747,0.411l-1.645,2.27l-12.747-9.636c0,0,2.967-2.9,3.019-3.045  l2.926-8.123C171.659,221.964,172.999,221.027,174.466,220.95z M213.597,224.524c0,0,4.592,5.805,4.576,5.901l-3.981,22.64  L213.597,224.524z M219.917,232.056l2.661,3.066c0.19,0.219,0.464,0.345,0.754,0.345c0.279,0,0.545-0.117,0.734-0.321l2.405-2.601  l8.893,51.82l-21.02,3.392v-1.693c0.139-0.179,0.213-0.4,0.21-0.626v-5.218c0-0.548-0.45-0.999-0.999-0.999h-1.935  c0.007-0.025,0.013-0.05,0.018-0.075L219.917,232.056z M163.725,236.008l13.035,9.851l-2.429,3.354l-13.291-10.628L163.725,236.008z   M312.434,238.175c-0.547,0-0.998,0.45-0.999,0.999v49.822c0.001,0.547,0.451,0.999,0.999,0.999H354.2  c0.547,0,0.999-0.451,0.999-0.999v-49.822c0-0.548-0.451-0.999-0.999-0.999H312.434z M159.587,239.981l13.571,10.851l-16.987,23.457  c-1.98,2.733-5.08,4.432-8.449,4.627c-3.369,0.196-6.645-1.13-8.928-3.615c-0.495-0.538-0.988-1.074-1.469-1.598  c-3.354-3.651-3.177-9.284,0.399-12.719L159.587,239.981z M313.433,240.173h39.769v43.939c-1.445-9.441-7.545-17.052-15.479-19.258  c3.358-1.669,5.678-5.127,5.678-9.122c0-5.615-4.573-10.189-10.189-10.189c-5.615,0-10.187,4.573-10.187,10.189  c0,3.929,2.241,7.34,5.509,9.04c-7.165,1.86-12.88,8.116-15.102,16.177V240.173z M333.212,247.541c4.535,0,8.191,3.656,8.191,8.191  c0,4.536-3.656,8.191-8.191,8.191s-8.189-3.656-8.189-8.191C325.023,251.196,328.676,247.541,333.212,247.541z M170.991,257.234  l6.65,0.027l-0.377,11.451c-0.116,0.019-0.229,0.058-0.332,0.115c0,0-18.745,10.275-18.836,10.394h-4.531  c1.642-0.926,3.091-2.196,4.223-3.759L170.991,257.234z M179.639,257.269l23.841,0.098v21.854h-24.562  c0.001-0.013,0.001-0.026,0.002-0.04L179.639,257.269z M205.477,257.375l7.784,0.031c0.058,0,0.116-0.006,0.173-0.016  c0,0-3.782,21.694-3.747,21.831h-4.209V257.375z M332.98,266.197c10.032,0,18.347,9.64,18.537,21.8h-37.074  C314.635,275.838,322.948,266.197,332.98,266.197z M177.191,270.961l-0.269,8.156c-0.001,0.035-0.001,0.069,0.002,0.104H162.08  L177.191,270.961z M361.917,271.723c-0.547,0-0.999,0.45-0.999,0.999v16.193c0,0.547,0.451,0.999,0.999,0.999h83.167  c0.548,0,0.999-0.451,0.999-0.999v-16.193c0-0.548-0.45-0.999-0.999-0.999H361.917z M362.916,273.72h81.169v14.196h-81.169V273.72z   M123.016,281.219h80.986c0.297,0.161,0.655,0.161,0.952,0h7.602v2.908h-89.539V281.219z M122.808,286.125h89.538v3.222h-89.538  V286.125z M234.888,286.465v12.504h-5.567v-11.605L234.888,286.465z M227.324,287.685v11.283h-13.585v-3.958  c0.001-0.001,0.001-0.001,0.002-0.002c0.138-0.178,0.211-0.398,0.209-0.622l0.012-3.256c0.241-0.189,0.382-0.477,0.383-0.784v-0.567  c0.012-0.001,0.024-0.003,0.037-0.004L227.324,287.685z M122.613,291.345h89.35l-0.006,1.727h-89.458L122.613,291.345z   M122.171,295.069h89.569v3.899h-89.571v-3.897C122.17,295.07,122.171,295.069,122.171,295.069z M112.437,300.966h167.611v15.706  H112.437V300.966z M313.049,307.812c-0.548,0-0.999,0.45-0.999,0.999v6.939c0,0.547,0.45,0.999,0.999,0.999H442.13  c0.548,0,0.999-0.451,0.999-0.999v-6.939c0-0.548-0.45-0.999-0.999-0.999H313.049z M314.048,309.809h127.083v4.941H314.048V309.809z   M128.104,318.669h151.944v121.51H128.104V318.669z M313.049,325.193c-0.548,0-0.999,0.45-0.999,0.999v6.939  c0,0.548,0.45,0.999,0.999,0.999H442.13c0.548,0,0.999-0.45,0.999-0.999v-6.939c0-0.548-0.45-0.999-0.999-0.999H313.049z   M314.048,327.19h127.083v4.941H314.048V327.19z M313.049,343.602c-0.548,0-0.999,0.45-0.999,0.999v6.939  c0,0.547,0.45,0.999,0.999,0.999H442.13c0.548,0,0.999-0.451,0.999-0.999v-6.939c0-0.548-0.45-0.999-0.999-0.999H313.049z   M314.048,345.6h127.083v4.941H314.048V345.6z M313.049,360.983c-0.548,0-0.999,0.45-0.999,0.999v6.939  c0,0.548,0.45,0.999,0.999,0.999H442.13c0.548,0,0.999-0.45,0.999-0.999v-6.939c0-0.548-0.45-0.999-0.999-0.999H313.049z   M314.048,362.981h127.083v4.941H314.048V362.981z M471.608,404.512l-26.029,31.93c-0.41-3.389-1.775-14.251-3.344-22.175  c-0.338-1.705,0.059-3.471,1.093-4.869c1.033-1.396,2.607-2.293,4.335-2.469C456.902,405.984,469.265,404.747,471.608,404.512z"/>
</svg>