<svg xmlns="http://www.w3.org/2000/svg" xmlns:xlink="http://www.w3.org/1999/xlink" version="1.1" id="Layer_1_15_" x="0px" y="0px" enable-background="new 0 0 595.276 595.276" xml:space="preserve" viewBox="37.99 114.76 513.97 394.92">
<path id="color_x5F_7" fill="#88a2e7" d="M402.556,439.787h99.489v8.707h-99.489V439.787z M511.011,320.701l9.826,0.01  l0.192-196.372l-9.826-0.01L511.011,320.701z M405.53,371.289h14.888c0.206-2.026,0.817-3.936,1.759-5.644l-13.78-0.013  l0.042-45.031l-5.037-0.005l-0.042,45.031l2.181,0.002L405.53,371.289z M427.888,456.336h-25.332v8.868h28.167v-6.034  C430.723,457.612,429.447,456.336,427.888,456.336z M402.556,508.426h28.167v-5.194h-28.167V508.426z M365.935,459.171v6.034h12.991  v-8.868H368.77C367.211,456.336,365.935,457.612,365.935,459.171z M365.935,508.426h12.991v-5.194h-12.991V508.426z   M359.773,442.622v8.707c0-1.559,1.276-2.835,2.835-2.835h16.318v-8.707h-16.318C361.049,439.787,359.773,441.063,359.773,442.622z   M531.058,439.787h-5.382v8.707h5.382c1.559,0,2.835,1.276,2.835,2.835v-8.707C533.892,441.063,532.617,439.787,531.058,439.787z   M86.367,419.75c1.818,38.474,1.96,47.923,16.931,63.607c11.056,0.372,20.195-0.464,27.941-2.173v-84.342H85.653  C85.775,404.841,86.026,412.536,86.367,419.75z M212.99,290.148c-12.836-25.425-34.905-26.335-40.646-27.015  c-0.439-0.013-0.853-0.029-1.278-0.043c-0.19,7.449,0.135,13.674,1.712,15.443c0,0-44.418,2.773-71.927,0.954  c-3.542,4.829-6.209,9.946-7.241,14.701h48.924c6.6,0,12,5.4,12,12v78.653c0,6.6-5.4,12-12,12h-1.317v81.409  c35.99-13.494,36.816-48.825,86.832-51.468c-7.129-11.406-17.109-5.703-16.396-42.772l-0.244-0.372  c32.432-11.484,37.667-24.947,37.224-34.321C234.52,328.748,221.78,307.56,212.99,290.148z"/>
<path id="color_x5F_6" fill="#ffffff" d="M501.554,132.79l-0.011,11.722l-256.409-0.25l0.011-11.722L501.554,132.79z   M245.111,167.065l68.464,0.067v51.631h-30.549v93.245l-38.056-0.037L245.111,167.065z M272.158,179.198  c0,1.307,1.069,2.376,2.376,2.376h25.475c1.307,0,2.376-1.069,2.376-2.376s-1.069-2.376-2.376-2.376h-25.475  C273.228,176.822,272.158,177.891,272.158,179.198z M253.624,185.139h11.881v-11.881h-11.881V185.139z M428.109,167.243  l73.411,0.072l-0.142,144.906l-73.269-0.785V167.243z M468.996,199.589h22.867v-22.867h-22.867V199.589z M468.996,229.842h22.867  v-22.867h-22.867V229.842z M439.683,199.589h22.867v-22.867h-22.867V199.589z M439.683,229.842h22.867v-22.867h-22.867V229.842z   M389.248,360.592h-35.671c8.966,5.677,10.852,9.372,6.053,10.697h32.452v-7.862C392.083,361.868,390.807,360.592,389.248,360.592z   M435.197,357.921L435.197,357.921c-7.67,0-14.031,5.889-14.786,13.369h29.573C449.228,363.81,442.867,357.921,435.197,357.921z   M106.861,483.812c0,0,7.185,5.826,24.376,8.949v-11.584c-6.783,1.496-14.631,2.326-23.903,2.258L106.861,483.812z M274.386,437.475  c-12.516-3.044-37.845-8.614-47.111-10.641c-49.238,2.97-50.257,37.989-86.058,51.411v15.864c1.779,0.164,3.629,0.299,5.564,0.396  c28.515,1.426,59.881,0.713,59.881,0.713s5.962,3.346,4.443,13.208h74.874l26.9-0.376  C316.446,478.822,300.762,443.891,274.386,437.475z M413.22,432.089c-0.409,2.138-0.886,4.748-1.384,7.698h4.225  c0.497-2.95,0.975-5.56,1.384-7.698c2.058-10.75,3.089-26.658,3.38-31.742H416.6C416.31,405.431,415.278,421.339,413.22,432.089z"/>
<path id="color_x5F_5" fill="#FFD2BB" d="M358.842,371.079c-6.416,1.426-46.693,0.475-46.693,0.475  c-27.089,18.535-62.495,26.97-73.188,26.97c-16.396,0-24.545-15.703-24.545-15.703s26.921-9.129,33.337-26l3.327,4.04  c0,0,45.317-8.693,55.297-7.267c9.98,1.426,27.089-4.277,41.347,3.564C361.98,365,365.257,369.653,358.842,371.079z   M313.574,166.485v52.277h41.636v13.734v68.934v9.4l72.898,0.605V166.96L313.574,166.485z M210.875,216.39  c0.225-1.519,1.41-9.336,2.54-16.777c-3.834,0.987-8.074,2.094-10.622,2.508c-0.177-9.721-4.266-19.672-4.266-19.672  s-1.607,6.016-3.546,18.931c-12.386,3.504-13.688,12.303-17.191,5.814c-3.531-6.539-16.13-8.087-18.37,4.389  c-2.783,15.5,13.192,17.891,13.192,17.891c0.996-0.23-0.529,13.511-1.251,26.581c2.81-0.307,5.857-0.793,9.144-1.52  c21.65-4.79,29.108-26.574,29.108-26.574s3.054,0.145,4.158-3.782C214.875,220.252,210.425,219.429,210.875,216.39z"/>
<path id="color_x5F_4" fill="#1c1b3d" d="M227.504,190.888c-0.028,0.099-3.722,1.169-3.834,1.271  c0.3-9.983-3.469-21.231-3.469-21.231c-0.518,7.742,0.974,20.061-1.724,27.424c-4.37,1.005-11.897,3.153-15.684,3.768  c-0.177-9.721-4.266-19.672-4.266-19.672s-1.607,6.016-3.546,18.931c-12.386,3.504-13.688,12.303-17.191,5.814  c-3.531-6.539-16.13-8.087-18.37,4.389c-2.783,15.5,13.192,17.891,13.192,17.891c1.781-0.412-4.498,43.826,0.166,49.06  c0,0-77.969,4.869-91.281-2.524c-13.312-7.393,7.821-124.059,16.022-132.039l0.377,0.448c3.715-6.058,9.051-11.063,16.565-14.155  c1.133-0.466,3.85-5.58,11.352-8.897c39.337-17.395,77.975,10.885,77.975,10.885c12.648,3.3,21.461-2.573,21.957-1.355  c3.648,8.941-8.971,16.913-8.971,16.913S236.749,158.047,227.504,190.888z M235.511,124.059l275.691,0.269l-0.192,196.372  l-107.917-0.105l-0.04,45.031l2.487,0.002l-0.011,5.66h-13.447v-5.673v0v-2.189c0-1.559-1.276-2.835-2.835-2.835h-35.671  c-1.697-1.075-3.647-2.22-5.854-3.434c-4.017-2.209-8.259-3.343-12.505-3.864l0.029-32.765l-99.927-0.098L235.511,124.059z   M244.969,311.97l256.409,0.25l0.175-179.43l-256.409-0.25L244.969,311.97z M62.802,396.692v111.734h9.98V396.842h-8.188  C63.984,396.842,63.388,396.781,62.802,396.692z M131.238,508.426h9.98V396.842h-9.98V508.426z M402.556,456.336h25.332  c1.559,0,2.835,1.276,2.835,2.835v6.034h-28.167v38.027h28.167v5.194h71.323v-59.931h-99.489V456.336z M359.773,451.329v57.096  h6.162v-5.194h12.991v-38.027h-12.991v-6.034c0-1.559,1.276-2.835,2.835-2.835h10.156v-7.842h-16.318  C361.049,448.495,359.773,449.77,359.773,451.329z M531.058,448.495h-5.382v59.931h8.217v-57.096  C533.892,449.77,532.617,448.495,531.058,448.495z M378.654,439.787c-0.728-4.641-1.455-8.677-2.042-11.748  c-1.66-8.67-2.651-20.694-3.126-27.693h-4.225c0.474,6.999,1.466,19.023,3.126,27.693c0.588,3.07,1.315,7.106,2.042,11.748H378.654z  "/>
<path id="color_x5F_3" fill="#a1a1a1" d="M501.52,166.723H245.111l0.01-10.455h3.368c0.3-1.353,1.646-6.259,5.63-7.485  c4.634-1.426,36.713,0,36.713,0s3.617,1.659,5.481,7.485H501.53L501.52,166.723z M290.304,224.433c-0.925,0-1.682,0.757-1.682,1.682  s0.757,1.682,1.682,1.682h23.759c0.925,0,1.682-0.757,1.682-1.682s-0.757-1.682-1.682-1.682H290.304z M283.025,232.496h72.186  v68.934h-72.186V232.496z M345.791,258.581h-33.987c-2.198,0-3.996,1.798-3.996,3.996v4.704c0,2.198,1.798,3.996,3.996,3.996h31.509  l3.291,4.854c2.01,1.842,3.182-0.167,3.182-0.167v-8.682v-2.908v-1.796C349.787,260.379,347.989,258.581,345.791,258.581z   M288.622,256.413c0,0,1.172,2.01,3.182,0.167l3.291-4.854h31.509c2.198,0,3.996-1.798,3.996-3.996v-4.704  c0-2.198-1.798-3.996-3.996-3.996h-33.987c-2.198,0-3.996,1.798-3.996,3.996v1.796v2.908V256.413z M288.622,295.752  c0,0,1.172,2.01,3.182,0.168l3.291-4.854h31.509c2.198,0,3.996-1.798,3.996-3.996v-4.704c0-2.198-1.798-3.996-3.996-3.996h-33.987  c-2.198,0-3.996,1.798-3.996,3.996v1.796v2.908V295.752z M253.011,432.536c5.246,1.18,10.473,2.369,14.998,3.425v-35.614h-14.998  V432.536z M137.396,294.188H64.594c-6.6,0-12,5.4-12,12v78.653c0,6.6,5.4,12,12,12h72.802c-6.6,0-12-5.4-12-12v-78.653  C125.396,299.588,130.796,294.188,137.396,294.188z M390.9,371.289v16.209h5.791v0.192v12.657h-9.133v108.079h14.998V400.347  h108.121v108.079h14.998V400.347V387.69h16.185v-16.401H390.9z"/>
<path id="color_x5F_2" fill="#667f96" d="M283.025,301.43h72.186v10.817h-72.186V301.43z M439.683,199.589h22.867v-22.867  h-22.867V199.589z M468.996,199.589h22.867v-22.867h-22.867V199.589z M439.683,229.842h22.867v-22.867h-22.867V229.842z   M468.996,229.842h22.867v-22.867h-22.867V229.842z M253.624,173.257v11.881h11.881v-11.881H253.624z M300.01,176.822h-25.475  c-1.307,0-2.376,1.069-2.376,2.376s1.069,2.376,2.376,2.376h25.475c1.307,0,2.376-1.069,2.376-2.376S301.317,176.822,300.01,176.822  z M307.808,262.577v4.704c0,2.198,1.798,3.996,3.996,3.996h31.509l3.291,4.854c2.01,1.842,3.182-0.167,3.182-0.167v-8.682v-2.908  v-1.796c0-2.198-1.798-3.996-3.996-3.996h-33.987C309.607,258.581,307.808,260.379,307.808,262.577z M326.605,239.031h-33.987  c-2.198,0-3.996,1.798-3.996,3.996v1.796v2.908v8.682c0,0,1.172,2.01,3.182,0.167l3.291-4.854h31.509  c2.198,0,3.996-1.798,3.996-3.996v-4.704C330.601,240.83,328.803,239.031,326.605,239.031z M288.622,284.162v2.908v8.682  c0,0,1.172,2.01,3.182,0.168l3.291-4.854h31.509c2.198,0,3.996-1.798,3.996-3.996v-4.704c0-2.198-1.798-3.996-3.996-3.996h-33.987  c-2.198,0-3.996,1.798-3.996,3.996V284.162z M154.535,384.842v-78.653c0-6.6-5.4-12-12-12h-5.139c-6.6,0-12,5.4-12,12v78.653  c0,6.6,5.4,12,12,12h5.139C149.135,396.842,154.535,391.442,154.535,384.842z M245.121,156.146l3.395,0.003  c0.344-1.489,1.718-6.172,5.602-7.367c4.634-1.426,36.713,0,36.713,0s3.585,1.648,5.456,7.414l73.383,0.072h131.86l0,0.129h0  l0.012-11.884l-256.409-0.25L245.121,156.146z M355.21,232.496h-72.186v-13.734h72.186V232.496z M315.745,226.115  c0-0.925-0.757-1.682-1.682-1.682h-23.759c-0.925,0-1.682,0.757-1.682,1.682s0.757,1.682,1.682,1.682h23.759  C314.988,227.797,315.745,227.04,315.745,226.115z M54.109,498.782c0,2.591,0,6.228,0,9.644h8.693v-17.485h-0.852  C61.951,490.941,54.109,492.366,54.109,498.782z M206.663,495.218c0,0-31.366,0.713-59.881-0.713  c-1.941-0.097-3.78-0.24-5.564-0.404v14.325h69.889C212.625,498.563,206.663,495.218,206.663,495.218z M128.78,492.28  c-0.454-0.094-0.901-0.19-1.34-0.288c-0.233-0.052-0.467-0.103-0.695-0.155c-0.259-0.06-0.511-0.121-0.764-0.182  c-0.676-0.161-1.333-0.326-1.969-0.494c-0.053-0.014-0.108-0.028-0.161-0.042c-0.222-0.059-0.455-0.117-0.673-0.177H72.782v17.485  h58.455v-15.665c-0.687-0.125-1.351-0.255-2.006-0.388C129.08,492.342,128.931,492.311,128.78,492.28z M502.045,400.347v108.079  h8.632V400.347H502.045z M390.9,371.289h-31.27c-0.161,0.044-0.97,0.582-1.145,0.621c-6.416,1.426-46.406,0.218-46.406,0.218  c-0.322,0.22-10.267,8.634-36.822,18.614c-13.296,4.997-29.81,9.791-39.386,8.376c-15.683-2.317-21.475-15.772-21.475-15.772  l-2.406,0.891c-0.13,6.742-0.241,11.837,0.256,16.109h32.134v30.259c2.803,0.623,5.719,1.275,8.632,1.93v-32.188h125.914v108.079  h8.632V400.347h9.133v-12.849H390.9V371.289z"/>
<path id="color_x5F_1" fill="#000000" d="M244.968,312.971l256.409,0.25h0.001c0.552,0,0.999-0.447,1-0.999l0.176-179.43  c0-0.265-0.104-0.52-0.292-0.708c-0.188-0.188-0.441-0.293-0.707-0.293l-256.41-0.25c0,0,0,0-0.001,0  c-0.265,0-0.519,0.105-0.707,0.292c-0.188,0.188-0.293,0.442-0.293,0.707l-0.175,179.431  C243.969,312.522,244.416,312.97,244.968,312.971z M500.531,155.624H297.159c-2.005-5.908-5.746-7.675-5.914-7.751  c-0.116-0.053-0.242-0.083-0.369-0.089c-1.317-0.059-32.308-1.417-37.051,0.043c-4.15,1.277-5.726,5.885-6.211,7.797h-1.492  l0.01-10.475h254.41L500.531,155.624z M295.027,155.624H249.69c0.519-1.762,1.84-4.999,4.723-5.886  c3.636-1.118,27.113-0.363,36.155,0.034C291.176,150.115,293.502,151.655,295.027,155.624z M246.12,157.624h254.41l-0.008,8.337  h-254.41L246.12,157.624z M354.21,219.762v11.734h-70.185v-11.734H354.21z M354.21,300.431h-70.185v-66.935h70.185V300.431z   M284.025,302.431h70.185v8.647l-70.185-0.068V302.431z M355.21,217.762h-40.636V167.96h112.535v143.188l-70.899-0.069v-92.317  C356.21,218.21,355.763,217.762,355.21,217.762z M246.11,167.96h66.465v49.802h-29.549c-0.552,0-1,0.448-1,1v92.245l-36.055-0.035  L246.11,167.96z M429.109,311.15V167.96h71.41l-0.14,143.259L429.109,311.15z M500.553,133.79l-0.009,9.359h-254.41l0.009-9.607  L500.553,133.79z M550.96,507.68h-16.067v-56.351v-8.707c0-2.114-1.721-3.835-3.835-3.835h-4.382v-38.353  c-0.006,0.003-0.013,0.004-0.019,0.006c0.003-0.033,0.019-0.061,0.019-0.094V388.69h15.186c0.553,0,1-0.447,1-1v-16.401  c0-0.553-0.447-1-1-1h-91.023c-1.202-7.562-7.746-13.368-15.641-13.368c-5.772,0-10.824,3.102-13.594,7.724l-12.206-0.012  l0.04-43.031l111.398,0.109h0.001c0.552,0,0.999-0.447,1-0.999l0.192-196.373c0-0.265-0.104-0.52-0.292-0.708  c-0.188-0.188-0.441-0.293-0.707-0.293l-9.825-0.01c0,0-0.001,0-0.001,0l-275.692-0.269c0,0,0,0-0.001,0c-0.552,0-1,0.447-1,0.999  l-0.192,196.372c0,0.553,0.447,1,0.999,1.001l98.927,0.097l-0.027,30.666c-5.607-0.556-11.144-0.146-16.032,0.225  c-4.357,0.328-8.475,0.64-11.668,0.184c-9.85-1.396-51.954,6.823-55.199,7.455l-2.619-3.334c0.739-2.406,1.054-4.891,0.933-7.456  c-0.009-0.187-0.069-0.365-0.174-0.519c-14.062-20.492-26.696-41.465-35.576-59.053c-12.379-24.521-33.431-26.719-40.349-27.441  c-0.403-0.042-0.762-0.079-1.16-0.123c-0.093-0.003-0.181-0.006-0.272-0.009c0.053-1.695,0.129-3.437,0.221-5.187  c2.608-0.312,5.393-0.763,8.4-1.428c19.86-4.394,28.149-22.953,29.602-26.604c1.441-0.244,3.538-1.354,4.411-4.458  c0.75-2.667-0.65-4.279-1.672-5.456c-0.852-0.981-1.328-1.578-1.197-2.457c0.218-1.474,1.341-8.882,2.44-16.12  c1.625-0.417,3.141-0.801,4.396-1.09c0.33-0.076,0.599-0.313,0.715-0.63c1.896-5.175,1.794-12.645,1.703-19.235  c-0.006-0.435-0.012-0.866-0.017-1.293c0.88,3.986,1.714,9.145,1.569,13.961c-0.012,0.401,0.217,0.771,0.582,0.938  c0.285,0.131,0.61,0.119,0.88-0.022c0.208-0.079,0.991-0.322,1.57-0.502c2.603-0.808,2.603-0.808,2.763-1.384  c7.918-28.131-5.462-40.255-9.891-43.384c3.252-2.397,11.323-9.345,8.095-17.256c-0.497-1.219-1.83-0.806-3.849-0.181  c-3.558,1.101-10.161,3.144-18.606,0.992c-2.797-1.965-40.691-27.732-78.808-10.878c-5.569,2.462-8.629,5.917-10.273,7.773  c-0.425,0.48-0.908,1.024-1.056,1.114c-6.865,2.826-12.396,7.411-16.456,13.637c-0.018-0.002-0.037-0.003-0.055-0.004  c-0.282-0.011-0.548,0.088-0.748,0.282c-4.105,3.995-10.265,30.623-14.252,53.674c-5.349,30.926-7.509,57.148-5.778,70.143  c0.723,5.428,2.104,8.638,4.22,9.813c3.152,1.751,9.716,2.835,17.957,3.468c-2.863,4.154-5.067,8.542-6.137,12.836H64.594  c-7.168,0-13,5.832-13,13v78.653c0,6.209,4.378,11.408,10.208,12.69v92.422c-0.01,0.002-0.02,0.001-0.03,0.003  c-2.997,0.544-8.663,3.09-8.663,8.825v8.897H38.99c-0.552,0-1,0.447-1,1s0.448,1,1,1h511.97c0.553,0,1-0.447,1-1  S551.513,507.68,550.96,507.68z M84.672,397.842c0.138,8.307,0.403,15.764,0.696,21.955l0.112,2.372  c1.717,36.454,2.178,46.252,17.094,61.878c0.18,0.189,0.428,0.3,0.689,0.309c0.96,0.033,1.902,0.054,2.833,0.069  c0.044,0.055,0.078,0.117,0.135,0.164c0.247,0.201,3.474,2.749,10.504,5.353H73.782v-92.099H84.672z M137.396,395.842  c-6.065,0-11-4.935-11-11v-78.653c0-6.065,4.935-11,11-11h5.139c6.065,0,11,4.935,11,11v78.653c0,6.065-4.935,11-11,11H137.396z   M130.238,491.536c-10.855-2.121-17.489-5.296-20.601-7.108c7.821-0.071,14.613-0.798,20.601-2.029V491.536z M130.238,480.331  c-7.418,1.575-16.09,2.362-26.499,2.039c-14.125-14.906-14.541-23.767-16.261-60.296l-0.112-2.371  c-0.291-6.166-0.555-13.591-0.694-21.861h43.566V480.331z M73.782,491.94h49.223c2.175,0.595,4.583,1.158,7.233,1.659v14.08H73.782  V491.94z M132.238,397.842h5.158h2.822V507.68h-7.98V397.842z M142.218,495.194c1.459,0.123,2.951,0.232,4.515,0.31  c26.743,1.336,56.352,0.789,59.652,0.72c0.973,0.665,4.781,3.821,3.817,11.456h-67.984V495.194z M207.149,494.344  c-0.156-0.087-0.328-0.125-0.509-0.126c-0.313,0.007-31.656,0.696-59.809-0.712c-1.601-0.08-3.124-0.195-4.614-0.323v-14.246  c14.61-5.647,23.456-14.855,32.117-23.884c12.56-13.094,24.442-25.464,52.862-27.212c9.388,2.054,34.585,7.598,46.954,10.607  c26.37,6.414,41.025,41.569,37.764,69.232h-99.718C213.313,497.959,207.419,494.494,207.149,494.344z M213.817,383.832  c0.308,0.564,0.853,1.505,1.641,2.667h-2.837c0.005-0.728,0.013-1.47,0.027-2.234C213.045,384.122,213.428,383.976,213.817,383.832z   M217.062,388.69c3.05,3.873,8.087,8.714,15.153,10.656h-19.061c-0.316-3.002-0.503-6.51-0.53-10.656H217.062z M510.202,125.328  l-0.19,194.372l-105.191-0.103l-1.42-0.002H403.4c0,0-0.001,0-0.001,0l-33.89-0.033l-34.262-0.034h-0.001c0,0,0,0,0,0l-98.926-0.097  l0.19-194.372L510.202,125.328z M406.532,370.289l0.007-3.658l1.856,0.002h0.001c0,0,0,0,0.001,0l12.211,0.012  c-0.487,1.155-0.854,2.371-1.056,3.645H406.532z M393.083,366.617l10.273,0.01c0.001,0,0.001,0,0.002,0l1.181,0.001l-0.007,3.66  h-11.449V366.617z M391.083,370.289H390.9h-28.03c0.148-0.276,0.254-0.57,0.3-0.891c0.122-0.852,0.425-3.032-6.308-7.806h32.385  c1.012,0,1.835,0.822,1.835,1.834V370.289z M359.346,372.393c0.139-0.031,0.262-0.069,0.393-0.104H389.9v14.21H287.904  c8.42-3.722,16.855-8.18,24.476-13.365C316.481,373.204,353.118,373.776,359.346,372.393z M282.748,388.69H390.9h4.791v10.656  H246.999C256.091,397.808,269.173,394.228,282.748,388.69z M377.926,464.205h-10.99v-5.034c0-1.012,0.822-1.835,1.834-1.835h9.156  V464.205z M366.936,466.205h10.99v36.027h-10.99V466.205z M373.369,427.852c-1.561-8.154-2.533-19.409-3.033-26.505h2.22  c0.502,7.139,1.485,18.58,3.074,26.882c0.581,3.035,1.224,6.623,1.857,10.559h-2.198C374.635,434.7,373.97,430.988,373.369,427.852z   M377.926,440.787v6.707h-15.318c-0.668,0-1.287,0.187-1.834,0.488v-5.36c0-1.012,0.822-1.835,1.834-1.835H377.926z   M377.926,429.608c-0.112-0.601-0.223-1.191-0.331-1.756c-1.561-8.155-2.533-19.409-3.034-26.505h3.365V429.608z M254.011,431.737  v-30.39h12.999v33.355C263.01,433.773,258.532,432.754,254.011,431.737z M252.011,401.347v29.94  c-2.235-0.502-4.464-0.999-6.632-1.482v-28.458H252.011z M243.379,401.347v28.013c-5.779-1.284-10.99-2.43-14.549-3.209  c-2.015-3.187-4.216-5.064-6.347-6.876c-3.847-3.271-7.538-6.42-9.093-17.928H243.379z M274.623,436.504  c-1.661-0.404-3.559-0.855-5.613-1.336v-33.822h99.321c0.502,7.139,1.485,18.58,3.074,26.882c0.581,3.037,1.225,6.62,1.859,10.559  h-10.656c-2.114,0-3.834,1.721-3.834,3.835v8.707v56.351h-44.851C317.171,479.218,301.934,443.147,274.623,436.504z   M360.773,451.329c0-1.012,0.822-1.835,1.834-1.835h15.318v5.842h-9.156c-2.114,0-3.834,1.721-3.834,3.835v48.509h-4.162V451.329z   M366.936,504.232h10.99v3.447h-10.99V504.232z M379.926,401.347h6.632V507.68h-6.632V401.347z M388.558,401.347h8.134h4.864V507.68  h-12.998V401.347z M403.556,466.205h26.167v36.027h-26.167V466.205z M429.723,464.205h-26.167v-6.869h24.332  c1.012,0,1.835,0.823,1.835,1.835V464.205z M403.556,440.787h31.374c1.012,0,1.835,0.823,1.835,1.835v4.872h-33.209V440.787z   M438.276,440.787h62.769v6.707h-62.28v-4.872C438.765,441.954,438.578,441.335,438.276,440.787z M501.045,438.787H434.93h-17.685  c0.407-2.358,0.808-4.552,1.183-6.51c1.943-10.149,2.982-25.008,3.34-30.931h79.277V438.787z M416.463,431.9  c-0.395,2.062-0.818,4.385-1.248,6.887h-2.195c0.407-2.358,0.808-4.553,1.183-6.511c1.942-10.151,2.982-25.01,3.339-30.93h2.222  C419.402,407.307,418.372,421.93,416.463,431.9z M412.238,431.9c-0.395,2.063-0.818,4.385-1.248,6.887h-7.435v-37.44h11.982  C415.177,407.301,414.147,421.925,412.238,431.9z M403.556,504.232h26.167v3.447h-26.167V504.232z M427.888,455.336h-24.332v-5.842  h33.209v58.186h-5.042v-48.509C431.723,457.057,430.002,455.336,427.888,455.336z M438.765,449.494h62.28v58.186h-62.28V449.494z   M503.045,401.347h6.633V507.68h-6.633V401.347z M511.678,401.347h12.998V507.68h-12.998V401.347z M526.676,449.494h4.382  c1.012,0,1.835,0.823,1.835,1.835v56.351h-6.217V449.494z M531.058,440.787c1.012,0,1.835,0.823,1.835,1.835v5.361  c-0.548-0.302-1.167-0.489-1.835-0.489h-4.382v-6.707H531.058z M524.676,399.347H397.691V388.69h126.984V399.347z M540.861,386.69  h-14.629c-0.161-0.111-0.346-0.191-0.557-0.191H396.691H391.9v-14.21h148.961V386.69z M435.197,358.921  c6.791,0,12.44,4.913,13.619,11.368H421.57C422.749,363.833,428.406,358.921,435.197,358.921z M407.438,321.601l-0.04,43.031  l-3.037-0.003l0.039-43.031l1.164,0.001L407.438,321.601z M519.838,319.71l-7.826-0.008l0.19-194.373l7.826,0.008L519.838,319.71z   M336.245,321.53l65.848,0.064l-0.038,43.031l-8.972-0.009v-1.19c0-2.114-1.721-3.834-3.835-3.834h-35.391  c-1.601-1.008-3.463-2.107-5.652-3.311c-3.851-2.119-7.92-3.265-11.987-3.846L336.245,321.53z M254.263,367.044  c0.197,0.251,0.49,0.382,0.787,0.382c0.216,0,0.434-0.069,0.617-0.214c0.435-0.341,0.51-0.97,0.168-1.404l-3.128-3.982  c7.082-1.367,44.713-8.499,53.527-7.242c3.413,0.485,7.634,0.167,12.103-0.17c9.198-0.694,19.625-1.483,28.904,3.62  c13.708,7.54,14.025,10.554,13.95,11.081c-0.077,0.537-0.908,1.02-2.279,1.324c-6.229,1.384-46.41,0.698-46.815,0.689  c-0.205,0.009-0.411,0.058-0.582,0.175c-27.636,18.908-63.319,26.914-72.861,26.914c-13.607,0-21.205-11.988-22.947-15.099  c17.426-6.724,28.192-14.818,32.183-24.188L254.263,367.044z M209.886,216.243c-0.271,1.831,0.758,3.016,1.666,4.061  c0.958,1.103,1.714,1.974,1.256,3.603c-0.847,3.011-2.941,3.059-3.147,3.053c-0.431-0.013-0.849,0.254-0.993,0.674  c-0.073,0.213-7.55,21.314-28.378,25.922c-2.801,0.62-5.408,1.047-7.856,1.347c0.241-4.161,0.547-8.255,0.803-11.681  c0.909-12.171,0.922-13.795,0.12-14.483c-0.152-0.131-0.375-0.221-0.596-0.251l0.001-0.004c-0.068-0.01-6.87-1.097-10.453-6.104  c-2.022-2.826-2.663-6.399-1.904-10.621c1.17-6.518,5.043-8.083,7.248-8.436c3.629-0.582,7.607,1.288,9.257,4.345  c0.93,1.723,1.814,2.586,2.867,2.798c1.483,0.3,2.773-0.742,4.565-2.183c2.312-1.859,5.479-4.406,10.911-5.943  c0.378-0.107,0.659-0.425,0.717-0.814c1.108-7.38,2.114-12.521,2.764-15.543c1.203,3.664,2.947,9.992,3.059,16.153  c0.005,0.29,0.136,0.563,0.359,0.75c0.222,0.186,0.514,0.264,0.801,0.22c2.272-0.369,5.766-1.254,9.246-2.15  C211.142,207.922,210.096,214.826,209.886,216.243z M78.774,266.806c-3.797-28.513,11.734-110.904,18.875-121.418  c0.104,0.026,0.211,0.037,0.321,0.028c0.321-0.023,0.61-0.2,0.778-0.474c3.88-6.328,9.294-10.955,16.093-13.753  c0.536-0.221,1.009-0.754,1.792-1.638c1.651-1.864,4.415-4.984,9.584-7.27c38.338-16.954,76.599,10.499,76.98,10.778  c0.102,0.074,0.216,0.129,0.338,0.161c9.083,2.369,16.375,0.113,19.878-0.971c0.568-0.176,1.191-0.369,1.595-0.463  c2.605,7.862-8.653,15.104-8.77,15.178c-0.302,0.192-0.479,0.531-0.463,0.889c0.016,0.357,0.222,0.68,0.54,0.845  c0.781,0.404,18.936,10.216,10.359,41.441c-0.417,0.138-1.078,0.343-1.564,0.495c-0.153,0.047-0.294,0.091-0.423,0.131  c-0.053-9.64-3.389-19.71-3.538-20.155c-0.152-0.453-0.607-0.739-1.076-0.674c-0.474,0.061-0.838,0.449-0.87,0.925  c-0.169,2.523-0.128,5.488-0.085,8.627c0.085,6.198,0.182,13.194-1.406,18.015c-1.512,0.358-3.317,0.823-5.216,1.312  c-3.152,0.812-6.396,1.648-8.743,2.113c-0.452-9.393-4.138-18.463-4.301-18.86c-0.164-0.397-0.556-0.646-0.989-0.618  c-0.428,0.028-0.791,0.325-0.902,0.74c-0.065,0.244-1.591,6.021-3.474,18.41c-5.454,1.666-8.774,4.337-10.999,6.126  c-1.264,1.017-2.36,1.899-2.916,1.78c-0.275-0.055-0.76-0.411-1.503-1.788c-2.069-3.833-6.84-6.089-11.333-5.37  c-4.642,0.743-7.886,4.409-8.9,10.057c-0.858,4.78-0.099,8.869,2.257,12.152c3.494,4.871,9.392,6.426,11.223,6.804  c0.152,1.668-0.267,7.274-0.673,12.712c-1.178,15.772-1.986,29.35-0.08,34.552c-11.037,0.631-77.296,4.109-89.18-2.491  C80.948,274.561,79.552,272.65,78.774,266.806z M101.348,280.519c6.758,0.435,14.46,0.601,22.253,0.601  c23.339,0,47.46-1.477,49.24-1.588c0.382-0.024,0.717-0.264,0.862-0.618s0.076-0.76-0.178-1.046c-1.31-1.47-1.611-7.05-1.475-13.746  c0.06,0.002,0.117,0.004,0.177,0.006c0.318,0.038,0.686,0.076,1.099,0.119c6.649,0.694,26.885,2.807,38.772,26.353  c8.884,17.598,21.503,38.557,35.549,59.045c0.49,14.525-14.406,26.496-44.282,35.589c-8.149-10.39-34.919-60.198-34.999-68.718  c-0.005-0.55-0.452-0.991-1-0.991h-0.009c-0.552,0.005-0.996,0.457-0.991,1.009c0.09,9.682,28.661,61.836,35.875,70.493  c0.256,0.308,0.672,0.433,1.056,0.317c2.551-0.768,4.998-1.557,7.339-2.368c-0.38,26.528,4.931,31.044,10.551,35.822  c1.693,1.439,3.434,2.92,5.046,5.094c-28.621,2.003-41.185,15.102-53.343,27.776c-8.323,8.676-16.839,17.512-30.673,23.063v-78.889  h0.317c7.168,0,13-5.832,13-13v-78.653c0-7.169-5.832-13-13-13h-5.139H94.898C96.033,289.016,98.359,284.657,101.348,280.519z   M53.594,384.842v-78.653c0-6.065,4.935-11,11-11H130.5c-3.659,2.303-6.104,6.367-6.104,11v78.653c0,4.633,2.444,8.697,6.104,11  H64.594C58.529,395.842,53.594,390.907,53.594,384.842z M64.594,397.842h7.188V507.68h-7.98V397.802  C64.065,397.818,64.327,397.842,64.594,397.842z M55.109,498.782c0-4.873,5.296-6.454,6.693-6.786v15.684h-6.693V498.782z   M265.505,172.257h-11.881c-0.552,0-1,0.448-1,1v11.881c0,0.552,0.448,1,1,1h11.881c0.552,0,1-0.448,1-1v-11.881  C266.505,172.705,266.057,172.257,265.505,172.257z M264.505,184.139h-9.881v-9.881h9.881V184.139z M300.01,182.574  c1.861,0,3.376-1.515,3.376-3.376c0-1.862-1.515-3.376-3.376-3.376h-25.475c-1.862,0-3.376,1.515-3.376,3.376  c0,1.861,1.515,3.376,3.376,3.376H300.01z M273.158,179.198c0-0.759,0.618-1.376,1.376-1.376h25.475  c0.759,0,1.376,0.618,1.376,1.376s-0.617,1.376-1.376,1.376h-25.475C273.776,180.574,273.158,179.957,273.158,179.198z   M462.55,175.723h-22.866c-0.553,0-1,0.448-1,1v22.867c0,0.552,0.447,1,1,1h22.866c0.553,0,1-0.448,1-1v-22.867  C463.55,176.17,463.103,175.723,462.55,175.723z M461.55,198.589h-20.866v-20.867h20.866V198.589z M491.862,175.723h-22.867  c-0.553,0-1,0.448-1,1v22.867c0,0.552,0.447,1,1,1h22.867c0.553,0,1-0.448,1-1v-22.867  C492.862,176.17,492.415,175.723,491.862,175.723z M490.862,198.589h-20.867v-20.867h20.867V198.589z M462.55,205.975h-22.866  c-0.553,0-1,0.448-1,1v22.867c0,0.552,0.447,1,1,1h22.866c0.553,0,1-0.448,1-1v-22.867  C463.55,206.423,463.103,205.975,462.55,205.975z M461.55,228.842h-20.866v-20.867h20.866V228.842z M491.862,205.975h-22.867  c-0.553,0-1,0.448-1,1v22.867c0,0.552,0.447,1,1,1h22.867c0.553,0,1-0.448,1-1v-22.867  C492.862,206.423,492.415,205.975,491.862,205.975z M490.862,228.842h-20.867v-20.867h20.867V228.842z M165.796,306.317  c4.61-11.522,14.489-20.308,26.426-23.5c0.534-0.144,1.082,0.173,1.224,0.708c0.143,0.533-0.174,1.082-0.708,1.224  c-11.331,3.031-20.708,11.372-25.086,22.311c-0.156,0.392-0.532,0.629-0.929,0.629c-0.124,0-0.249-0.022-0.371-0.071  C165.84,307.412,165.591,306.83,165.796,306.317z M123.353,141.656c-0.095,0.476-0.514,0.811-0.983,0.811  c-0.06,0-0.122-0.005-0.183-0.017c-0.539-0.101-0.897-0.611-0.802-1.15c0.041-0.23,1.094-5.667,10.021-7.251  c0.548-0.094,1.063,0.267,1.16,0.81c0.096,0.544-0.267,1.063-0.81,1.16C124.293,137.341,123.388,141.48,123.353,141.656z   M119.563,144.871c-0.001,0.551-0.447,0.997-0.997,0.999c-0.238,0.002-5.836,0.127-7.021,7.14c-0.082,0.488-0.505,0.833-0.985,0.833  c-0.055,0-0.111-0.004-0.167-0.014c-0.544-0.092-0.912-0.608-0.819-1.152c1.471-8.712,8.906-8.807,8.991-8.807  C119.117,143.87,119.564,144.318,119.563,144.871z M306.809,262.577v4.704c0,2.754,2.241,4.996,4.995,4.996h30.979l2.993,4.415  c0.044,0.064,0.095,0.124,0.152,0.176c0.755,0.692,1.528,1.041,2.303,1.041c0.13,0,0.261-0.01,0.391-0.029  c1.284-0.195,1.956-1.289,2.028-1.413c0.09-0.153,0.137-0.327,0.137-0.504v-13.386c0-2.754-2.241-4.996-4.996-4.996h-33.987  C309.05,257.581,306.809,259.822,306.809,262.577z M348.787,262.577v13.047c-0.11,0.117-0.277,0.252-0.473,0.278  c-0.246,0.034-0.586-0.12-0.952-0.437l-3.221-4.75c-0.187-0.274-0.496-0.439-0.828-0.439h-31.51c-1.651,0-2.995-1.344-2.995-2.996  v-4.704c0-1.652,1.344-2.996,2.995-2.996h33.987C347.443,259.581,348.787,260.925,348.787,262.577z M289.787,258.33  c0.13,0.02,0.26,0.029,0.391,0.029c0.774,0,1.547-0.349,2.303-1.041c0.057-0.053,0.108-0.112,0.152-0.176l2.994-4.415h30.979  c2.754,0,4.995-2.241,4.995-4.996v-4.704c0-2.755-2.241-4.996-4.995-4.996h-33.987c-2.754,0-4.996,2.241-4.996,4.996v13.386  c0,0.177,0.047,0.351,0.136,0.504C287.831,257.041,288.503,258.135,289.787,258.33z M289.623,243.027  c0-1.652,1.344-2.996,2.996-2.996h33.987c1.651,0,2.995,1.344,2.995,2.996v4.704c0,1.652-1.344,2.996-2.995,2.996h-31.51  c-0.332,0-0.642,0.165-0.828,0.439l-3.221,4.75c-0.367,0.316-0.708,0.474-0.952,0.437c-0.196-0.026-0.363-0.163-0.472-0.277V243.027  z M287.759,296.256c0.072,0.124,0.744,1.218,2.028,1.413c0.13,0.02,0.26,0.029,0.391,0.029c0.774,0,1.547-0.349,2.303-1.041  c0.057-0.053,0.108-0.112,0.152-0.176l2.994-4.415h30.979c2.754,0,4.995-2.241,4.995-4.996v-4.704c0-2.755-2.241-4.996-4.995-4.996  h-33.987c-2.754,0-4.996,2.241-4.996,4.996v13.385C287.623,295.929,287.669,296.103,287.759,296.256z M289.623,282.367  c0-1.652,1.344-2.996,2.996-2.996h33.987c1.651,0,2.995,1.344,2.995,2.996v4.704c0,1.652-1.344,2.996-2.995,2.996h-31.51  c-0.332,0-0.642,0.165-0.828,0.439l-3.221,4.75c-0.367,0.317-0.708,0.471-0.952,0.437c-0.196-0.026-0.363-0.163-0.472-0.277V282.367  z M290.304,228.797h23.759c1.479,0,2.682-1.203,2.682-2.682s-1.203-2.682-2.682-2.682h-23.759c-1.479,0-2.682,1.203-2.682,2.682  S288.826,228.797,290.304,228.797z M290.304,225.433h23.759c0.369,0,0.682,0.312,0.682,0.682s-0.312,0.682-0.682,0.682h-23.759  c-0.37,0-0.682-0.312-0.682-0.682S289.935,225.433,290.304,225.433z M350.652,306.852c-0.004,0.279-0.124,0.544-0.331,0.731  l-1.488,1.338c-0.191,0.171-0.431,0.256-0.669,0.256c-0.273,0-0.546-0.111-0.744-0.331c-0.369-0.411-0.335-1.043,0.075-1.413  l0.682-0.612l-0.7-0.662c-0.4-0.379-0.419-1.013-0.039-1.414c0.378-0.402,1.013-0.418,1.414-0.039l1.488,1.407  C350.542,306.304,350.656,306.572,350.652,306.852z M360.732,216.821l5.178-1.851c0.522-0.187,1.094,0.085,1.278,0.605  c0.187,0.52-0.085,1.092-0.604,1.278l-5.178,1.851c-0.111,0.04-0.226,0.059-0.337,0.059c-0.41,0-0.796-0.255-0.941-0.664  C359.941,217.579,360.213,217.006,360.732,216.821z M366.237,222.303c-0.034,0.529-0.474,0.936-0.997,0.936  c-0.021,0-0.043,0-0.064-0.002l-3.31-0.211c-0.552-0.035-0.97-0.511-0.935-1.062s0.509-0.977,1.062-0.934l3.31,0.211  C365.854,221.276,366.272,221.752,366.237,222.303z M358.344,212.99l2.246-3.545c0.296-0.466,0.913-0.606,1.38-0.31  c0.467,0.295,0.605,0.914,0.31,1.38l-2.246,3.545c-0.19,0.3-0.515,0.465-0.846,0.465c-0.183,0-0.368-0.05-0.534-0.155  C358.187,214.075,358.048,213.457,358.344,212.99z"/>
</svg>