<svg xmlns="http://www.w3.org/2000/svg" xmlns:xlink="http://www.w3.org/1999/xlink" version="1.1" id="Layer_1_15_" x="0px" y="0px" enable-background="new 0 0 595.276 595.276" xml:space="preserve" viewBox="74.03 57.88 446.5 478.8">
<path id="color_x5F_6" fill-rule="evenodd" clip-rule="evenodd" fill="#ffdbc6" d="M435.572,378.463  c-0.361,0.496-0.979,0.718-1.57,0.559c-0.593-0.159-1.028-0.664-1.093-1.275c-0.417-3.966-0.931-8.841-1.238-11.767  c-0.147-1.384,0.275-2.764,1.165-3.833c1.016-1.22,2.124-2.552,2.124-2.552c0.043-0.053,0.08-0.11,0.111-0.17l12.902-24.396  c0.163-0.313,0.148-0.689-0.039-0.989l-2.481-4.036c3.368-2.85,7.792-6.591,11.357-9.607l0,0c0.587,1.164,3.297,6.536,5.423,10.754  c1.029,2.043,0.836,4.481-0.495,6.34c-6.051,8.454-20.917,29.234-20.917,29.234c-0.147,0.203-0.213,0.452-0.185,0.701  c0.866,7.287,0.407,14.201-1.062,20.857c-0.338,1.458-1.27,2.708-2.573,3.444c-0.515,0.291-1.062,0.601-1.578,0.893  c-0.236,0.134-0.517,0.139-0.759,0.014c-0.241-0.126-0.401-0.364-0.426-0.634c-0.27-2.814-0.65-6.767-0.65-6.767l-0.419-4.396  c0.105,0.04,0.208,0.082,0.317,0.112c1.119,0.301,2.282-0.419,3.037-0.913c0.444-0.291,1.13-1.258,1.13-1.801v-6.215  c0-0.548-0.451-1-1-1c-0.548,0-1,0.451-1,1v6.215c0,0.079-0.025,0.155-0.073,0.221v0.008H435.572z M289.211,298.102  c0.165,0.002,0.332,0.034,0.495,0.098c3.284,1.284,7.667,2.999,13.626,5.33c0.025,0.011,0.051,0.02,0.076,0.029  c5.689,2.224,13.031,5.096,13.031,5.096c0.032,0.014,0.063,0.027,0.096,0.039l34.88,9.734c0.245,0.242,8.725,8.613,12.784,12.62  c-0.674,0.618-2.715,2.492-4.944,4.542c-1.734,1.594-4.234,2.034-6.406,1.12c-0.118-0.05-0.313-0.132-0.434-0.184  c-0.06-0.032-0.123-0.058-0.188-0.078c-11.629-4.897-40.845-17.196-40.845-17.196c-0.089-0.038-0.183-0.063-0.279-0.074  c0,0-6.055-0.654-10.327-1.116c-0.198-0.091-0.42-0.115-0.632-0.069c-0.633-0.068-1.103-0.118-1.611-0.173  c-0.987-0.107-1.889-0.611-2.499-1.393c-0.061-0.077-0.121-0.154-0.186-0.236c-0.738-0.945-0.967-2.186-0.618-3.332  c0.859-2.823,2.188-7.212,2.188-7.212c0.147-0.485-0.1-1.01-0.567-1.208c0,0-5.122-2.154-8.295-3.488  c-0.363-0.153-0.645-0.451-0.774-0.825c-0.129-0.374-0.089-0.785,0.103-1.13c0.033-0.059,0.071-0.119,0.104-0.178  c0-0.002,0-0.004,0-0.006C288.243,298.354,288.716,298.095,289.211,298.102L289.211,298.102L289.211,298.102z M408.485,236.142  c0.813,7.354,4.512,14.922,4.512,14.922c0.171,0.333,0.515,0.543,0.889,0.543c0.227,0,0.446-0.077,0.623-0.218  c0,0,0.055-0.043,0.162-0.127c1.263-0.993,2.986-1.145,4.401-0.383c1.414,0.763,2.237,2.293,2.101,3.894  c-0.117,1.368-0.922,2.58-2.138,3.22c-1.835,0.967-4.032,2.13-4.032,2.13c-0.331,0.172-0.538,0.513-0.538,0.886v4.865  c-0.015,0.098-0.015,0.198,0,0.297v10.389c-0.027,0.132-0.027,0.267,0,0.399v1.687c0,4.35-3.502,7.852-7.852,7.852  c-2.084,0-4.079-0.826-5.552-2.299c-1.473-1.473-2.3-3.469-2.3-5.552v-1.771c0.009-0.076,0.009-0.153,0-0.229v-6.812  c-0.001-0.526-0.418-0.967-0.944-0.995c0,0-2.878-0.179-6.016-0.37c-3.836-0.233-6.767-3.459-6.621-7.299  c0.257-6.782,0.476-12.596,0.669-17.676c0.013-0.082,0.017-0.166,0.01-0.248c0.07-1.864,0.23-6.11,0.25-6.621  c4.429,2.801,9.306,3.229,13.411,2.61C404.603,238.471,407.592,236.646,408.485,236.142L408.485,236.142L408.485,236.142  L408.485,236.142L408.485,236.142z M403.05,259.515c-0.036,0-0.073,0.003-0.109,0.008c-0.328,0.033-0.617,0.227-0.775,0.514  c-1.169,2.086-2.907,2.674-4.506,2.81c-1.599,0.136-2.905-0.258-2.905-0.258c-0.105-0.036-0.216-0.055-0.327-0.055  c-0.548,0-0.999,0.45-0.999,0.999c0,0.452,0.307,0.851,0.744,0.966c0,0,1.635,0.51,3.651,0.34c2.016-0.171,4.563-1.1,6.088-3.819  c0.09-0.154,0.138-0.328,0.138-0.505c0-0.548-0.451-0.999-0.999-0.999H403.05L403.05,259.515z M476.442,198.341  c-0.99,3.263-0.049,6.783,2.44,9.114c-3.262-0.99-6.775-0.048-9.106,2.44c0.989-3.263,0.048-6.784-2.441-9.114  C470.598,201.77,474.111,200.829,476.442,198.341z M85.223,164.912c1.769,3.514,5.465,5.645,9.394,5.419  c-3.517,1.769-5.645,5.455-5.419,9.385c-1.769-3.514-5.465-5.645-9.394-5.419C83.32,172.529,85.451,168.843,85.223,164.912z   M398.227,94.523c-0.131,0.393-0.13,0.381-0.266,0.788c-1.454,4.367-0.162,9.185,3.282,12.239c0.32,0.284,0.312,0.279,0.62,0.552  c-0.393-0.131-0.384-0.13-0.79-0.266c-4.368-1.454-9.185-0.162-12.239,3.281c-0.285,0.321-0.279,0.313-0.552,0.621  c0.13-0.39,0.131-0.38,0.266-0.783v-0.008c1.452-4.364,0.16-9.186-3.282-12.239c-0.319-0.282-0.311-0.272-0.618-0.544  c0.389,0.13,0.378,0.124,0.781,0.258c4.367,1.455,9.193,0.163,12.246-3.281C397.959,94.821,397.955,94.83,398.227,94.523  L398.227,94.523L398.227,94.523z"/>
<path id="color_x5F_5" fill-rule="evenodd" clip-rule="evenodd" fill="#aa6c54" d="M457.375,534.637h-29.523  c-1.592,0-2.86-1.274-2.86-2.867v-18.457h19.309c0.435,0.448,11.377,11.707,14.71,15.138h-0.008c0.413,0.425,0.65,0.992,0.65,1.584  v2.323C459.653,533.628,458.643,534.637,457.375,534.637z M391.903,534.637h-35.428c-1.966,0-3.539-1.574-3.539-3.539v-0.133  c0-1.111,0.522-2.156,1.408-2.825c5.143-3.88,19.271-14.541,19.65-14.828h21.03c0.021,1.133,0.216,11.366,0.336,17.798  c0.015,0.928-0.346,1.825-0.995,2.486C393.715,534.261,392.832,534.637,391.903,534.637z M201.075,292.531h87.12  c5.949,0,11.098,3.362,13.669,8.283c-5.148-2.013-8.681-3.393-11.436-4.471c-1.569-0.614-3.367,0.026-4.188,1.496  c-0.035,0.062-0.068,0.126-0.104,0.191c-0.465,0.839-0.555,1.843-0.242,2.751c0.184,0.529,0.502,0.987,0.904,1.359  c-0.028,0.025-0.054,0.051-0.079,0.078l-3.774,4.232l-3.774-4.232c-0.202-0.23-0.498-0.355-0.804-0.339  c-0.528,0.025-0.95,0.467-0.95,0.998c0,0.25,0.094,0.491,0.264,0.675l4.27,4.78v4.671c0,0.008,0,0.015,0,0.022  c0,0.548,0.45,1,0.999,1s0.999-0.451,0.999-1c0-0.007,0-0.014,0-0.022v-4.683l4.261-4.768c0.121-0.135,0.204-0.301,0.238-0.479  c2.718,1.143,6.014,2.533,6.797,2.862c-0.261,0.855-1.177,3.859-1.932,6.34c-0.536,1.766-0.18,3.691,0.958,5.146h0.008  c0.061,0.078,0.12,0.156,0.184,0.236c0.891,1.141,2.185,1.889,3.609,2.107c-2.676,2.239-6.108,3.601-9.875,3.601h-87.12  c-8.525,0-15.416-6.891-15.416-15.416C185.658,299.423,192.55,292.531,201.075,292.531L201.075,292.531L201.075,292.531z   M266.274,301.887c-0.548-0.002-1.001,0.447-1.003,0.995v10.123c0.012,0.539,0.458,0.977,0.999,0.977  c0.539,0,0.987-0.437,0.999-0.977v-4.061h2.567l4.777,4.769c0.189,0.195,0.448,0.306,0.719,0.306c0.547,0,0.999-0.451,0.999-0.999  c0-0.274-0.112-0.534-0.31-0.723l-3.355-3.353h0.119c0.936,0,1.838-0.372,2.499-1.032c0.661-0.661,1.032-1.558,1.032-2.493  c0-0.936-0.371-1.838-1.032-2.499c-0.661-0.661-1.563-1.033-2.499-1.033H266.274L266.274,301.887z M238.261,301.871  c-0.551,0-0.999,0.447-0.999,0.999c0,2.283,0,7.863,0,10.147c0,0.552,0.447,0.999,0.999,0.999c0.551,0,0.999-0.446,0.999-0.999  c0-2.283,0-7.863,0-10.147C239.26,302.318,238.812,301.871,238.261,301.871L238.261,301.871z M235.154,312.01h-8.045v-9.127  c0-0.004,0-0.008,0-0.012c0-0.548-0.451-0.999-0.999-0.999h-0.018c-0.545,0.009-0.988,0.464-0.981,1.011v10.122  c-0.002,0.548,0.446,1.001,0.995,1.003h9.048c0.007,0,0.015,0,0.022,0c0.548,0,0.999-0.45,0.999-0.999s-0.45-0.999-0.999-0.999  C235.169,312.01,235.161,312.01,235.154,312.01L235.154,312.01z M223.002,301.887h-9.046c-0.548-0.002-1.001,0.447-1.003,0.995  v10.123c0,0.002,0,0.003,0,0.004c0,0.548,0.45,0.999,0.999,0.999c0.001,0,0.003,0,0.004,0h9.046c0.007,0,0.014,0,0.022,0  c0.548,0,0.999-0.45,0.999-0.999s-0.45-0.999-0.999-0.999c-0.008,0-0.015,0-0.022,0h-8.051v-3.066h8.051  c0.548,0,0.999-0.451,0.999-1c0-0.548-0.45-1-0.999-1h-8.051v-3.059h8.051c0.539-0.012,0.976-0.458,0.976-0.999  C223.978,302.346,223.542,301.9,223.002,301.887z M263.162,301.887h-9.045c-0.545,0.003-0.993,0.45-0.995,0.995v4.975  c-0.005,0.056-0.005,0.112,0,0.168v4.98c-0.002,0.548,0.446,1.001,0.995,1.003h9.045c0.008,0,0.015,0,0.023,0  c0.548,0,0.999-0.45,0.999-0.999s-0.45-0.999-0.999-0.999c-0.008,0-0.015,0-0.023,0h-8.042v-3.066h8.042c0.549,0,1-0.451,1-1  c0-0.548-0.45-1-0.999-1h-8.043v-3.059h8.042c0.54-0.012,0.977-0.458,0.977-0.999C264.139,302.346,263.702,301.9,263.162,301.887  L263.162,301.887z M205.786,301.887h-3.981c-0.548-0.002-1.001,0.447-1.003,0.995v10.123c0,0.002,0,0.003,0,0.004  c0,0.548,0.45,0.999,0.999,0.999c0.001,0,0.003,0,0.004,0h3.981c1.607,0,3.148-0.641,4.284-1.777  c1.136-1.136,1.778-2.675,1.778-4.282c0-1.606-0.642-3.148-1.778-4.284S207.393,301.887,205.786,301.887L205.786,301.887z   M241.928,301.872c-0.535,0.018-0.966,0.462-0.966,0.998c0,0.148,0.033,0.293,0.096,0.426l4.52,10.115  c0.16,0.36,0.518,0.592,0.913,0.592c0.391,0,0.747-0.229,0.909-0.584l4.526-10.123c0.054-0.125,0.082-0.26,0.082-0.396  c0-0.549-0.452-1.002-1.002-1.002c-0.389,0-0.743,0.226-0.908,0.577l-3.613,8.08l-3.605-8.08  C242.718,302.099,242.339,301.858,241.928,301.872L241.928,301.872z M205.786,312.01H202.8v-8.125h2.986  c1.078,0,2.113,0.426,2.876,1.189c0.762,0.762,1.189,1.799,1.189,2.876c0,1.078-0.426,2.105-1.189,2.868  C207.9,311.578,206.864,312.01,205.786,312.01z M270.128,306.944h-2.86v-3.059h5.516c0.407,0,0.795,0.164,1.083,0.451  c0.288,0.288,0.45,0.675,0.45,1.083c0,0.407-0.163,0.797-0.45,1.084c-0.288,0.288-0.676,0.441-1.083,0.441h-2.426  c-0.039-0.004-0.078-0.006-0.118-0.006C270.204,306.938,270.166,306.94,270.128,306.944z M389.985,209.533  c0.098,0.738,0.05,0.906,0.287,1.888c0.259,1.073,0.617,2.2,1.144,3.186c0.526,0.986,1.241,1.884,2.331,2.278  c3.027,1.097,6.353,0.567,10.027,0.338c3.673-0.229,7.705-0.228,12.245,1.6c8.981,3.614,16.5,14.749,12.137,28.785  c-2.203,7.085-5.516,11.456-8.252,14.067c-1.959,1.87-2.681,2.062-3.443,2.448v-2.515c0.464-0.244,1.916-1.004,3.51-1.843  c1.816-0.958,3.019-2.778,3.193-4.822c0.204-2.389-1.032-4.679-3.141-5.818c-1.789-0.965-3.852-0.745-5.61,0.186  c-0.589-1.211-3.844-8.03-4.225-14.504c-0.03-0.525-0.471-0.942-0.998-0.942c-0.178,0-0.353,0.048-0.506,0.139  c0,0-4.123,2.455-9.46,3.259c-5.31,0.801-11.627,0.046-16.56-6.404c-0.039-0.068-0.086-0.132-0.141-0.189  c-1.579-2.146-1.891-4.479-1.445-6.959c0.451-2.517,1.722-5.138,3.238-7.483C386.731,212.491,388.838,210.622,389.985,209.533  L389.985,209.533z M297.38,159.937v62.853l-54.861,31.683V191.61l33.947-19.601L297.38,159.937L297.38,159.937z M185.658,159.931  l19.155,11.061v24.651c0.001,0.357,0.193,0.685,0.501,0.863l14.554,8.406c0.151,0.087,0.323,0.132,0.497,0.132  c0.547,0,0.998-0.449,0.999-0.997v-23.499l19.155,11.061v62.856l-54.862-31.675V159.931L185.658,159.931z M381.854,232.982  c0.748,0.797,1.536,1.451,2.322,2.113c-0.003,0.072-0.172,4.452-0.225,5.834c-2.344-2.734-2.745-4.827-2.593-6.261  C381.435,233.954,381.64,233.398,381.854,232.982z M277.235,147.143l19.145,11.055l-54.857,31.679l-19.159-11.063L277.235,147.143  L277.235,147.143z M241.523,126.521l19.156,11.062l-54.863,31.678l-19.153-11.059L241.523,126.521L241.523,126.521z"/>
<path id="color_x5F_4" fill-rule="evenodd" clip-rule="evenodd" fill="#97a4c5" d="M199.017,534.637h-20.103l27.535-32.81  c0.161-0.183,0.25-0.418,0.25-0.66c0-0.548-0.45-1-0.999-1c-0.04,0-0.081,0.003-0.121,0.008c-0.26,0.029-0.498,0.16-0.663,0.363  l-27.625,32.921c3.365-8.262,5.432-18.059,5.432-28.462c0-0.676-0.012-1.348-0.029-2.02c11.503-11.419,25.561-17.501,36.009-17.326  c2.273,11.521-2.543,29.159-14.703,43.648C202.412,531.194,200.737,532.967,199.017,534.637z M145.658,534.637h-20.105  c-1.72-1.669-3.395-3.443-4.984-5.338c-12.16-14.49-16.982-32.127-14.709-43.648l0,0c10.611-0.21,25.115,6.162,36.784,18.107  c-0.007,0.411-0.008,0.824-0.008,1.238c0,10.901,2.268,21.138,5.923,29.64h-0.299l-28.611-34.1  c-0.192-0.235-0.479-0.371-0.782-0.369c-0.546,0.003-0.994,0.452-0.994,0.999c0,0.243,0.088,0.477,0.249,0.659L145.658,534.637  L145.658,534.637z M161.681,534.637h-10.876c-3.755-8.398-6.17-18.653-6.17-29.64c0-20.306,8.206-38.146,18.048-46.036  c9.84,7.891,18.04,25.733,18.04,46.036c0,10.987-2.414,21.242-6.17,29.64h-10.876v-53.875c0-0.004,0-0.008,0-0.011  c0-0.548-0.45-1-0.999-1c-0.004,0-0.008,0-0.012,0.001c-0.547,0.006-0.993,0.462-0.987,1.01L161.681,534.637L161.681,534.637z   M396.76,278.188v0.46c0,2.613,1.037,5.119,2.883,6.967c1.847,1.848,4.356,2.882,6.969,2.882c5.429,0,9.849-4.421,9.849-9.849v-0.46  c1.522,0.542,9.917,3.532,14.998,5.342c1.908,0.679,3.587,1.875,4.851,3.457c4.967,6.215,17.317,21.665,21.853,27.34  c0.619,0.774,0.513,1.874-0.244,2.514c-0.313,0.265-0.917,0.776-1.281,1.085c-0.115,0.064-0.216,0.15-0.297,0.252  c-3.721,3.149-9.13,7.723-12.71,10.751c-0.094,0.056-0.179,0.127-0.25,0.211c-0.242,0.204-0.663,0.562-0.88,0.745  c-0.768,0.649-1.885,0.563-2.542-0.199c-3.335-3.875-9.89-11.495-10.205-11.861v-15.008c0-0.548-0.45-1-1-1  c-0.548,0-0.999,0.451-0.999,1v15.294c-0.005,0.056-0.005,0.112,0,0.168V344.4c0,1.98,0.101,3.957,0.302,5.927  c0.77,7.532,2.693,26.361,2.818,27.576c-19.798,6.854-47.961,2.565-49.458,2.329c0.094-1.089,0.943-10.873,1.578-18.189  c0.403-4.619,0.467-9.263,0.207-13.891c-0.644-11.451-1.859-33.079-1.867-33.214c0-0.035-0.002-0.069-0.006-0.104l-1.387-24.737  c-0.021-0.523-0.45-0.945-0.973-0.958c-0.01,0-0.019,0-0.028,0c-0.548,0-0.999,0.45-0.999,0.999c0,0.023,0.001,0.047,0.002,0.07  l1.371,24.372c-0.316,0.416-8.882,11.726-11.995,15.834c-0.097,0.128-0.249,0.214-0.414,0.229c-0.165,0.011-0.325-0.055-0.442-0.17  c-3.479-3.436-12.382-12.223-13.212-13.043c0.68-0.922,14.219-19.259,20.66-27.987c1.961-2.658,4.657-4.673,7.763-5.796  C387.505,281.538,395.34,278.702,396.76,278.188L396.76,278.188L396.76,278.188z M206.811,172.146l5.442,3.139l7.114,4.108v22.921  l-12.557-7.247V172.146L206.811,172.146z M262.676,138.737l12.556,7.249l-54.862,31.673l-12.557-7.247L262.676,138.737z"/>
<path id="color_x5F_3" fill-rule="evenodd" clip-rule="evenodd" fill="#1e2037" d="M431.086,380.035L431.086,380.035h0.001  H431.086l0.509,5.337c0.001,0.017,0.002,0.034,0.004,0.051c0,0,0.379,3.955,0.648,6.77v0.002l11.384,119.129h-18.75  c-0.178-1.459-11.126-91.586-13.168-108.404c-0.245-2.011-1.97-3.533-3.995-3.533c-1.956,0-3.64,1.432-3.952,3.363  c-1.725,10.628-8.31,51.227-8.31,51.227c-0.009,0.051-0.013,0.103-0.014,0.154l-0.429,57.193h-20.348l0.523-57.14l6.053-71.895  C386.226,383.032,412.044,386.42,431.086,380.035L431.086,380.035z M341.265,393.858H148.012c-2.567,0-5.029-1.025-6.843-2.84  c-1.815-1.815-2.839-4.276-2.839-6.842v-26.152h212.608v26.152c0,2.566-1.018,5.027-2.833,6.842  C346.292,392.833,343.832,393.858,341.265,393.858z M244.634,362.5c-7.734,0-14.022,6.291-14.022,14.024  c0,7.733,6.288,14.024,14.022,14.024c7.733,0,14.024-6.291,14.024-14.024C258.658,368.791,252.367,362.5,244.634,362.5z   M244.634,364.499c6.653,0,12.026,5.371,12.026,12.024c0,6.653-5.374,12.024-12.026,12.024c-6.654,0-12.024-5.371-12.024-12.024  C232.61,369.871,237.98,364.499,244.634,364.499z M350.939,91.706H138.331V69.549c0-2.566,1.024-5.027,2.839-6.841  c1.795-1.797,4.224-2.81,6.843-2.831h193.253c2.567,0,5.027,1.015,6.841,2.831c1.815,1.814,2.833,4.275,2.833,6.841V91.706z   M265.957,76.127H223.32c-0.008,0-0.015,0-0.022,0c-0.548,0-1,0.451-1,0.999c0,0.548,0.451,0.999,1,0.999c0.007,0,0.014,0,0.022,0  h42.637c0.008,0,0.015,0,0.023,0c0.547,0,0.999-0.45,0.999-0.999c0-0.547-0.451-0.999-0.999-0.999H265.957z"/>
<path id="color_x5F_2" fill-rule="evenodd" clip-rule="evenodd" fill="#ffffff" d="M350.939,356.026H138.331V93.704h212.608  v222.518l-33.769-9.425l-0.022-0.008c-0.015-0.005-7.18-2.807-12.645-4.943c-2.474-6.609-8.847-11.314-16.308-11.314h-87.12  c-9.605,0.001-17.414,7.812-17.414,17.417c0,9.605,7.81,17.414,17.414,17.414h87.12c4.895,0,9.317-2.045,12.481-5.304  c4.165,0.449,9.92,1.07,10.072,1.086c0.198,0.084,28.326,11.927,40.191,16.924L350.939,356.026L350.939,356.026z M304.614,339.695  h-119.95c-0.54,0.012-0.978,0.459-0.978,0.999c0,0.539,0.437,0.987,0.978,0.999h119.95c0.54-0.012,0.978-0.459,0.978-0.999  C305.591,340.155,305.154,339.707,304.614,339.695z M241.55,124.372c-0.036-0.001-0.072,0.001-0.108,0.004  c-0.148,0.012-0.293,0.058-0.42,0.133l-56.859,32.823c-0.007,0.005-0.015,0.009-0.022,0.014c-0.018,0.011-0.035,0.023-0.052,0.035  c-0.006,0.004-0.012,0.008-0.018,0.012c-0.019,0.013-0.037,0.028-0.055,0.043c-0.012,0.01-0.023,0.021-0.035,0.033  c-0.015,0.013-0.029,0.027-0.043,0.041c-0.007,0.007-0.013,0.014-0.019,0.021c-0.017,0.019-0.034,0.037-0.049,0.057  c-0.004,0.004-0.007,0.009-0.01,0.014c-0.016,0.021-0.031,0.042-0.045,0.064c-0.009,0.015-0.017,0.03-0.026,0.045  c-0.003,0.006-0.007,0.013-0.011,0.02c-0.011,0.019-0.022,0.04-0.031,0.06c-0.007,0.014-0.012,0.029-0.018,0.043  c-0.007,0.019-0.014,0.039-0.02,0.059c-0.002,0.007-0.005,0.015-0.008,0.023c-0.016,0.057-0.028,0.116-0.035,0.176  c0,0.008-0.001,0.015-0.002,0.023c-0.004,0.045-0.005,0.09-0.004,0.135v65.124c0.002,0.356,0.193,0.685,0.501,0.862l56.793,32.792  c0.318,0.219,0.735,0.234,1.069,0.04l56.861-32.832c0.305-0.179,0.493-0.507,0.493-0.862v-65.058  c0.047-0.396-0.148-0.784-0.493-0.983l-21.152-12.21l-14.554-8.404c-0.01-0.005-0.02-0.01-0.03-0.015l-21.124-12.194  c-0.144-0.085-0.308-0.132-0.474-0.137L241.55,124.372L241.55,124.372z"/>
<path id="color_x5F_1" fill-rule="evenodd" clip-rule="evenodd" fill="#000000" d="M148.012,57.878  c-3.095,0-6.069,1.232-8.257,3.422c-2.189,2.188-3.422,5.154-3.422,8.249v22.849c-0.064,0.199-0.064,0.412,0,0.611v291.167  c0,3.095,1.232,6.069,3.422,8.258c2.188,2.189,5.162,3.421,8.257,3.421h193.253c3.096,0,6.061-1.232,8.25-3.421  c2.188-2.189,3.421-5.163,3.421-8.258v-45.339c2.673,0.781,5.594,0.139,7.675-1.774c2.306-2.12,4.564-4.199,5.117-4.707  c0.406,0.203,0.859,0.308,1.32,0.276c0.003,0,0.006,0,0.008,0c0.733-0.056,1.41-0.417,1.858-1.009  c2.745-3.624,8.713-11.501,10.58-13.966c0.173,3.07,1.124,20.062,1.717,30.614c0.256,4.534,0.187,9.078-0.207,13.603  c-0.67,7.717-1.666,19.178-1.666,19.178c0,0.002,0,0.004,0,0.006s0,0.004,0,0.006l-6.141,72.988  c-0.004,0.027-0.007,0.054-0.008,0.08l-0.527,57.688c-0.56,0.423-14.411,10.876-19.519,14.73c-1.386,1.046-2.204,2.681-2.204,4.417  v0.133c0,1.343,0.486,2.577,1.289,3.539H201.861c1.256-1.289,2.483-2.636,3.668-4.048c12.784-15.233,17.951-33.805,15.07-46.25  c-0.099-0.431-0.472-0.749-0.915-0.775c-10.913-0.579-25.198,5.448-37.115,16.724c-1.147-19.306-9.196-35.962-19.287-43.554  c-0.189-0.142-0.421-0.212-0.656-0.199c-0.198,0.01-0.388,0.08-0.546,0.199c-10.215,7.687-18.351,24.653-19.34,44.26  c-12.059-11.733-26.715-18.021-37.852-17.43c-0.444,0.024-0.822,0.342-0.921,0.775c-2.882,12.445,2.293,31.017,15.078,46.25h-0.008  c1.185,1.413,2.414,2.759,3.673,4.048H86.056c-0.032-0.002-0.064-0.002-0.096,0c-0.52,0.037-0.93,0.475-0.93,0.998  c0,0.548,0.452,1,1.001,1c0.008,0,0.017,0,0.025,0h61.485c0.191,0.058,0.395,0.058,0.585,0h348.436  c0.539-0.012,0.977-0.459,0.977-0.999c0-0.539-0.437-0.987-0.977-0.999h-35.586c0.421-0.662,0.675-1.441,0.675-2.278v-2.323  c0-1.113-0.436-2.18-1.21-2.977c-3.346-3.445-14.402-14.822-14.758-15.189L434.49,394.656c0.649,0.129,1.333,0.038,1.923-0.297  c0.517-0.292,1.061-0.599,1.577-0.891c1.793-1.013,3.079-2.735,3.54-4.742c0-0.003,0-0.006,0-0.008  c1.482-6.72,1.93-13.739,1.107-21.093c0.267-0.373,14.737-20.592,20.733-28.969c1.761-2.461,2.01-5.702,0.647-8.404  c-2.21-4.387-5.25-10.409-5.639-11.182c0.226-0.191,0.629-0.532,0.833-0.704c1.565-1.324,1.795-3.684,0.514-5.287  c-4.535-5.675-16.886-21.122-21.853-27.338c-1.496-1.872-3.486-3.296-5.743-4.1c-5.308-1.891-14.852-5.291-15.668-5.581v-9.547  c0.483-0.214,2.21-0.891,4.83-3.392c2.96-2.827,6.47-7.518,8.772-14.924c4.646-14.947-3.355-27.221-13.3-31.223  c-4.923-1.982-9.351-1.984-13.117-1.748c-3.767,0.235-6.856,0.641-9.216-0.213c-0.396-0.143-0.854-0.601-1.254-1.35  c-0.4-0.748-0.723-1.735-0.958-2.706c-0.467-1.942-0.588-3.782-0.588-3.782c-0.031-0.525-0.471-0.941-0.998-0.941  c-0.032,0-0.064,0.002-0.095,0.005c-0.214,0.022-0.415,0.112-0.573,0.257c0,0-4.111,3.683-7.322,8.651  c-1.605,2.483-3.001,5.3-3.525,8.212c-0.48,2.68-0.163,5.479,1.447,7.973c-0.451,0.635-1.035,1.672-1.19,3.13  c-0.248,2.335,0.674,5.551,4.47,9.263c-0.211,5.481-0.413,10.704-0.665,17.369c-0.186,4.903,3.596,9.08,8.494,9.378  c2.65,0.161,4.384,0.26,5.087,0.303v5.297c-0.753,0.272-9.669,3.494-15.762,5.696c-3.476,1.256-6.498,3.514-8.692,6.488  c-6.039,8.183-17.245,23.364-19.37,26.241V69.549c0-3.095-1.233-6.061-3.421-8.249c-2.189-2.19-5.154-3.422-8.25-3.422  L148.012,57.878L148.012,57.878z M148.012,59.878h193.253c2.567,0,5.027,1.015,6.841,2.831c1.815,1.814,2.833,4.275,2.833,6.841  v22.157H138.331V69.549c0-2.566,1.024-5.027,2.839-6.841C142.983,60.892,145.445,59.878,148.012,59.878L148.012,59.878z   M223.32,76.127c-0.008,0-0.015,0-0.022,0c-0.548,0-1,0.451-1,0.999c0,0.548,0.451,0.999,1,0.999c0.007,0,0.014,0,0.022,0h42.637  c0.008,0,0.015,0,0.023,0c0.547,0,0.999-0.45,0.999-0.999c0-0.547-0.451-0.999-0.999-0.999c-0.008,0-0.015,0-0.023,0H223.32z   M400.704,89.213c-0.281,0.001-0.549,0.122-0.737,0.332c0,0-1.836,2.073-3.788,4.276c-2.526,2.849-6.503,3.911-10.117,2.708  c-2.792-0.931-5.411-1.807-5.411-1.807c-0.103-0.035-0.211-0.052-0.321-0.052c-0.547,0-0.999,0.45-0.999,0.999  c0,0.286,0.124,0.559,0.339,0.749c0,0,2.068,1.838,4.27,3.79c2.85,2.527,3.918,6.502,2.714,10.115  c-0.93,2.791-1.806,5.411-1.806,5.411c-0.035,0.103-0.053,0.211-0.053,0.32c0,0.548,0.45,0.999,0.999,0.999  c0.287,0,0.559-0.123,0.749-0.338c0,0,1.83-2.068,3.782-4.268c2.527-2.85,6.501-3.918,10.115-2.714  c2.792,0.931,5.419,1.806,5.419,1.806c0.1,0.033,0.206,0.05,0.312,0.05c0.547,0,0.999-0.45,0.999-0.999  c0-0.286-0.123-0.558-0.338-0.748c0,0-2.066-1.831-4.268-3.782c-2.85-2.527-3.909-6.502-2.706-10.115  c0.93-2.793,1.799-5.419,1.799-5.419c0.033-0.101,0.05-0.207,0.05-0.314c0-0.548-0.45-0.999-0.999-0.999  C400.707,89.213,400.706,89.213,400.704,89.213L400.704,89.213z M138.331,93.704h212.608v222.518l-33.769-9.425l-0.022-0.008  c-0.015-0.005-7.18-2.807-12.645-4.943c-2.474-6.61-8.847-11.314-16.308-11.314h-87.12c-9.604,0-17.414,7.812-17.414,17.417  c0,9.605,7.81,17.414,17.414,17.414h87.12c4.895,0,9.317-2.045,12.481-5.304c4.165,0.449,9.92,1.07,10.072,1.086  c0.198,0.084,28.326,11.927,40.191,16.924v17.958H138.331L138.331,93.704L138.331,93.704z M398.227,94.523  c-0.131,0.393-0.13,0.381-0.266,0.788c-1.454,4.367-0.162,9.185,3.282,12.239c0.32,0.284,0.312,0.279,0.62,0.552  c-0.393-0.131-0.384-0.13-0.79-0.266c-4.368-1.454-9.185-0.162-12.239,3.281c-0.285,0.321-0.279,0.313-0.552,0.621  c0.13-0.39,0.131-0.38,0.266-0.783v-0.008c1.452-4.364,0.16-9.186-3.282-12.239c-0.319-0.282-0.311-0.272-0.618-0.544  c0.389,0.13,0.378,0.124,0.781,0.258c4.367,1.455,9.193,0.163,12.246-3.281C397.959,94.821,397.955,94.83,398.227,94.523  L398.227,94.523L398.227,94.523z M241.55,124.372c-0.036-0.001-0.072,0.001-0.108,0.004c-0.148,0.012-0.293,0.058-0.42,0.133  l-56.859,32.823c-0.007,0.005-0.015,0.009-0.022,0.014c-0.018,0.011-0.035,0.023-0.052,0.035c-0.006,0.004-0.012,0.008-0.018,0.012  c-0.019,0.013-0.037,0.028-0.055,0.043c-0.012,0.01-0.023,0.021-0.035,0.033c-0.015,0.013-0.029,0.027-0.043,0.041  c-0.007,0.007-0.013,0.014-0.019,0.021c-0.017,0.019-0.034,0.037-0.049,0.057c-0.004,0.004-0.007,0.009-0.01,0.014  c-0.016,0.021-0.031,0.042-0.045,0.064c-0.009,0.015-0.017,0.03-0.026,0.045c-0.003,0.006-0.007,0.013-0.011,0.02  c-0.011,0.019-0.022,0.04-0.031,0.06c-0.007,0.014-0.012,0.029-0.018,0.043c-0.007,0.019-0.014,0.039-0.02,0.059  c-0.002,0.007-0.005,0.015-0.008,0.023c-0.016,0.057-0.028,0.116-0.035,0.176c0,0.008-0.001,0.015-0.002,0.023  c-0.004,0.045-0.005,0.09-0.004,0.135v65.124c0.002,0.356,0.193,0.685,0.501,0.862l56.793,32.792  c0.318,0.219,0.735,0.234,1.069,0.04l56.861-32.832c0.305-0.179,0.493-0.507,0.493-0.862v-65.058  c0.047-0.396-0.148-0.784-0.493-0.983l-21.152-12.21l-14.554-8.404c-0.01-0.005-0.02-0.01-0.03-0.015l-21.124-12.194  c-0.144-0.085-0.308-0.132-0.474-0.137C241.549,124.372,241.55,124.372,241.55,124.372z M241.523,126.521l19.156,11.062  l-54.863,31.678l-19.153-11.059L241.523,126.521z M262.676,138.737l12.556,7.249l-54.862,31.673l-12.557-7.247L262.676,138.737z   M277.235,147.143l19.145,11.055l-54.857,31.679l-19.159-11.063L277.235,147.143L277.235,147.143z M83.955,159.131v0.002  c-0.004,0-0.008,0-0.012,0c-0.546,0-0.997,0.448-0.999,0.995c-0.001,0.022-0.001,0.044,0,0.066l0.295,4.815  c0.19,3.152-1.518,6.108-4.343,7.52c-2.225,1.113-4.319,2.159-4.319,2.159c-0.336,0.17-0.547,0.515-0.547,0.891  c0,0.548,0.45,0.999,0.999,0.999c0.019,0,0.037,0,0.056-0.001c0,0,2.331-0.141,4.814-0.289c3.153-0.19,6.108,1.519,7.52,4.344  c1.114,2.225,2.162,4.313,2.162,4.313c0.167,0.344,0.516,0.561,0.897,0.561c0.548,0,1-0.45,1-0.999c0-0.024-0.001-0.048-0.003-0.071  c0,0-0.146-2.331-0.295-4.815c-0.189-3.153,1.517-6.107,4.343-7.52c2.225-1.113,4.321-2.161,4.321-2.161  c0.333-0.171,0.543-0.514,0.543-0.889c0-0.548-0.451-0.999-0.999-0.999c-0.018,0-0.036,0-0.054,0.001c0,0-2.33,0.137-4.814,0.287  c-3.153,0.19-6.108-1.517-7.52-4.342c-1.114-2.225-2.16-4.314-2.16-4.314C84.674,159.348,84.331,159.133,83.955,159.131  L83.955,159.131L83.955,159.131z M185.658,159.931l19.155,11.061v24.651c0.001,0.357,0.193,0.685,0.501,0.863l14.554,8.406  c0.151,0.087,0.323,0.132,0.497,0.132c0.547,0,0.998-0.449,0.999-0.997v-23.499l19.155,11.061v62.856l-54.862-31.675V159.931  L185.658,159.931z M297.38,159.937v62.853l-54.861,31.683V191.61l33.947-19.601L297.38,159.937z M85.223,164.912  c1.769,3.514,5.465,5.645,9.394,5.419c-3.517,1.769-5.645,5.455-5.419,9.385c-1.769-3.514-5.465-5.645-9.394-5.419  C83.32,172.529,85.451,168.843,85.223,164.912z M206.811,172.146l5.442,3.139l7.114,4.108v22.921l-12.557-7.247V172.146  L206.811,172.146z M478.765,193.313c-0.035,0.001-0.071,0.003-0.106,0.006c-0.248,0.027-0.476,0.146-0.641,0.333  c0,0-1.386,1.568-2.868,3.238c-1.854,2.089-4.767,2.873-7.417,1.99c-2.118-0.705-4.106-1.371-4.106-1.371  c-0.104-0.035-0.212-0.053-0.321-0.053c-0.548,0-0.999,0.45-0.999,0.999c0,0.287,0.123,0.559,0.338,0.749  c0,0,1.566,1.394,3.236,2.876c2.09,1.853,2.876,4.766,1.993,7.417c-0.706,2.118-1.372,4.108-1.372,4.108  c-0.034,0.102-0.051,0.21-0.051,0.318c0,0.547,0.45,0.999,0.999,0.999c0.286,0,0.558-0.123,0.748-0.337c0,0,1.386-1.573,2.868-3.244  c1.854-2.09,4.775-2.866,7.424-1.983c2.118,0.706,4.109,1.371,4.109,1.371c0.099,0.033,0.204,0.049,0.308,0.049  c0.548,0,1-0.45,1-0.999c0-0.286-0.123-0.557-0.337-0.747c0,0-1.566-1.393-3.236-2.876c-2.09-1.853-2.873-4.766-1.99-7.417  c0.706-2.117,1.371-4.106,1.371-4.106c0.035-0.103,0.053-0.211,0.053-0.32c0-0.548-0.451-0.999-0.999-0.999  C478.767,193.314,478.766,193.314,478.765,193.313L478.765,193.313L478.765,193.313z M476.442,198.341  c-0.99,3.263-0.049,6.783,2.44,9.114c-3.262-0.99-6.775-0.048-9.106,2.44c0.989-3.263,0.048-6.784-2.441-9.114  C470.598,201.77,474.111,200.829,476.442,198.341z M389.985,209.533c0.098,0.738,0.05,0.906,0.287,1.888  c0.259,1.073,0.617,2.2,1.144,3.186c0.526,0.986,1.241,1.884,2.331,2.278c3.027,1.097,6.353,0.567,10.027,0.338  c3.673-0.229,7.705-0.228,12.245,1.6c8.981,3.614,16.5,14.749,12.137,28.785c-2.203,7.085-5.516,11.456-8.252,14.067  c-1.959,1.87-2.681,2.062-3.443,2.448v-2.515c0.464-0.244,1.916-1.004,3.51-1.843c1.816-0.958,3.019-2.778,3.193-4.822  c0.204-2.389-1.032-4.679-3.141-5.818c-1.789-0.965-3.852-0.745-5.61,0.186c-0.589-1.211-3.844-8.03-4.225-14.504  c-0.03-0.525-0.471-0.942-0.998-0.942c-0.178,0-0.353,0.048-0.506,0.139c0,0-4.123,2.455-9.46,3.259  c-5.31,0.801-11.627,0.046-16.56-6.404c-0.039-0.068-0.086-0.132-0.141-0.189c-1.579-2.146-1.891-4.479-1.445-6.959  c0.451-2.517,1.722-5.138,3.238-7.483C386.778,212.42,388.918,210.551,389.985,209.533L389.985,209.533z M381.854,232.982  c0.748,0.797,1.536,1.451,2.322,2.113c-0.003,0.072-0.172,4.452-0.225,5.834c-2.344-2.734-2.745-4.827-2.593-6.261  C381.435,233.954,381.64,233.398,381.854,232.982z M408.485,236.142c0.813,7.354,4.512,14.922,4.512,14.922  c0.171,0.333,0.515,0.543,0.889,0.543c0.227,0,0.446-0.077,0.623-0.218c0,0,0.055-0.043,0.162-0.127  c1.263-0.993,2.986-1.145,4.401-0.383c1.414,0.763,2.237,2.293,2.101,3.894c-0.117,1.368-0.922,2.58-2.138,3.22  c-1.835,0.967-4.032,2.13-4.032,2.13c-0.331,0.172-0.538,0.513-0.538,0.886v4.865c-0.015,0.098-0.015,0.198,0,0.297v10.389  c-0.027,0.132-0.027,0.267,0,0.399v1.687c0,4.35-3.502,7.852-7.852,7.852c-2.084,0-4.079-0.826-5.552-2.299  c-1.473-1.473-2.3-3.469-2.3-5.552v-1.771c0.009-0.076,0.009-0.153,0-0.229v-6.812c-0.001-0.526-0.418-0.967-0.944-0.995  c0,0-2.878-0.179-6.016-0.37c-3.836-0.233-6.767-3.459-6.621-7.299c0.257-6.782,0.476-12.596,0.669-17.676  c0.013-0.082,0.017-0.166,0.01-0.248c0.07-1.864,0.23-6.11,0.25-6.621c4.429,2.801,9.306,3.229,13.411,2.61  C404.604,238.471,407.592,236.646,408.485,236.142L408.485,236.142L408.485,236.142z M403.049,259.515  c-0.036,0-0.073,0.003-0.109,0.008c-0.328,0.033-0.617,0.227-0.775,0.514c-1.169,2.086-2.907,2.674-4.506,2.81  c-1.599,0.136-2.905-0.258-2.905-0.258c-0.105-0.036-0.216-0.055-0.327-0.055c-0.548,0-0.999,0.45-0.999,0.999  c0,0.452,0.307,0.851,0.744,0.966c0,0,1.635,0.51,3.651,0.34c2.016-0.171,4.563-1.1,6.088-3.819c0.09-0.154,0.138-0.328,0.138-0.505  c0-0.548-0.451-0.999-0.999-0.999H403.049L403.049,259.515z M396.76,278.188v0.46c0,2.613,1.037,5.119,2.883,6.967  c1.847,1.848,4.356,2.882,6.969,2.882c5.429,0,9.849-4.421,9.849-9.849v-0.46c1.522,0.542,9.917,3.532,14.998,5.342  c1.908,0.679,3.587,1.875,4.851,3.457c4.967,6.215,17.317,21.665,21.853,27.34c0.619,0.774,0.513,1.874-0.244,2.514  c-0.313,0.265-0.917,0.776-1.281,1.085c-0.115,0.064-0.216,0.15-0.297,0.252c-3.721,3.149-9.13,7.723-12.71,10.751  c-0.094,0.056-0.179,0.127-0.25,0.211c-0.242,0.204-0.663,0.562-0.88,0.745c-0.768,0.649-1.885,0.563-2.542-0.199  c-3.335-3.875-9.89-11.495-10.205-11.861v-15.008c0-0.548-0.45-1-1-1c-0.548,0-0.999,0.451-0.999,1v15.294  c-0.005,0.056-0.005,0.112,0,0.168V344.4c0,1.98,0.101,3.957,0.302,5.927c0.77,7.532,2.693,26.361,2.818,27.576  c-19.798,6.854-47.961,2.565-49.458,2.329c0.094-1.089,0.943-10.873,1.578-18.189c0.403-4.619,0.467-9.263,0.207-13.891  c-0.644-11.451-1.859-33.079-1.867-33.214c0-0.035-0.002-0.069-0.006-0.104l-1.387-24.737c-0.021-0.523-0.45-0.945-0.973-0.958  c-0.01,0-0.019,0-0.028,0c-0.548,0-0.999,0.45-0.999,0.999c0,0.023,0.001,0.047,0.002,0.07l1.371,24.372  c-0.316,0.416-8.882,11.726-11.995,15.834c-0.097,0.128-0.249,0.214-0.414,0.229c-0.165,0.011-0.325-0.055-0.442-0.17  c-3.479-3.436-12.382-12.223-13.212-13.043c0.68-0.922,14.219-19.259,20.66-27.987c1.961-2.658,4.657-4.673,7.763-5.796  C387.505,281.538,395.34,278.702,396.76,278.188L396.76,278.188L396.76,278.188z M201.075,292.531h87.12  c5.949,0,11.098,3.362,13.669,8.283c-5.148-2.013-8.681-3.393-11.436-4.471c-1.569-0.614-3.367,0.026-4.188,1.496  c-0.035,0.062-0.068,0.126-0.104,0.191c-0.465,0.839-0.555,1.843-0.242,2.751c0.184,0.529,0.502,0.987,0.904,1.359  c-0.028,0.025-0.054,0.051-0.079,0.078l-3.774,4.232l-3.774-4.232c-0.202-0.23-0.498-0.355-0.804-0.339  c-0.528,0.025-0.95,0.467-0.95,0.998c0,0.25,0.094,0.491,0.264,0.675l4.27,4.78v4.671c0,0.008,0,0.015,0,0.022  c0,0.548,0.45,1,0.999,1s0.999-0.451,0.999-1c0-0.007,0-0.014,0-0.022v-4.683l4.261-4.768c0.121-0.135,0.204-0.301,0.238-0.479  c2.718,1.143,6.014,2.533,6.797,2.862c-0.261,0.855-1.177,3.859-1.932,6.34c-0.536,1.766-0.18,3.692,0.958,5.146  c0.003,0,0.005,0,0.008,0c0.061,0.078,0.12,0.156,0.184,0.236c0.891,1.141,2.185,1.889,3.609,2.107  c-2.676,2.239-6.108,3.601-9.875,3.601h-87.12c-8.525,0-15.416-6.891-15.416-15.416C185.658,299.423,192.55,292.531,201.075,292.531  L201.075,292.531L201.075,292.531z M289.211,298.102c0.165,0.002,0.332,0.034,0.495,0.098c3.284,1.284,7.667,2.999,13.626,5.33  c0.025,0.011,0.051,0.02,0.076,0.029c5.689,2.224,13.031,5.096,13.031,5.096c0.032,0.014,0.063,0.027,0.096,0.039l34.88,9.734  c0.245,0.242,8.725,8.613,12.784,12.62c-0.674,0.618-2.715,2.492-4.944,4.542c-1.734,1.594-4.234,2.034-6.406,1.12  c-0.118-0.05-0.313-0.132-0.434-0.184c-0.06-0.032-0.123-0.058-0.188-0.078c-11.629-4.897-40.845-17.196-40.845-17.196  c-0.089-0.038-0.183-0.063-0.279-0.074c0,0-6.055-0.654-10.327-1.116c-0.198-0.091-0.42-0.115-0.632-0.069  c-0.633-0.068-1.103-0.118-1.611-0.173c-0.987-0.107-1.889-0.611-2.499-1.393c-0.061-0.077-0.121-0.154-0.186-0.236  c-0.738-0.945-0.967-2.186-0.618-3.332c0.859-2.823,2.188-7.212,2.188-7.212c0.147-0.485-0.1-1.01-0.567-1.208  c0,0-5.122-2.154-8.295-3.488c-0.363-0.153-0.645-0.451-0.774-0.825c-0.129-0.374-0.089-0.785,0.103-1.13  c0.033-0.059,0.071-0.119,0.104-0.178c0-0.002,0-0.004,0-0.006C288.243,298.354,288.716,298.095,289.211,298.102L289.211,298.102  L289.211,298.102z M226.092,301.872c-0.545,0.009-0.988,0.464-0.981,1.011v10.122c-0.002,0.548,0.446,1.001,0.995,1.003h9.048  c0.007,0,0.014,0,0.022,0c0.548,0,0.999-0.45,0.999-0.999s-0.45-0.999-0.999-0.999c-0.008,0-0.015,0-0.022,0h-8.045v-9.127  c0-0.004,0-0.008,0-0.012c0-0.548-0.451-0.999-0.999-0.999C226.104,301.872,226.098,301.872,226.092,301.872L226.092,301.872z   M241.928,301.872c-0.535,0.018-0.966,0.462-0.966,0.998c0,0.148,0.033,0.293,0.096,0.426l4.52,10.115  c0.16,0.36,0.518,0.592,0.913,0.592c0.391,0,0.747-0.229,0.909-0.584l4.526-10.123c0.054-0.125,0.082-0.26,0.082-0.396  c0-0.549-0.452-1.002-1.002-1.002c-0.389,0-0.743,0.226-0.908,0.577l-3.613,8.08l-3.605-8.08  C242.718,302.099,242.339,301.858,241.928,301.872L241.928,301.872z M201.805,301.887c-0.548-0.002-1.001,0.447-1.003,0.995v10.123  c0,0.002,0,0.003,0,0.004c0,0.548,0.45,0.999,0.999,0.999c0.001,0,0.003,0,0.004,0h3.981c1.607,0,3.148-0.641,4.284-1.777  c1.136-1.136,1.778-2.675,1.778-4.282c0-1.606-0.642-3.148-1.778-4.284s-2.677-1.778-4.284-1.778L201.805,301.887L201.805,301.887z   M213.956,301.887c-0.548-0.002-1.001,0.447-1.003,0.995v10.123c0,0.002,0,0.003,0,0.004c0,0.548,0.45,0.999,0.999,0.999  c0.001,0,0.003,0,0.004,0h9.046c0.007,0,0.014,0,0.022,0c0.548,0,0.999-0.45,0.999-0.999s-0.45-0.999-0.999-0.999  c-0.008,0-0.015,0-0.022,0h-8.051v-3.066h8.051c0.548,0,0.999-0.451,0.999-1c0-0.548-0.45-1-0.999-1h-8.051v-3.059h8.051  c0.539-0.012,0.976-0.458,0.976-0.999c0-0.539-0.436-0.986-0.976-0.999H213.956z M254.117,301.887  c-0.545,0.003-0.993,0.45-0.995,0.995v4.975c-0.005,0.056-0.005,0.112,0,0.168v4.98c-0.002,0.548,0.446,1.001,0.995,1.003h9.045  c0.008,0,0.015,0,0.023,0c0.548,0,0.999-0.45,0.999-0.999s-0.45-0.999-0.999-0.999c-0.008,0-0.015,0-0.023,0h-8.042v-3.066h8.042  c0.549,0,1-0.451,1-1c0-0.548-0.45-1-0.999-1h-8.043v-3.059h8.042c0.54-0.012,0.977-0.458,0.977-0.999  c0-0.539-0.436-0.986-0.977-0.999L254.117,301.887L254.117,301.887z M266.274,301.887c-0.548-0.002-1.001,0.447-1.003,0.995v10.123  c0.012,0.539,0.458,0.977,0.999,0.977c0.539,0,0.987-0.437,0.999-0.977v-4.061h2.567l4.777,4.769  c0.189,0.195,0.448,0.306,0.719,0.306c0.547,0,0.999-0.451,0.999-0.999c0-0.274-0.112-0.534-0.31-0.723l-3.355-3.353h0.119  c0.936,0,1.838-0.372,2.499-1.032c0.661-0.661,1.032-1.558,1.032-2.493c0-0.936-0.371-1.838-1.032-2.499  c-0.661-0.661-1.563-1.033-2.499-1.033H266.274L266.274,301.887z M238.261,301.861c-0.265,0-0.519,0.105-0.706,0.293  c-0.188,0.187-0.293,0.441-0.293,0.706c0,2.287,0,7.88,0,10.168c0,0.265,0.105,0.518,0.293,0.706  c0.187,0.187,0.441,0.293,0.706,0.293s0.518-0.106,0.706-0.293c0.188-0.188,0.293-0.441,0.293-0.706c0-2.287,0-7.88,0-10.168  c0-0.265-0.105-0.519-0.293-0.706C238.779,301.966,238.525,301.861,238.261,301.861L238.261,301.861z M202.8,303.884h2.986  c1.078,0,2.113,0.426,2.876,1.189c0.762,0.762,1.189,1.799,1.189,2.876c0,1.078-0.426,2.105-1.189,2.868  c-0.762,0.762-1.798,1.194-2.876,1.194H202.8V303.884z M267.269,303.884h5.516c0.407,0,0.795,0.164,1.083,0.451  c0.288,0.288,0.45,0.675,0.45,1.083c0,0.407-0.163,0.797-0.45,1.084c-0.288,0.288-0.676,0.441-1.083,0.441h-2.426  c-0.039-0.004-0.078-0.006-0.118-0.006c-0.037,0-0.075,0.002-0.113,0.006h-2.86V303.884z M456.81,320.396  c0.587,1.164,3.297,6.536,5.423,10.754c1.029,2.043,0.836,4.481-0.495,6.34c-6.051,8.454-20.917,29.234-20.917,29.234  c-0.147,0.203-0.213,0.452-0.185,0.701c0.866,7.287,0.407,14.201-1.062,20.857c-0.338,1.458-1.27,2.708-2.573,3.444  c-0.515,0.291-1.062,0.601-1.578,0.893c-0.236,0.134-0.517,0.139-0.759,0.014c-0.241-0.126-0.401-0.364-0.426-0.634  c-0.27-2.814-0.65-6.767-0.65-6.767l-0.419-4.396c0.105,0.04,0.208,0.082,0.317,0.112c1.119,0.301,2.282-0.419,3.037-0.913  c0.444-0.291,1.13-1.258,1.13-1.801v-6.215c0-0.548-0.451-1-1-1c-0.548,0-1,0.451-1,1v6.215c0,0.079-0.025,0.155-0.073,0.221  c0,0.002,0,0.005,0,0.008c-0.002,0-0.005,0-0.008,0c-0.361,0.496-0.979,0.718-1.57,0.559c-0.593-0.159-1.028-0.664-1.093-1.275  c-0.417-3.966-0.931-8.841-1.238-11.767c-0.147-1.384,0.275-2.764,1.165-3.833c1.016-1.22,2.124-2.552,2.124-2.552  c0.043-0.053,0.08-0.11,0.111-0.17l12.902-24.396c0.163-0.313,0.148-0.689-0.039-0.989l-2.481-4.036  C448.821,327.154,453.245,323.413,456.81,320.396L456.81,320.396z M429.755,320.892c1.722,1.998,5.854,6.791,8.693,10.089  c1.356,1.577,3.757,1.77,5.345,0.427c0.03-0.025,0.091-0.076,0.121-0.102l2.026,3.295l-12.587,23.813  c-0.076,0.092-1.072,1.272-2.051,2.448c-0.051,0.061-0.094,0.127-0.142,0.19c-0.501-4.892-0.813-7.946-1.118-10.933  c-0.195-1.902-0.288-3.807-0.288-5.719L429.755,320.892L429.755,320.892z M184.664,339.695c-0.54,0.012-0.978,0.458-0.978,0.999  c0,0.539,0.437,0.987,0.978,0.999h119.95c0.54-0.012,0.978-0.459,0.978-0.999c0-0.54-0.437-0.987-0.978-0.999H184.664z   M138.331,358.024h212.608v26.152c0,2.566-1.018,5.027-2.833,6.842c-1.814,1.815-4.274,2.84-6.841,2.84H148.012  c-2.567,0-5.029-1.025-6.843-2.84c-1.815-1.815-2.839-4.276-2.839-6.842L138.331,358.024L138.331,358.024z M244.634,362.5  c-7.734,0-14.022,6.291-14.022,14.024c0,7.733,6.288,14.024,14.022,14.024c7.733,0,14.024-6.291,14.024-14.024  C258.658,368.791,252.367,362.5,244.634,362.5L244.634,362.5z M244.634,364.499c6.653,0,12.026,5.371,12.026,12.024  c0,6.653-5.374,12.024-12.026,12.024c-6.654,0-12.024-5.371-12.024-12.024C232.61,369.871,237.98,364.499,244.634,364.499  L244.634,364.499z M431.086,380.035l0.509,5.337c0.001,0.017,0.002,0.034,0.004,0.051c0,0,0.379,3.955,0.648,6.77v0.002  l11.384,119.129h-18.75c-0.178-1.459-11.126-91.586-13.168-108.404c-0.245-2.011-1.97-3.533-3.995-3.533  c-1.956,0-3.64,1.432-3.952,3.363c-1.725,10.628-8.31,51.227-8.31,51.227c-0.009,0.051-0.013,0.103-0.014,0.154l-0.429,57.193  h-20.348l0.523-57.14l6.053-71.895c4.986,0.743,30.804,4.131,49.847-2.253L431.086,380.035L431.086,380.035z M407.718,401.384  c1.031,0,1.887,0.753,2.012,1.777c2.056,16.944,13.252,109.103,13.265,109.212v19.397c0,1.074,0.365,2.06,0.96,2.867h-27.839  c0.821-1,1.266-2.265,1.242-3.569c-0.127-6.773-0.353-18.705-0.354-18.742v-0.022v-0.008l0.435-58.084  c0.023-0.14,6.58-40.538,8.302-51.147c0.159-0.978,0.986-1.682,1.977-1.682L407.718,401.384L407.718,401.384z M162.684,458.961  c9.84,7.891,18.04,25.733,18.04,46.036c0,10.987-2.414,21.242-6.17,29.64h-10.876v-53.875c0-0.004,0-0.008,0-0.011  c0-0.548-0.45-1-0.999-1c-0.004,0-0.008,0-0.012,0.001c-0.547,0.006-0.993,0.462-0.987,1.01v53.875h-10.876  c-3.755-8.398-6.17-18.653-6.17-29.64C144.636,484.691,152.842,466.851,162.684,458.961L162.684,458.961z M105.86,485.652  c10.611-0.21,25.115,6.162,36.784,18.107c-0.007,0.411-0.008,0.824-0.008,1.238c0,10.901,2.268,21.139,5.923,29.64h-0.299  l-28.611-34.1c-0.192-0.235-0.479-0.371-0.782-0.369c-0.546,0.003-0.994,0.452-0.994,0.999c0,0.243,0.088,0.477,0.249,0.659  l27.537,32.81h-20.105c-1.72-1.669-3.395-3.443-4.984-5.338C108.409,514.81,103.587,497.173,105.86,485.652L105.86,485.652  L105.86,485.652z M218.704,485.652c2.273,11.521-2.543,29.159-14.703,43.648c-1.589,1.895-3.264,3.669-4.984,5.338h-20.103  l27.535-32.81c0.161-0.183,0.25-0.418,0.25-0.66c0-0.548-0.45-1-0.999-1c-0.04,0-0.081,0.003-0.121,0.008  c-0.26,0.029-0.498,0.16-0.663,0.363l-27.625,32.921c3.365-8.262,5.432-18.059,5.432-28.462c0-0.676-0.012-1.348-0.029-2.02  C194.227,491.53,208.326,485.446,218.704,485.652L218.704,485.652z M373.995,513.313h21.03c0.021,1.133,0.216,11.366,0.336,17.798  c0.015,0.928-0.346,1.825-0.995,2.486c-0.65,0.663-1.533,1.04-2.462,1.04h-35.428c-1.966,0-3.539-1.574-3.539-3.539v-0.133  c0-1.111,0.522-2.156,1.408-2.825C359.487,524.261,373.615,513.6,373.995,513.313z M424.992,513.313h19.309  c0.435,0.448,11.377,11.707,14.71,15.138h-0.008c0.413,0.425,0.65,0.992,0.65,1.584v2.323c0,1.269-1.01,2.279-2.278,2.279h-29.523  c-1.592,0-2.86-1.274-2.86-2.867V513.313z M503.066,534.637c-0.519,0.039-0.926,0.476-0.926,0.997c0,0.549,0.452,1.001,1.001,1.001  c0.009,0,0.018,0,0.026,0h16.383c0.539-0.012,0.977-0.459,0.977-0.999c0-0.54-0.437-0.987-0.977-0.999h-16.383  C503.133,534.635,503.099,534.635,503.066,534.637z"/>
</svg>