<svg xmlns="http://www.w3.org/2000/svg" xmlns:xlink="http://www.w3.org/1999/xlink" version="1.1" id="Layer_1" x="0px" y="0px" enable-background="new 0 0 595.276 595.276" xml:space="preserve" viewBox="52.64 130.64 488.5 334.78">
<path id="color_x5F_6" fill-rule="evenodd" clip-rule="evenodd" fill="#ff3f1a" d="M406.391,382.903h-7.238l-7.758-16.982h7.237  L406.391,382.903L406.391,382.903z M91.256,382.903h-7.238l7.759-16.982h7.238L91.256,382.903L91.256,382.903z M509.759,382.903  h-7.237l-7.759-16.982h7.238L509.759,382.903L509.759,382.903z M475.478,382.903h-7.238l-7.758-16.982h7.238L475.478,382.903  L475.478,382.903z M159.248,382.903h-7.238l7.759-16.982h7.237L159.248,382.903L159.248,382.903z M194.625,382.903h-7.238  l7.758-16.982h7.238L194.625,382.903L194.625,382.903z M125.537,382.903H118.3l7.758-16.982h7.238L125.537,382.903L125.537,382.903z   M441.767,382.903h-7.237l-7.759-16.982h7.238L441.767,382.903L441.767,382.903z M293.203,358.579H234.04  c-0.074-5.291-0.165-10.581-0.286-15.871h59.784C293.643,348.007,293.536,353.3,293.203,358.579L293.203,358.579z M358.08,358.579  h-53.875l-0.023-0.293c-0.361-4.921-0.512-9.853-0.448-14.778c0.004-0.267,0.008-0.533,0.013-0.8h53.388  c0.29,5.239,0.607,10.477,0.936,15.713L358.08,358.579L358.08,358.579z M62.997,355.544h-8.802v-9.104h8.802V355.544L62.997,355.544  z M539.583,355.544h-8.803v-9.104h8.803V355.544L539.583,355.544z M464.325,132.138l26.515,26.515v37.498l-26.515,26.514h-37.497  l-26.515-26.514v-37.498l26.515-26.515H464.325L464.325,132.138z M463.19,134.497c0.089,0.027,0.171,0.031,0.384,0.205  l24.702,24.702c0.125,0.153,0.2,0.33,0.22,0.531v34.934c-0.02,0.196-0.092,0.374-0.22,0.53l-24.702,24.702  c-0.152,0.125-0.33,0.2-0.531,0.22h-34.934c-0.195-0.019-0.374-0.092-0.53-0.22l-24.702-24.702c-0.125-0.152-0.2-0.329-0.22-0.53  v-34.934c0.02-0.196,0.092-0.375,0.22-0.531l24.702-24.702c0.152-0.125,0.33-0.2,0.53-0.219h34.934  C463.092,134.487,463.141,134.492,463.19,134.497L463.19,134.497z M428.42,135.983l-24.263,24.262v34.313l24.263,24.263h34.313  l24.263-24.263v-34.313l-24.263-24.262C451.295,135.983,439.858,135.983,428.42,135.983L428.42,135.983z M412.172,180.426  l2.369-0.207c0.112,0.949,0.373,1.728,0.783,2.336s1.046,1.1,1.909,1.475c0.863,0.376,1.833,0.563,2.912,0.563  c0.958,0,1.803-0.142,2.537-0.427c0.733-0.284,1.279-0.675,1.637-1.171s0.537-1.038,0.537-1.624c0-0.596-0.172-1.116-0.518-1.56  c-0.345-0.444-0.914-0.817-1.708-1.119c-0.509-0.199-1.635-0.507-3.378-0.926c-1.743-0.418-2.964-0.813-3.663-1.184  c-0.906-0.475-1.581-1.064-2.026-1.767c-0.444-0.703-0.666-1.49-0.666-2.362c0-0.958,0.272-1.853,0.815-2.685  c0.544-0.833,1.338-1.465,2.382-1.897c1.044-0.431,2.204-0.647,3.481-0.647c1.407,0,2.647,0.227,3.721,0.68  c1.075,0.453,1.901,1.119,2.479,1.999c0.578,0.881,0.889,1.877,0.932,2.99l-2.407,0.181c-0.13-1.199-0.568-2.105-1.314-2.718  c-0.747-0.612-1.849-0.919-3.307-0.919c-1.519,0-2.625,0.279-3.32,0.835c-0.694,0.557-1.042,1.228-1.042,2.013  c0,0.682,0.246,1.242,0.738,1.682c0.483,0.441,1.745,0.891,3.786,1.353c2.04,0.462,3.44,0.865,4.2,1.21  c1.104,0.509,1.92,1.154,2.446,1.935s0.789,1.68,0.789,2.699c0,1.009-0.289,1.96-0.867,2.854c-0.578,0.893-1.408,1.587-2.491,2.083  c-1.083,0.496-2.302,0.745-3.657,0.745c-1.717,0-3.155-0.251-4.316-0.751c-1.161-0.501-2.071-1.253-2.731-2.259  C412.554,182.831,412.207,181.694,412.172,180.426L412.172,180.426z M445.655,177.281c0-3.15,0.846-5.615,2.537-7.397  c1.691-1.782,3.874-2.673,6.549-2.673c1.752,0,3.331,0.419,4.737,1.256c1.406,0.837,2.479,2.004,3.216,3.501  c0.738,1.497,1.107,3.195,1.107,5.093c0,1.924-0.388,3.645-1.165,5.164c-0.776,1.519-1.877,2.668-3.3,3.449  c-1.424,0.781-2.96,1.172-4.608,1.172c-1.786,0-3.382-0.432-4.789-1.295c-1.406-0.863-2.472-2.04-3.197-3.533  C446.018,180.525,445.655,178.946,445.655,177.281L445.655,177.281z M474.414,178.808c2.684,0,4.539-0.559,5.565-1.676  c1.027-1.117,1.541-2.483,1.541-4.096c0-0.941-0.192-1.804-0.576-2.589s-0.891-1.396-1.521-1.831  c-0.63-0.436-1.411-0.732-2.343-0.887c-0.664-0.121-1.626-0.181-2.886-0.181h-7.157v18.974h2.511v-7.714L474.414,178.808  L474.414,178.808z M444.322,169.787v-2.239h-15.039v2.239h6.251v16.735h2.511v-16.735H444.322L444.322,169.787z M448.244,177.32  c0,2.286,0.614,4.087,1.844,5.403c1.23,1.316,2.772,1.974,4.627,1.974c1.89,0,3.445-0.664,4.666-1.993  c1.221-1.329,1.831-3.214,1.831-5.656c0-1.545-0.261-2.893-0.783-4.045s-1.285-2.045-2.291-2.679  c-1.005-0.634-2.133-0.951-3.384-0.951c-1.778,0-3.307,0.61-4.588,1.831C448.884,172.425,448.244,174.464,448.244,177.32  L448.244,177.32z M474.453,176.569h-4.905v-6.782h4.853c1.139,0,1.92,0.056,2.343,0.168c0.655,0.181,1.184,0.555,1.585,1.12  s0.602,1.244,0.602,2.038c0,1.096-0.341,1.946-1.022,2.55C477.228,176.266,476.078,176.568,474.453,176.569L474.453,176.569z"/>
<path id="color_x5F_5" fill-rule="evenodd" clip-rule="evenodd" fill="#FFD2BB" d="M190.842,304.809  c1.242-8.809,2.457-17.623,3.62-26.443c0.581-4.908-2.61-10.464-8.097-10.433c-2.299,0.013-4.93,0.287-6.883,1.565  c-2.129,1.394-3.466,3.799-3.832,6.349l-2.993,21.583c-0.175,0.734-1.303,0.825-1.487-0.012c-1.057-8.678-2.068-17.361-3.172-26.033  c-1.009-7.274-6.597-13.933-14.226-14.224c-0.176-0.004-0.351-0.006-0.527-0.005c-3.885,0.066-7.84,0.835-11.761,1.355  c-2.91,0.407-5.666,1.718-7.86,3.691c-4.363,3.926-6.322,10.106-5.707,15.977c1.5,12.927,3.145,25.837,4.718,38.755  c0.78,6.116,4.197,11.894,9.422,14.94c2.944,1.717,6.432,2.488,9.818,2.088l15.019-1.829c0.084-0.002,0.142-0.041,0.386,0.059  c0.541-0.066,1.087-0.124,1.634-0.179l0.089-0.031c1.932-0.235,3.916-0.344,5.846-0.593c2.382-0.345,4.643-0.893,6.594-1.992  c4.127-2.395,6.882-6.96,7.583-11.821l0.002-0.015l1.75-12.621C190.79,304.898,190.812,304.854,190.842,304.809L190.842,304.809z   M466.221,319.219h-13.072c-3.099-0.019-5.833-2.691-5.98-5.743l-0.001-0.024l-0.001-0.019l-0.001-0.048  c-0.121-6.509-0.081-13.021-0.002-19.53l0.001-0.045l0.001-0.027l0.001-0.022c0.084-1.637,1.282-3.055,2.808-3.515  c0.37-0.074,0.753-0.091,1.079-0.156h15.167V319.219L466.221,319.219z M310.414,256.02v-18.936  c-0.006,0.001-0.012,0.002-0.018,0.004c-1.213,0.256-2.442,0.426-3.677,0.507c-0.434,0.03-0.868,0.048-1.304,0.055l-0.104,0.001  h-0.008h-0.006c-4.351,0.045-8.763,0.343-12.988,0.022c-1.28-0.092-2.538-0.24-3.763-0.469l-0.36-0.072v21.588  c0.006,0.021,0.013,0.042,0.02,0.063c1.077,3.419,4.107,5.901,7.814,6.745c0.77,0.175,1.569,0.279,2.386,0.307  c0.276,0.009,0.554,0.01,0.834,0.001c1.037-0.031,2.103-0.116,3.146-0.287l0.012-0.002c0.957-0.158,1.896-0.389,2.778-0.721  c2.306-0.868,4.218-2.424,5.043-5.149c0.01-0.035,0.021-0.07,0.031-0.106c0.09-0.309,0.162-0.766,0.164-0.78v-0.001V256.02  L310.414,256.02z M277.945,179.607c-2.624-0.104-5.488,0.568-7.039,2.908c-0.29,0.437-0.531,0.906-0.722,1.395  c-0.332,0.866-0.508,1.8-0.539,2.73v0.011v0.008c-0.001,0.045-0.002,0.091-0.002,0.136c0,0,0,0.015-0.002,0.041l-0.009,0.495  c-0.278,1.033-1.04,0.522-2.237,0.752c-2.793,0.535-5.151,2.767-6.086,5.502c-1.719,5.032,1.708,11.619,7.58,11.582  c0,0,0.693,0.045,0.755,0.75c0,4.946-0.258,9.904,1.335,14.439c2.689,7.655,9.55,13.579,17.59,15.293  c0.342,0.059,0.709,0.134,1.082,0.203c0.979,0.161,1.972,0.259,2.976,0.29c0.144,0.004,0.288,0.007,0.432,0.008l0.05,0.001  c4.053,0.015,8.105,0.016,12.157,0l0.052-0.001c0.223-0.003,0.446-0.009,0.669-0.018c11.93-0.51,22.697-10.863,22.736-23.601  v-29.847c-2.818,2.06-6.666,2.517-10.406,2.713c-0.819,0.047-1.639,0.074-2.459,0.084c-11.519,0.173-23.041-2.677-34.335-5.35  c-0.183-0.042-0.365-0.082-0.548-0.121l-0.075-0.016c-0.072-0.015-0.144-0.029-0.217-0.043l-0.037-0.007l-0.016-0.003  C279.743,179.77,278.846,179.649,277.945,179.607L277.945,179.607z M412.172,180.426l2.369-0.207  c0.112,0.949,0.373,1.728,0.783,2.336s1.046,1.1,1.909,1.475c0.863,0.376,1.833,0.563,2.912,0.563c0.958,0,1.803-0.142,2.537-0.427  c0.733-0.284,1.279-0.675,1.637-1.171s0.537-1.038,0.537-1.624c0-0.596-0.172-1.116-0.518-1.56  c-0.345-0.444-0.914-0.817-1.708-1.119c-0.509-0.199-1.635-0.507-3.378-0.926c-1.743-0.418-2.964-0.813-3.663-1.184  c-0.906-0.475-1.581-1.064-2.026-1.767c-0.444-0.703-0.666-1.49-0.666-2.362c0-0.958,0.272-1.853,0.815-2.685  c0.544-0.833,1.338-1.465,2.382-1.897c1.044-0.431,2.204-0.647,3.481-0.647c1.407,0,2.647,0.227,3.721,0.68  c1.075,0.453,1.901,1.119,2.479,1.999c0.578,0.881,0.889,1.877,0.932,2.99l-2.407,0.181c-0.13-1.199-0.568-2.105-1.314-2.718  c-0.747-0.612-1.849-0.919-3.307-0.919c-1.519,0-2.625,0.279-3.32,0.835c-0.694,0.557-1.042,1.228-1.042,2.013  c0,0.682,0.246,1.242,0.738,1.682c0.483,0.441,1.745,0.891,3.786,1.353c2.04,0.462,3.44,0.865,4.2,1.21  c1.104,0.509,1.92,1.154,2.446,1.935s0.789,1.68,0.789,2.699c0,1.009-0.289,1.96-0.867,2.854c-0.578,0.893-1.408,1.587-2.491,2.083  c-1.083,0.496-2.302,0.745-3.657,0.745c-1.717,0-3.155-0.251-4.316-0.751c-1.161-0.501-2.071-1.253-2.731-2.259  C412.554,182.831,412.207,181.694,412.172,180.426L412.172,180.426z M445.655,177.281c0-3.15,0.846-5.615,2.537-7.397  c1.691-1.782,3.874-2.673,6.549-2.673c1.752,0,3.331,0.419,4.737,1.256c1.406,0.837,2.479,2.004,3.216,3.501  c0.738,1.497,1.107,3.195,1.107,5.093c0,1.924-0.388,3.645-1.165,5.164c-0.776,1.519-1.877,2.668-3.3,3.449  c-1.424,0.781-2.96,1.172-4.608,1.172c-1.786,0-3.382-0.432-4.789-1.295c-1.406-0.863-2.472-2.04-3.197-3.533  C446.018,180.525,445.655,178.946,445.655,177.281L445.655,177.281z M469.548,186.522h-2.511v-18.974h7.157  c1.26,0,2.222,0.06,2.886,0.181c0.932,0.155,1.713,0.451,2.343,0.887c0.63,0.435,1.137,1.046,1.521,1.831  c0.384,0.785,0.576,1.648,0.576,2.589c0,1.613-0.514,2.979-1.541,4.096c-1.025,1.116-2.876,1.674-5.565,1.676h-4.866V186.522  L469.548,186.522z M444.322,169.787h-6.277v16.735h-2.511v-16.735h-6.251v-2.239h15.039V169.787L444.322,169.787z M448.244,177.32  c0,2.286,0.614,4.087,1.844,5.403c1.23,1.316,2.772,1.974,4.627,1.974c1.89,0,3.445-0.664,4.666-1.993  c1.221-1.329,1.831-3.214,1.831-5.656c0-1.545-0.261-2.893-0.783-4.045s-1.285-2.045-2.291-2.679  c-1.005-0.634-2.133-0.951-3.384-0.951c-1.778,0-3.307,0.61-4.588,1.831C448.884,172.425,448.244,174.464,448.244,177.32  L448.244,177.32z M474.401,169.787h-4.853v6.782h4.905c1.622,0,2.774-0.302,3.456-0.906c0.681-0.604,1.022-1.454,1.022-2.55  c0-0.794-0.201-1.473-0.602-2.038c-0.401-0.565-0.93-0.939-1.585-1.12C476.322,169.843,475.545,169.787,474.401,169.787  L474.401,169.787z"/>
<path id="color_x5F_4" fill-rule="evenodd" clip-rule="evenodd" fill="#2f2057" d="M293.103,360.079  c-0.776,10.876-2.518,21.654-5.354,32.197c-3.168,11.777-7.41,23.293-13.131,34.01l-0.024,0.045  c-0.139,0.259-0.279,0.517-0.419,0.774c-0.417,0.729-0.89,1.373-1.585,1.568c-0.111,0.03-0.226,0.049-0.346,0.056l-0.01,0.001  c-7.428,0.332-14.854,0.695-22.28,1.023c-3.28,0.129-6.561,0.259-9.84,0.405l-0.008,0.002l-0.301,0.011  c-2.363,0.06-4.491-1.95-4.605-4.274c-0.801-21.928-0.842-43.875-1.139-65.818L293.103,360.079L293.103,360.079z M358.175,360.079  c1.336,21.094,2.851,42.178,3.653,63.296c0.067,2.701-2.311,5.11-4.988,5.112l-0.075-0.001l-0.019-0.001  c-9.14-0.31-18.294-0.746-27.409-1.226h-0.005l-0.031-0.003c-2.68-0.194-5.198-1.533-6.812-3.639c-0.015-0.02-0.03-0.04-0.045-0.06  c-0.627-0.832-1.069-1.786-1.528-2.727c-0.083-0.169-0.165-0.339-0.248-0.509c-7.235-14.947-12.186-30.976-14.793-47.388  c-0.677-4.262-1.196-8.551-1.556-12.854L358.175,360.079L358.175,360.079z M397.504,382.903h-28.842v-16.982h21.083L397.504,382.903  L397.504,382.903z M529.28,382.903h-17.872l-7.758-16.982h25.63V382.903L529.28,382.903z M500.872,382.903h-23.745l-7.758-16.982  h23.745L500.872,382.903L500.872,382.903z M466.591,382.903h-23.175l-7.758-16.982h23.175L466.591,382.903L466.591,382.903z   M432.88,382.903h-24.84l-7.759-16.982h24.841L432.88,382.903L432.88,382.903z M82.369,382.903H64.497v-16.982h25.631  L82.369,382.903L82.369,382.903z M116.65,382.903H92.905l7.759-16.982h23.745L116.65,382.903L116.65,382.903z M150.361,382.903  h-23.175l7.759-16.982h23.175L150.361,382.903L150.361,382.903z M185.738,382.903h-24.841l7.759-16.982h24.84L185.738,382.903  L185.738,382.903z M225.116,382.903h-28.842l7.758-16.982h21.084V382.903L225.116,382.903z M293.203,358.579H234.04  c-0.074-5.29-0.165-10.581-0.286-15.871h59.784C293.643,348.007,293.536,353.3,293.203,358.579L293.203,358.579z M358.08,358.579  h-53.875l-0.023-0.293c-0.361-4.921-0.512-9.853-0.448-14.778l0.013-0.8h53.388c0.29,5.239,0.607,10.477,0.936,15.713  L358.08,358.579L358.08,358.579z M357.053,341.208H303.73c0.48-25.943,6.079-51.994,15.254-76.419  c0.506-1.348,1.117-2.895,1.416-3.647c0.111-0.279,0.181-0.451,0.186-0.464c0.259-0.546,0.655-1.004,1.008-1.475  c1.085-1.159,2.627-1.885,4.228-1.922c0.655-0.008,1.305,0.091,1.93,0.292c17.297,5.775,34.448,11.985,51.574,18.252  c1.287,0.503,2.175,1.777,2.239,3.142c-0.048,0.182-0.007,0.357-0.004,0.372l-0.001,0.021l-0.001,0.015  c-0.638,6.701-1.3,13.401-1.993,20.096c-0.857,7.754-1.771,15.502-2.591,23.259l0.032,0.094c-0.145,1.245-0.291,2.49-0.438,3.735  c-0.253,1.752-1.917,3.095-3.671,2.987c-2.604-0.225-5.2-0.533-7.803-0.774c-4.535-0.356-8.441,3.621-8.28,7.945L357.053,341.208  L357.053,341.208z M276.786,262.141c-0.887-1.595-2.631-2.631-4.487-2.613c-0.778,0.018-1.546,0.213-2.238,0.568  c-18.362,9.724-36.738,19.426-54.895,29.528c-2.824,1.608-4.532,4.909-4.227,8.143c0.008,0.082,0.017,0.164,0.027,0.245  l4.662,35.883c-0.001,0.017-0.003,0.035-0.005,0.052c0.044,0.305,0.088,0.61,0.131,0.915c0.225,1.314,1.607,2.258,2.924,1.969  c2.572-0.638,5.121-1.363,7.688-2.017c3.418-0.819,7.191,1.954,7.332,5.554c0.007,0.28,0.014,0.56,0.02,0.84h59.785  c-0.484-17.807-3.337-35.659-8.014-52.956c-0.222-0.821-0.448-1.64-0.678-2.458c-0.137-0.488-0.276-0.976-0.416-1.463l-0.007-0.024  l-0.063-0.218c-0.12-0.416-0.241-0.832-0.363-1.248c-1.8-6.117-3.83-12.168-6.124-18.118l-0.005-0.011l-0.111-0.289l-0.016-0.042  l-0.107-0.275l-0.019-0.047l-0.103-0.266l-0.007-0.017l-0.006-0.015l-0.101-0.259l-0.024-0.059l-0.102-0.259l-0.025-0.064  l-0.104-0.264l-0.018-0.045l-0.113-0.283C276.92,262.399,276.854,262.268,276.786,262.141L276.786,262.141z M102.699,242.618  c-1.48,0.029-2.921,0.667-3.931,1.751l22.052,15.252l2.667-3.859c-5.914-4.087-11.753-8.284-17.744-12.258  C104.838,242.92,103.773,242.61,102.699,242.618L102.699,242.618z M117.691,227.215c-0.8,0.012-1.593,0.198-2.315,0.543  l14.928,22.272l3.895-2.613c-4.005-5.97-7.899-12.016-12.017-17.908C121.151,228.072,119.438,227.21,117.691,227.215  L117.691,227.215z M137.532,218.522l4.305,26.455l4.628-0.768c-1.176-7.092-2.22-14.207-3.529-21.275  C142.439,220.433,140.108,218.506,137.532,218.522L137.532,218.522z M328.949,180.362c0.178-0.254,0.2-0.352,0.316-0.524  c2.63-3.93,4.918-8.167,5.997-12.721c2.024-8.545,4.84-17.385,3.721-25.819c-0.027-0.21-0.061-0.419-0.101-0.626  c-0.031-0.157-0.066-0.313-0.106-0.468c-0.03-0.112-0.062-0.224-0.098-0.335c-0.033-0.1-0.069-0.2-0.109-0.298  c-0.216-0.533-0.524-1.109-1.285-1.084c-0.962,0.064-1.796,0.715-2.647,1.297c-4.211,2.881-7.601,6.967-12.219,9.025  c-7.837,3.493-17.222,2.159-25.403,1.178c-11.215-1.29-24.22-0.321-29.71,9.145c-2.4,4.139-2.593,9.234-2.812,14.195  c-0.195,4.417-0.189,8.842-0.082,13.264l0.007,0.275l3.748-0.667c0.199-2.74,1.567-5.447,3.982-6.873  c3.821-2.255,8.611-0.921,12.377,0.002l0.33,0.08c10.874,2.629,22.053,5.007,32.917,4.514c0.081-0.004,0.163-0.008,0.245-0.012  c0.098-0.005,0.196-0.01,0.294-0.016c0.487-0.028,0.983-0.059,1.483-0.097c2.939-0.24,5.87-0.793,8.031-2.318  c0.608-0.429,1.102-1.098,1.102-1.098C328.934,180.375,328.942,180.368,328.949,180.362L328.949,180.362z"/>
<path id="color_x5F_3" fill-rule="evenodd" clip-rule="evenodd" fill="#000000" d="M450.383,359.792h-7.243v-39.864  c0.052-0.151,0.001-0.272,0-0.274v-95.415h7.243v64.385c-1.261,0.141-2.418,0.79-3.271,1.725c-0.856,0.928-1.397,2.141-1.445,3.428  l0,0v0.003l-0.001,0.022v0.005v0.001v0.004c-0.001,0.029-0.002,0.058-0.002,0.088c0,0.732-0.001,1.465-0.002,2.197  c-0.006,5.636-0.033,11.271,0,16.906l0.002,0.326l0.001,0.047l0.002,0.05c0.095,2.948,2.004,5.708,4.716,6.764V359.792  L450.383,359.792z"/>
<path id="color_x5F_2" fill-rule="evenodd" clip-rule="evenodd" fill="#ffffff" d="M311.914,256.551v2.307l-0.002,0.017  l-0.002,0.027v0.001v0.001l-0.001,0.007l-0.003,0.036l-0.001,0.002l0,0v0.001c-0.374,3.74-4.071,6.806-8.188,7.818  c-2.883,0.708-5.999,0.867-8.783,0.15c-1.129-0.289-2.205-0.723-3.19-1.329c-0.141-0.086-0.279-0.176-0.416-0.268l-0.007-0.005  l-0.009-0.006l-0.012-0.009l-0.01-0.006c-2.227-1.517-4.031-3.823-4.592-6.338c-0.009-0.066-0.009-0.065-0.012-0.131l0,0v-2.372  c-2.731,1.501-5.469,2.993-8.211,4.478c0,0-0.597,0.08-0.356,0.518c0.821,1.55,1.39,3.322,2.008,5.059  c9.931,26.394,15.563,54.666,15.115,82.566c-0.031,3.292-0.152,6.579-0.372,9.86l-0.031,0.446c-0.019,0.123-0.039,0.224-0.065,0.306  c-0.315,4.331-0.784,8.647-1.413,12.938c-0.513,3.514-1.136,7.013-1.871,10.491c-3.326,15.737-8.487,31.184-16.32,45.29  c-0.03,0.055-0.061,0.11-0.091,0.164c0,0-1.125,1.489-2.627,1.648c-0.012,0.002-0.024,0.003-0.036,0.004l-0.061,0.003  c-10.486,0.631-20.983,0.944-31.483,1.401l-1.145,32.292h122.445l-2.681-34.486c-0.884,0.392-1.069,0.388-1.576,0.471  c-1.712,0.28-4.036,0.037-6.312-0.122c-7.402-0.312-14.788-0.679-22.185-1.016c-0.049-0.002-0.095-0.005-0.138-0.007h-0.003  l-0.01-0.001l-0.088-0.005l-0.025-0.002h-0.003l-0.028-0.002l-0.043-0.002l-0.027-0.002l-0.014-0.001l-0.026-0.002l-0.02-0.001  h-0.004c-0.415-0.029-0.522-0.055-0.82-0.103c-0.861-0.14-1.7-0.389-2.498-0.735l-0.002-0.001l-0.005-0.002l-0.044-0.019  l-0.014-0.006l-0.01-0.005l-0.031-0.014l-0.017-0.007l-0.005-0.003c-2.14-0.959-3.974-2.611-5.14-4.695l0,0l-0.003-0.004  l-0.034-0.062l-0.001-0.002c-0.026-0.047-0.051-0.094-0.076-0.141l-0.032-0.063l-0.052-0.104l-0.012-0.024l-0.01-0.02l-0.016-0.031  c-7.455-14.908-12.568-30.983-15.356-47.59c-0.859-5.054-1.497-10.147-1.917-15.269c-0.063-0.101-0.097-0.245-0.131-0.452  c-0.446-5.632-0.619-11.287-0.511-16.94l0.011-0.506c0.012-0.116,0.027-0.212,0.048-0.293c0.065-3.803,0.246-7.613,0.543-11.427  c1.845-23.748,7.36-47.48,16.049-69.39c0.279-0.703,0.584-1.36,1.005-1.957l-7.42-2.526L311.914,256.551L311.914,256.551z   M530.78,357.046v7.779c0.056,0.1,0.093,0.215,0.111,0.346v18.482c-0.018,0.138-0.055,0.257-0.111,0.358v60.59h8.803v-87.534  C536.65,357.145,533.715,357.059,530.78,357.046L530.78,357.046z M54.195,357.046v87.555h8.802v-60.589  c-0.055-0.1-0.092-0.22-0.11-0.359v-18.482c0.018-0.137,0.055-0.257,0.11-0.358v-7.746  C60.065,357.145,57.129,357.059,54.195,357.046L54.195,357.046z M209.43,296.327c-0.03-0.04-0.076-0.047-0.143-0.012  c-5.532,2.892-11.03,5.844-16.483,8.871l-0.543,0.302c-0.218,1.549-0.438,3.098-0.658,4.646c-0.359,2.787-0.725,5.575-1.206,8.371  c-1.266,6.973-6.557,13.126-13.754,14.057l-0.026,0.004l-1.441,0.175l-4.408,0.537c4.744,3.733,11.715,4.053,18.579,3.853  c8.267-0.241,16.486-1.762,24.559-3.676l0.127-0.03c-1.674-11.754-3.208-23.529-4.567-35.322l-0.001-0.01l-0.001-0.009l-0.008-0.071  C209.396,297.451,209.389,296.887,209.43,296.327L209.43,296.327z M382.978,280.289c-1.335,13.923-2.92,27.821-4.415,41.728  l63.077-3.077v-18.729L382.978,280.289L382.978,280.289z"/>
<path id="color_x5F_1" fill-rule="evenodd" clip-rule="evenodd" fill="#000000" d="M441.64,224.165h-15.123  c-0.196-0.019-0.375-0.091-0.53-0.219l-26.955-26.954c-0.124-0.153-0.199-0.33-0.219-0.531v-38.119  c0.019-0.196,0.091-0.374,0.219-0.53l26.955-26.954c0.152-0.125,0.329-0.2,0.53-0.22h38.119c0.049,0.005,0.097,0.01,0.146,0.014  c0.089,0.027,0.172,0.031,0.384,0.206l26.954,26.954c0.125,0.152,0.2,0.33,0.22,0.53v38.119c-0.019,0.196-0.092,0.375-0.22,0.531  l-26.954,26.954c-0.152,0.125-0.329,0.2-0.53,0.219h-12.753v64.425h15.088c0.03,0.002,0.061,0.004,0.091,0.006  c0.581,0.106,0.641,0.445,0.659,0.744v30.629c-0.025,0.42-0.328,0.724-0.75,0.75c-4.639,0-9.278,0.027-13.917-0.001  c-0.395-0.007-0.786-0.048-1.171-0.123v39.947c-0.057,0.432-0.295,0.688-0.75,0.75h-8.743c-0.434-0.057-0.69-0.297-0.75-0.75  v-40.101l-63.235,3.085l-0.335,3.107c-0.3,2.535-2.673,4.57-5.283,4.409c-2.609-0.226-5.211-0.534-7.82-0.775  c-3.473-0.273-6.786,2.82-6.653,6.384l0.272,5.087l0.032,0.177l1.005,17.371c-0.003,0.129-0.012,0.238-0.033,0.326  c1.249,21.21,2.644,42.412,3.734,63.631c0.076,1.997-0.898,3.91-2.406,5.184l2.812,36.183l-0.197,0.568l-0.55,0.24H238.95  l-0.54-0.229l-0.209-0.547l1.169-32.983c-2.938-0.192-5.561-2.762-5.671-5.773c-0.527-21.974-0.473-43.964-0.933-65.939  c-0.156-0.102-0.201-0.281-0.235-0.605l-0.305-17.371l0.021-0.2l-0.051-1.418c-0.137-2.563-2.796-4.683-5.408-4.097  c-2.571,0.616-5.114,1.34-7.671,2.011c-2.121,0.526-4.459-0.918-4.844-3.171l-0.024-0.171c-0.264,0.064-0.539,0.118-0.794,0.178  c-10.694,2.488-21.791,4.484-32.414,3.206c-4.535-0.546-9.387-1.738-12.244-4.791l-1.737,0.212c-0.084,0.001-0.141,0.04-0.385-0.06  c-4.953,0.604-9.9,1.259-14.859,1.808c-6.272,0.652-12.635-2.539-16.443-7.654c-2.263-3.04-3.669-6.678-4.193-10.442  c-1.647-12.921-3.15-25.86-4.725-38.789c-1.121-9.661,4.747-20.231,14.94-21.583c3.941-0.494,7.859-1.286,11.835-1.354  c0.196-0.001,0.196-0.001,0.393,0.001c8.022,0.195,14.811,7.277,15.889,15.745l2.45,20.117c0.744-5.366,1.416-10.742,2.234-16.097  c0.682-4.199,3.891-7.913,8.043-8.542c3.398-0.474,6.931-0.638,9.669,1.495c3.019,2.351,4.494,6.358,4.042,10.177  c-1.102,8.364-2.252,16.723-3.43,25.077l0.51-0.284c5.394-2.981,10.839-5.9,16.276-8.732c0.245-0.127,0.366-0.241,0.493-0.316  c0.712-2.481,2.364-4.689,4.632-5.981c18.195-10.123,36.485-20.087,55.012-29.589c0.928-0.461,1.957-0.702,2.998-0.699  c1.723,0.026,3.385,0.773,4.586,1.981c3.133-1.694,6.263-3.401,9.388-5.117c0,0,0.107-0.022,0.271-0.026v-18.099  c-0.491-0.129-0.975-0.274-1.455-0.436c-9.858-3.329-17.055-13.209-17.087-23.803v-5.884c-0.107-0.008-0.213-0.018-0.319-0.029  c-3.881-0.45-7.209-3.577-8.18-7.423c-0.983-3.892,0.483-8.334,3.583-10.795c-0.578-0.324-0.307-1.375-0.328-2.245  c-0.14-6.439-0.184-12.903,0.583-19.272c0.525-4.367,2.022-8.732,5.057-11.819c4.589-4.668,11.578-6.484,18.434-6.892  c9.44-0.563,18.797,2.342,28.04,1.111c4.179-0.556,8.22-2.15,11.547-4.757c2.659-2.083,5.005-4.566,7.844-6.384  c0.925-0.593,1.676-1.157,3.009-1.154c1.939,0.076,2.844,2.515,3.056,4.116c0.04,0.298,0.07,0.597,0.092,0.897  c0.031,0.415,0.048,0.83,0.055,1.246c0.009,0.496,0.003,0.993-0.013,1.49c-0.02,0.639-0.057,1.277-0.106,1.915  c-0.555,7.284-2.249,14.447-3.958,21.578c-1.157,4.662-3.603,8.941-6.308,12.855l-0.009,0.013  c0.001,10.584,0.096,21.167-0.002,31.749c-0.11,7.04-3.298,13.989-8.606,18.619c-2.796,2.438-6.131,4.22-9.701,5.229v18.269  l0.322-0.113l0.489-0.002l8.28,2.812l0.112-0.103c1.336-1.141,3.083-1.775,4.851-1.775c0.794,0.01,1.582,0.144,2.336,0.395  c17.221,5.977,34.434,11.983,51.553,18.247c1.775,0.693,3.028,2.421,3.19,4.306l58.593,19.899L441.64,224.165L441.64,224.165z   M311.914,256.551v2.307l0,0l0,0l-0.001,0.004l-0.039,0.349l-0.002,0.007v0.003l-0.009,0.05l-0.049,0.288l-0.004,0.019v0.002  l-0.005,0.021c-0.684,3.319-3.967,6.017-7.679,7.053l-0.037,0.011l-0.054,0.014l-0.318,0.089l-0.34,0.077l-0.093,0.023l-0.093,0.019  c-2.582,0.571-5.321,0.692-7.822,0.13l-0.277-0.06l-0.04-0.011l-0.048-0.01l-0.219-0.062l-0.398-0.109l-0.084-0.028l-0.045-0.013  l-0.15-0.053l-0.41-0.137l-0.117-0.048l-0.05-0.017l-0.133-0.057l-0.372-0.151l-0.136-0.065l-0.066-0.028l-0.14-0.071l-0.31-0.15  l-0.141-0.08l-0.093-0.047l-0.158-0.096l-0.238-0.135l-0.183-0.118l-0.078-0.047l-0.095-0.065l-0.088-0.058l-0.105-0.074  l-0.141-0.097l-0.134-0.101l-0.051-0.036l-0.042-0.033c-1.977-1.482-3.551-3.59-4.098-5.881l-0.009-0.029l-0.003-0.016l-0.019-0.077  l-0.012-0.131l0,0v-2.372c-2.731,1.501-5.469,2.993-8.211,4.478c0,0-0.597,0.08-0.356,0.518c0.917,1.732,1.52,3.742,2.23,5.67  c9.846,26.36,15.396,54.573,14.885,82.406c-0.034,3.143-0.154,6.278-0.364,9.409l-0.031,0.446c-0.019,0.124-0.04,0.225-0.067,0.305  c-0.29,3.996-0.711,7.979-1.27,11.94l-0.095,0.682l-0.018,0.125l-0.019,0.133l-0.086,0.565l-0.148,0.986l-0.038,0.242l-0.018,0.113  l-0.06,0.373l-0.174,1.078l-0.058,0.339l-0.018,0.112l-0.052,0.299l-0.181,1.053l-0.075,0.412l-0.024,0.134l-0.055,0.297  l-0.175,0.957l-0.089,0.455l-0.034,0.186l-0.068,0.343l-0.158,0.813l-0.095,0.463l-0.054,0.272l-0.089,0.423l-0.131,0.635  l-0.074,0.338l-0.103,0.491l-0.195,0.87l-0.276,1.259l-0.135,0.574l-0.046,0.209l-0.111,0.462l-0.4,1.705l-0.182,0.722l-0.003,0.015  l-0.009,0.036c-3.207,12.994-7.769,25.686-14.162,37.473c-0.236,0.435-0.474,0.868-0.715,1.3c0,0-1.135,1.503-2.648,1.65  l-0.015,0.002h-0.006c-10.505,0.633-21.02,0.946-31.538,1.406l-1.145,32.29h122.445l-2.681-34.486  c-0.884,0.392-1.069,0.388-1.576,0.471c-1.749,0.286-4.137,0.027-6.459-0.132c-7.352-0.306-14.69-0.671-22.038-1.006  c-0.389-0.02-0.578-0.035-0.721-0.052l-0.06-0.005l-0.287-0.044h-0.004h-0.002l-0.175-0.027l-0.249-0.048l-0.204-0.036l-0.071-0.018  l-0.093-0.018l-0.27-0.069l-0.186-0.045l-0.062-0.019l-0.089-0.023l-0.273-0.088l-0.186-0.057l-0.058-0.022l-0.08-0.025  l-0.259-0.101l-0.199-0.074l-0.059-0.026l-0.067-0.026l-0.234-0.107l-0.223-0.099l-0.061-0.031l-0.052-0.024l-0.201-0.106  l-0.253-0.13l-0.062-0.036l-0.039-0.021l-0.163-0.098l-0.286-0.168l-0.062-0.042l-0.027-0.016l-0.125-0.085l-0.317-0.212  l-0.06-0.046l-0.016-0.011l-0.091-0.069l-0.343-0.259l-0.056-0.047l-0.009-0.008l-0.061-0.052l-0.362-0.307l-0.049-0.047  l-0.005-0.004l-0.04-0.039l-0.37-0.352l-0.04-0.043l-0.004-0.003l-0.031-0.034l-0.364-0.388l-0.031-0.037l-0.002-0.003l-0.039-0.046  l-0.34-0.408l-0.021-0.028l-0.003-0.004l-0.064-0.087l-0.295-0.399l-0.012-0.018l-0.003-0.005l-0.123-0.189l-0.215-0.329  l-0.005-0.009c-0.11-0.18-0.216-0.366-0.316-0.555c-0.374-0.743-0.74-1.488-1.098-2.238l-0.22-0.449l-0.221-0.472l-0.116-0.241  l-0.314-0.677c-6.224-13.313-10.627-27.492-13.22-42.105l-0.298-1.7l-0.069-0.422l-0.022-0.127l-0.024-0.155  c-0.795-4.805-1.392-9.646-1.79-14.515c-0.066-0.099-0.099-0.243-0.134-0.452c-0.446-5.632-0.619-11.287-0.511-16.94l0.011-0.506  c0.012-0.115,0.027-0.212,0.05-0.293c0.063-3.801,0.244-7.612,0.541-11.427l0.078-0.946l0.025-0.339l0.038-0.424l0.042-0.517  l0.068-0.734l0.041-0.465l0.035-0.356l0.062-0.671l0.08-0.794l0.031-0.318l0.032-0.293l0.083-0.82l0.091-0.816l0.022-0.209  l0.027-0.23l0.108-0.969l0.098-0.813l0.014-0.124l0.021-0.162l0.136-1.124l0.103-0.796l0.007-0.052l0.011-0.083  c2.48-19.129,7.299-38.048,14.2-55.81l0.09-0.235c0.082-0.211,0.164-0.422,0.249-0.633l0.257-0.657  c0.279-0.703,0.584-1.36,1.005-1.957l-7.42-2.526L311.914,256.551L311.914,256.551z M52.695,356.291c-0.129-3.534,0-7.069,0-10.601  c0.015-0.39,0.31-0.705,0.694-0.748c3.469-0.13,6.945-0.13,10.414,0c0.368,0.041,0.651,0.323,0.692,0.691  c0.133,3.551,0.002,7.107,0.002,10.661l0,0v8.127h26.798l0,0c2.955,0,5.913-0.136,8.866,0h25.415l0,0c2.955,0,5.913-0.136,8.866,0  h24.845l0,0c2.955,0,5.913-0.136,8.866,0h26.51h0.001c2.955,0,5.913-0.136,8.866,0h22.336l0.194,0.026  c0.314,0.13,0.509,0.367,0.556,0.724v18.482c-0.057,0.432-0.295,0.688-0.75,0.75H64.497v60.948c-0.061,0.627-0.194,0.695-0.75,0.75  H53.445c-0.631-0.062-0.695-0.195-0.75-0.75v-89.057V356.291L52.695,356.291z M529.281,356.291  c-0.13-3.534-0.001-7.069-0.001-10.601c0.015-0.387,0.303-0.704,0.694-0.748c3.469-0.13,6.946-0.13,10.415,0  c0.367,0.041,0.65,0.323,0.692,0.691c0.133,3.551,0.002,7.107,0.002,10.661l0,0v89.057c-0.062,0.627-0.194,0.695-0.75,0.75H530.03  c-0.631-0.062-0.695-0.195-0.75-0.75v-60.948H367.912c-0.434-0.057-0.69-0.297-0.75-0.75v-18.482c0.057-0.434,0.298-0.69,0.75-0.75  h22.315l0,0c2.955,0,5.914-0.136,8.866,0h26.511l0,0c2.955,0,5.913-0.136,8.866,0h24.845l0,0c2.955,0,5.913-0.136,8.866,0h25.415  l0,0c2.955,0,5.913-0.136,8.866,0h26.818v-8.127L529.281,356.291L529.281,356.291z M54.195,357.049v87.552h8.802v-60.596  c-0.056-0.096-0.092-0.214-0.11-0.352v-18.482c0.018-0.135,0.054-0.254,0.11-0.352v-7.754  C60.065,357.145,57.129,357.059,54.195,357.049L54.195,357.049z M530.78,357.049v7.777c0.056,0.098,0.093,0.213,0.111,0.345v18.482  c-0.018,0.136-0.054,0.254-0.111,0.352v60.596h8.803v-87.536C536.65,357.145,533.714,357.059,530.78,357.049L530.78,357.049z   M293.102,360.079h-59.044c0.3,21.941,0.341,43.89,1.142,65.818c0.114,2.324,2.242,4.334,4.605,4.274l0.306-0.012l0.003-0.001  c3.144-0.14,6.289-0.265,9.436-0.39l6.471-0.289l16.191-0.748l0.028-0.002l0.268-0.036l0.208-0.062  c0.614-0.226,1.05-0.817,1.436-1.487l0.468-0.863l1.051-2.009l0.006-0.013c5.19-10.137,9.103-20.946,12.072-31.983  C290.585,381.734,292.327,370.956,293.102,360.079L293.102,360.079z M358.177,360.079h-53.855c0.358,4.287,0.874,8.561,1.548,12.809  c2.602,16.418,7.55,32.452,14.787,47.402l0.259,0.54c0.459,0.941,0.901,1.895,1.528,2.727l0.046,0.058  c1.616,2.111,4.138,3.45,6.822,3.642l0.02,0.002h0.001c9.118,0.48,18.268,0.916,27.402,1.226l0.027,0.001l0.06-0.001  c2.684,0.011,5.073-2.403,5.006-5.11C361.026,402.256,359.511,381.172,358.177,360.079L358.177,360.079z M400.281,365.921  l7.759,16.982h24.84l-7.758-16.982H400.281L400.281,365.921z M435.658,365.921l7.758,16.982h23.175l-7.758-16.982H435.658  L435.658,365.921z M469.369,365.921l7.758,16.982h23.745l-7.758-16.982H469.369L469.369,365.921z M503.65,365.921l7.758,16.982  h17.872v-16.982H503.65L503.65,365.921z M397.504,382.903l-7.759-16.982h-21.083v16.982H397.504L397.504,382.903z M64.497,365.921  v16.982h17.872l7.759-16.982H64.497L64.497,365.921z M100.664,365.921l-7.759,16.982h23.745l7.759-16.982H100.664L100.664,365.921z   M134.945,365.921l-7.759,16.982h23.175l7.759-16.982H134.945L134.945,365.921z M168.656,365.921l-7.759,16.982h24.841l7.758-16.982  H168.656L168.656,365.921z M225.116,365.921h-21.084l-7.758,16.982h28.842V365.921L225.116,365.921z M202.383,365.921h-7.238  l-7.758,16.982h7.238L202.383,365.921L202.383,365.921z M167.006,365.921h-7.237l-7.759,16.982h7.238L167.006,365.921  L167.006,365.921z M133.296,365.921h-7.238l-7.758,16.982h7.237L133.296,365.921L133.296,365.921z M99.015,365.921h-7.238  l-7.759,16.982h7.238L99.015,365.921L99.015,365.921z M502.001,365.921h-7.238l7.759,16.982h7.237L502.001,365.921L502.001,365.921z   M398.632,365.921h-7.237l7.758,16.982h7.238L398.632,365.921L398.632,365.921z M434.009,365.921h-7.238l7.759,16.982h7.237  L434.009,365.921L434.009,365.921z M467.72,365.921h-7.238l7.758,16.982h7.238L467.72,365.921L467.72,365.921z M450.383,224.239  h-7.243v95.415c0.006,0.016,0.047,0.127,0,0.266v39.872h7.243V320.19c-2.284-0.889-3.998-2.986-4.535-5.388l-0.002-0.009  l-0.012-0.055l-0.063-0.301l-0.019-0.135l-0.035-0.231l-0.01-0.104l-0.011-0.081l-0.004-0.072c-0.016-0.161-0.025-0.323-0.028-0.485  l-0.002-0.539c-0.035-5.997-0.002-11.996,0-17.99l0.002-0.9l0.001-0.013l0.029-0.474l0.002-0.013l0.001-0.02l0.042-0.248  l0.032-0.198l0.004-0.017l0.008-0.047l0.084-0.307l0.025-0.097l0.006-0.015l0.02-0.076l0.118-0.31l0.019-0.053l0.006-0.014  l0.039-0.102l0.138-0.279l0.019-0.042l0.01-0.017l0.06-0.121l0.14-0.229l0.03-0.052l0.02-0.028l0.077-0.127l0.127-0.169l0.05-0.072  l0.045-0.056l0.085-0.113l0.097-0.108l0.078-0.095l0.1-0.102l0.068-0.076l0.056-0.051l0.112-0.116l0.198-0.171l0.011-0.01  l0.006-0.005c0.775-0.669,1.731-1.119,2.756-1.233L450.383,224.239L450.383,224.239z M293.531,342.708h-59.78  c0.122,5.29,0.213,10.581,0.284,15.871h59.167C293.535,353.305,293.642,348.01,293.531,342.708L293.531,342.708z M357.136,342.708  h-53.389c-0.005,0.267-0.009,0.533-0.013,0.8c-0.064,4.925,0.087,9.857,0.448,14.778l0.023,0.293h53.875l-0.01-0.164  C357.741,353.182,357.425,347.946,357.136,342.708L357.136,342.708z M539.583,355.544v-9.104c-2.934,0-5.868,0-8.803,0v9.104  H539.583L539.583,355.544z M62.997,355.544v-9.104c-2.934,0-5.868,0-8.802,0v9.104H62.997L62.997,355.544z M381.563,278.994  c-0.052-1.378-0.943-2.664-2.237-3.169c-17.126-6.267-34.277-12.477-51.574-18.252c-0.625-0.201-1.275-0.3-1.93-0.292  c-1.612,0.037-3.163,0.772-4.248,1.948c-0.347,0.462-0.733,0.912-0.989,1.451l-0.147,0.371l-0.378,0.952l-0.091,0.233l-0.935,2.423  l-0.36,0.968l-0.644,1.742l-0.099,0.277c-8.549,23.594-13.74,48.627-14.2,73.562h53.323l-0.239-4.491  c-0.161-4.324,3.745-8.301,8.28-7.945c2.603,0.241,5.199,0.549,7.803,0.774c1.754,0.108,3.418-1.235,3.671-2.987l0.436-3.74  l-0.03-0.089c0.821-7.763,1.735-15.517,2.591-23.277c0.694-6.686,1.354-13.373,1.991-20.061l0.003-0.029l0.001-0.031  C381.553,279.299,381.524,279.151,381.563,278.994L381.563,278.994z M276.77,262.117c-0.888-1.581-2.624-2.607-4.471-2.589  c-0.778,0.018-1.546,0.213-2.238,0.568c-18.362,9.724-36.738,19.426-54.895,29.528c-2.834,1.614-4.543,4.932-4.22,8.176l0.02,0.212  l4.662,35.883l-0.005,0.034l0.131,0.933c0.225,1.314,1.607,2.258,2.924,1.969c2.572-0.638,5.121-1.363,7.688-2.017  c3.418-0.819,7.191,1.954,7.332,5.554l0.019,0.84h59.785c-0.47-17.325-3.184-34.692-7.638-51.552l-0.093-0.346l-0.728-2.676  l-0.176-0.635l-0.905-3.158l-0.155-0.517l-0.657-2.184l-0.396-1.271l-0.463-1.473l-0.431-1.329l-0.469-1.428l-0.439-1.304  l-0.505-1.471l-0.434-1.241l-0.562-1.57l-0.412-1.134l-0.665-1.779l-0.346-0.919l-1.051-2.693L276.77,262.117L276.77,262.117z   M209.435,296.336c-0.031-0.048-0.078-0.058-0.148-0.021c-5.532,2.892-11.03,5.844-16.483,8.871l-0.545,0.304l-0.369,2.621  l-0.282,1.982c-0.361,2.803-0.727,5.603-1.211,8.412c-1.226,6.752-6.226,12.735-13.08,13.953l-0.017,0.004h-0.001l-0.012,0.002  l-0.664,0.101l-0.006,0.001l-1.441,0.175l-4.408,0.537c4.744,3.733,11.715,4.053,18.579,3.853  c8.267-0.241,16.486-1.762,24.559-3.676l0.132-0.031c-1.679-11.748-3.212-23.518-4.57-35.308l-0.003-0.023l-0.001-0.004  l-0.008-0.076C209.397,297.454,209.389,296.893,209.435,296.336L209.435,296.336z M190.838,304.819  c1.245-8.811,2.461-17.629,3.624-26.453c0.581-4.908-2.61-10.464-8.097-10.433c-2.299,0.013-4.93,0.287-6.883,1.565  c-2.129,1.394-3.466,3.799-3.832,6.349l-2.993,21.583c-0.175,0.734-1.303,0.825-1.487-0.012c-1.057-8.678-2.068-17.361-3.172-26.033  c-1.009-7.274-6.597-13.933-14.226-14.224c-0.176-0.004-0.351-0.006-0.527-0.005c-3.885,0.066-7.84,0.835-11.761,1.355  c-2.91,0.407-5.666,1.718-7.86,3.691c-4.363,3.926-6.322,10.106-5.707,15.977c1.5,12.927,3.145,25.837,4.718,38.755  c0.78,6.116,4.197,11.894,9.422,14.94c2.944,1.717,6.432,2.488,9.818,2.088l15.019-1.829c0.084-0.002,0.142-0.041,0.386,0.059  l1.621-0.174l0.102-0.036c1.889-0.23,3.827-0.339,5.715-0.576c2.44-0.343,4.758-0.894,6.749-2.025  c4.116-2.4,6.86-6.956,7.559-11.811l0.006-0.04l1.746-12.59C190.79,304.9,190.81,304.858,190.838,304.819L190.838,304.819z   M382.977,280.288c-1.334,13.922-2.919,27.82-4.409,41.728l63.072-3.076v-18.729L382.977,280.288L382.977,280.288z M451.042,290.09  c-0.325,0.065-0.704,0.083-1.069,0.16c-1.415,0.424-2.548,1.675-2.769,3.156l-0.008,0.056l-0.031,0.348l-0.001,0.059  c-0.079,6.504-0.119,13.011,0.002,19.516l0.028,0.394l0.015,0.131l0.016,0.108c0.417,2.818,3.009,5.183,5.924,5.201h13.072V290.09  H451.042L451.042,290.09z M310.414,256.02v-18.936c-0.006,0.001-0.012,0.002-0.018,0.004c-1.266,0.267-2.549,0.44-3.842,0.517  l-0.026,0.003l-0.079,0.003l-0.505,0.024l-0.412,0.01l-0.117,0.005c-4.375,0.04-8.813,0.345-13.066,0.024  c-1.293-0.089-2.565-0.238-3.803-0.47l-0.36-0.072v21.588l0.021,0.064c1.08,3.425,4.116,5.908,7.829,6.746  c0.747,0.17,1.522,0.273,2.316,0.302c0.292,0.012,0.589,0.013,0.888,0.004c1.021-0.031,2.069-0.113,3.095-0.283  c0.961-0.154,1.904-0.382,2.792-0.709c2.329-0.865,4.264-2.425,5.092-5.176l0.031-0.097c0.088-0.304,0.159-0.75,0.164-0.781l0,0  V256.02L310.414,256.02z M102.846,241.118c1.346,0.022,2.672,0.437,3.793,1.18c6.133,4.179,12.212,8.437,18.318,12.656  c0.333,0.259,0.41,0.684,0.19,1.044l-3.519,5.093c-0.259,0.333-0.683,0.41-1.043,0.191l-23.337-16.125  c-0.746-0.58,0.233-1.755,1.173-2.511C99.661,241.649,101.255,241.111,102.846,241.118L102.846,241.118z M102.699,242.618  c-1.48,0.029-2.921,0.667-3.931,1.751l22.052,15.252l2.667-3.859c-5.914-4.087-11.753-8.284-17.744-12.258  C104.838,242.92,103.773,242.61,102.699,242.618L102.699,242.618z M117.845,225.716c2.214,0.047,4.346,1.186,5.613,2.999  c4.174,6.137,8.27,12.326,12.405,18.489c0.215,0.363,0.131,0.786-0.205,1.041l-5.141,3.449c-0.363,0.215-0.787,0.131-1.041-0.205  l-15.803-23.555C112.985,226.775,115.482,225.694,117.845,225.716L117.845,225.716z M117.691,227.215  c-0.8,0.012-1.593,0.198-2.315,0.543l14.928,22.272l3.895-2.613c-4.005-5.97-7.899-12.016-12.017-17.908  C121.151,228.072,119.438,227.21,117.691,227.215L117.691,227.215z M137.687,217.022c3.232,0.06,6.199,2.591,6.753,5.803  l3.628,21.879c0.043,0.418-0.206,0.768-0.618,0.862l-6.107,1.013c-0.419,0.044-0.769-0.205-0.863-0.617l-4.64-27.983  C135.758,217.192,136.539,217.015,137.687,217.022L137.687,217.022z M137.532,218.522l4.305,26.455l4.628-0.768  c-1.176-7.092-2.22-14.207-3.529-21.275C142.439,220.433,140.108,218.506,137.532,218.522L137.532,218.522z M277.425,179.597  c-2.475,0.001-5.07,0.732-6.519,2.918c-0.299,0.45-0.546,0.935-0.737,1.441l-0.049,0.132l-0.101,0.306l-0.031,0.094l-0.094,0.346  l-0.002,0.009c-0.138,0.555-0.218,1.124-0.239,1.693l-0.01,0.259l-0.001,0.016l-0.01,0.52c-0.278,1.033-1.04,0.522-2.237,0.752  c-2.793,0.535-5.151,2.767-6.086,5.502c-1.719,5.032,1.708,11.619,7.58,11.582c0,0,0.693,0.045,0.755,0.75  c0,4.946-0.258,9.904,1.335,14.439c2.709,7.71,9.649,13.665,17.763,15.325l0.492,0.092l0.331,0.062  c1.082,0.185,2.182,0.29,3.296,0.311l0.195,0.004l0.257,0.001l5.877,0.012l5.881-0.012l0.247-0.001l0.195-0.005l1.018-0.043h0.004  c11.71-0.799,22.149-11.029,22.188-23.571v-29.85l-0.054,0.035c-2.827,2.047-6.684,2.492-10.428,2.682  c-0.832,0.047-1.664,0.074-2.494,0.084c-11.482,0.154-22.967-2.687-34.224-5.351l-0.515-0.114l-0.102-0.021l-0.151-0.029  l-0.735-0.134l-0.144-0.023l-0.636-0.087l-0.413-0.046l-0.682-0.059l-0.06-0.003L277.425,179.597L277.425,179.597z M426.828,132.138  l-26.515,26.515v37.498l26.515,26.514h37.497l26.515-26.514v-37.498l-26.515-26.515  C451.826,132.138,439.327,132.138,426.828,132.138L426.828,132.138z M463.19,134.497c0.089,0.027,0.171,0.031,0.384,0.205  l24.702,24.702c0.125,0.153,0.2,0.33,0.22,0.531v34.934c-0.02,0.196-0.092,0.374-0.22,0.53l-24.702,24.702  c-0.152,0.125-0.33,0.2-0.531,0.22h-34.934c-0.195-0.019-0.374-0.092-0.53-0.22l-24.702-24.702c-0.125-0.152-0.2-0.329-0.22-0.53  v-34.934c0.02-0.196,0.092-0.375,0.22-0.531l24.702-24.702c0.152-0.125,0.33-0.2,0.53-0.219h34.934  C463.092,134.487,463.141,134.492,463.19,134.497L463.19,134.497z M428.42,135.983l-24.263,24.262v34.313l24.263,24.263h34.313  l24.263-24.263v-34.313l-24.263-24.262C451.295,135.983,439.858,135.983,428.42,135.983L428.42,135.983z M328.944,180.369  c0.183-0.26,0.204-0.358,0.321-0.531c2.63-3.93,4.918-8.167,5.997-12.721c2.024-8.545,4.84-17.385,3.721-25.819  c-0.027-0.21-0.061-0.419-0.101-0.626c-0.031-0.157-0.066-0.313-0.106-0.468c-0.03-0.112-0.062-0.224-0.098-0.335  c-0.033-0.1-0.069-0.2-0.109-0.298c-0.216-0.533-0.524-1.109-1.285-1.084c-0.962,0.064-1.796,0.715-2.647,1.297  c-4.211,2.881-7.601,6.967-12.219,9.025c-7.837,3.493-17.222,2.159-25.403,1.178c-11.215-1.29-24.22-0.321-29.71,9.145  c-2.4,4.139-2.593,9.234-2.812,14.195c-0.195,4.417-0.189,8.842-0.082,13.264l0.007,0.275l3.748-0.667l0.017-0.191  c0.248-2.677,1.607-5.29,3.965-6.682c3.793-2.238,8.541-0.941,12.294-0.019l1.172,0.28c10.588,2.548,21.455,4.797,32.028,4.34  l0.35-0.017l0.537-0.03l0.931-0.061l0.899-0.074l0.176-0.016c2.688-0.273,5.311-0.854,7.29-2.25  c0.608-0.429,1.102-1.098,1.102-1.098L328.944,180.369L328.944,180.369z"/>
</svg>