<svg xmlns="http://www.w3.org/2000/svg" xmlns:xlink="http://www.w3.org/1999/xlink" version="1.1" id="Layer_1" x="0px" y="0px" enable-background="new 0 0 595.276 595.276" xml:space="preserve" viewBox="64.23 81.99 434.86 431.25">
<path id="color_x5F_6" fill-rule="evenodd" clip-rule="evenodd" fill="#97a4c5" d="M456.03,424.077h-3.479  c2.911-6.208,4.751-12.873,5.472-19.65c9.145-9.454,21.668-15.351,34.632-16.251l-0.001,0.02  c-1.03,13.423-7.318,26.348-17.213,35.484c-0.233,0.212-0.279,0.253-0.439,0.397h-17.558l22.958-22.957  c0.272-0.312,0.131-0.749-0.269-0.846c-0.283-0.03-0.335,0.049-0.438,0.139L456.03,424.077L456.03,424.077z M428.014,424.077  h-17.557c-10.153-9.172-16.687-22.313-17.654-35.901l0.02,0.001c13.075,0.979,25.603,6.886,34.71,16.351  c0.01,0.01,0.021,0.019,0.033,0.027c0.671,6.719,2.437,13.323,5.314,19.481l0.019,0.041h-3.47l-23.665-23.664  c-0.166-0.145-0.207-0.128-0.302-0.144c-0.505-0.017-0.686,0.528-0.405,0.851L428.014,424.077L428.014,424.077z M443.229,424.077  h8.216c9.954-20.519,6.774-47.325-8.668-65.271c0,0,0-0.141-0.122,0c-7.195,8.387-12.015,18.648-13.784,29.444  c-1.973,12.038-0.198,24.615,5.092,35.734l0.045,0.093h8.221v-45.244c0.043-0.459,0.179-0.567,0.637-0.481  c0.332,0.128,0.344,0.268,0.363,0.481L443.229,424.077L443.229,424.077z M133.847,378.696h-3.474  c2.903-6.209,4.678-12.834,5.362-19.542c0.005-0.004,0.008-0.007,0.008-0.007c9.152-9.513,21.724-15.451,34.729-16.352l-0.001,0.019  c-1.028,13.423-7.318,26.348-17.213,35.484c-0.233,0.212-0.279,0.254-0.439,0.398h-17.558l22.958-22.957  c0.272-0.312,0.131-0.749-0.269-0.847c-0.283-0.029-0.335,0.049-0.439,0.14L133.847,378.696L133.847,378.696z M105.831,378.696  H88.274c-10.153-9.172-16.688-22.313-17.654-35.901l0.02,0.001c13.251,0.994,25.606,6.889,34.71,16.351  c0.014,0.013,0.029,0.025,0.044,0.036c0.665,6.705,2.423,13.306,5.308,19.472l0.02,0.041h-3.476l-23.665-23.664  c-0.073-0.064-0.086-0.107-0.302-0.144c-0.474-0.017-0.71,0.501-0.405,0.851L105.831,378.696L105.831,378.696z M121.046,378.696  h8.222c9.912-20.468,6.875-46.976-8.432-65.02c0,0-0.195-0.415-0.337-0.251c-7.213,8.38-12.039,18.642-13.811,29.442  c-1.978,12.063-0.157,24.708,5.097,35.736l0.045,0.093h8.216v-45.244c0.043-0.459,0.179-0.567,0.637-0.481  c0.201,0.078,0.332,0.144,0.363,0.481L121.046,378.696L121.046,378.696z"/>
<path id="color_x5F_5" fill-rule="evenodd" clip-rule="evenodd" fill="#FFD2BB" d="M389.546,258.387  c30.042-19.847,60.134-39.62,90.029-59.688c3.959-2.719,5.76-8.141,4.064-12.758c-1.431-3.768-2.827-7.55-4.355-11.279  c-1.147-2.693-4.759-3.972-7.373-2.473l-7.467,4.35c-0.483,0.172-0.721-0.053-0.748-0.494c0.315-2.511,0.66-5.018,0.942-7.533  c0.249-2.868-3.456-5.363-6.058-3.438c-0.826,0.612-1.372,1.56-1.515,2.593l-1.747,13.96c-0.075,0.262-0.167,0.308-0.245,0.37  c-27.549,16.048-54.98,32.303-82.566,48.289L389.546,258.387L389.546,258.387z M326.597,204.151c-0.19-0.027-0.361-0.16-0.4-0.418  l-0.904-18.749l-43.79-10.232l-8.64,32.2c-2.086,7.981,3.261,17.063,11.832,18.672l21.243,3.842c0.528,0.154,0.442,1.03-0.178,0.984  l-17.643-3.191c-0.582,2.111-1.259,4.195-1.767,6.259c0.01,0.028,0.021,0.057,0.031,0.089c0,0,0.062,0.157-0.145,0.383  c-0.487,2.084-0.781,4.148-0.611,6.196c0.726,8.762,9.731,16.013,18.631,14.689c5.986-0.891,11.18-5.502,12.809-11.422l0.109-0.408  c0.003-0.02,0.009-0.043,0.018-0.067l5.895-21.968c-0.81-0.238-1.598-0.598-2.337-1.089c0,0-0.186-0.156-0.217-0.332  c-0.078-0.455,0.304-0.776,1.126-0.274c4.586,2.719,11.614-0.299,12.295-6.016c0.509-4.263-2.788-8.624-7.31-9.093  C326.644,204.206,326.626,204.186,326.597,204.151L326.597,204.151z M249.657,198.178L214.41,120.87l0.003-0.421  c1.883-3.99,3.815-7.956,5.647-11.969c0.778-1.826-0.023-4.087-1.869-4.986c0,0-0.84-0.333-1.461-0.359  c-1.491-0.06-2.941,0.826-3.604,2.185l-2.493,5.282c-0.308,0.424-0.632,0.382-0.907-0.006c-1.302-2.856-2.549-5.739-3.909-8.569  c-1.268-2.549-4.768-3.651-7.291-2.168c-3.399,2.057-6.725,4.233-10.068,6.378c-4.14,2.721-6.035,8.323-4.167,13.096l36.718,92.331  L249.657,198.178L249.657,198.178z"/>
<path id="color_x5F_4" fill-rule="evenodd" clip-rule="evenodd" fill="#60758c" d="M315.274,213.741  c-0.779,4.506-5.071,7.532-9.577,6.752c-4.507-0.779-7.532-5.071-6.753-9.577L315.274,213.741z M334.053,208.756  c3.58-4.259,7.182-8.499,10.733-12.782c3.717-4.597,3.303-11.887-1.275-16.003l-2.423-2.152c-0.242-0.265-0.17-0.712-0.177-1.123  c-0.262-9.448-8.022-17.866-17.757-18.58l-52.187-3.516c-3.459,10.521-0.624,22.886,6.469,31.45l3.227-12.025  c0.147-0.392,0.326-0.393,0.597-0.357l44.715,10.458c0.169,0.094,0.271,0.238,0.298,0.433l0.902,18.709  C330.212,203.751,332.772,205.967,334.053,208.756L334.053,208.756z"/>
<path id="color_x5F_3" fill-rule="evenodd" clip-rule="evenodd" fill="#1e2037" d="M221.822,352.614  c-8.347,30.255-16.802,60.48-25.038,90.766c-1.762,6.669-0.982,13.979,2.213,20.098c4.65,8.906,14.339,14.85,24.494,14.957  l33.719,0.231c1.906-12.287,3.92-24.558,5.917-36.832l-15.184-1.225c-1.973-0.186-3.458-2.295-2.937-4.232l11.66-40.994  l-4.724-1.403c-0.917-0.438-0.32-1.039,0.285-0.959c5.323,1.582,10.664,3.104,15.968,4.745c1.484,0.497,2.473,2.06,2.281,3.619  c-3.801,25.96-8.308,51.813-12.325,77.741c0.016,0.095,0.005,0.19-0.041,0.275c-1.347,9.52,2.582,19.587,10.053,25.606  c5.408,4.356,12.469,6.551,19.448,6.062l106.93-7.888l-0.643-31.6h-87.413c-1.981-0.028-3.631-2.01-3.267-3.983l17.84-89.571  L221.822,352.614L221.822,352.614z M308.456,445.486c-1.463,7.448-2.892,14.903-4.269,22.368c-0.21,1.351,0.916,2.707,2.305,2.727  h27.199l1.382-22.943L308.456,445.486L308.456,445.486z M335.228,306.852l-94.409-23.959l-6.916,25.385l96.154,24.403  C331.769,324.069,333.49,315.459,335.228,306.852z"/>
<path id="color_x5F_2" fill-rule="evenodd" clip-rule="evenodd" fill="#ffffff" d="M406.131,471.581  c2.31,0.025,4.363,1.652,4.95,3.836c2.69,10.968,5.434,21.928,7.722,32.987c0.397,2.111-1.929,3.893-3.797,3.192  c-6.558-2.59-12.977-5.517-19.463-8.284l-0.644-31.731H406.131z M336.07,447.718l-1.377,22.863h19.871  c-0.887-5.913-1.718-11.835-2.673-17.738c-0.402-2.191-2.29-3.959-4.512-4.211C343.613,448.288,339.84,448.019,336.07,447.718z   M233.64,309.243l-11.553,42.406l99.167,25.396c2.88-14.459,5.733-28.923,8.607-43.382L233.64,309.243z M250.072,199.088  l-28.693,13.507l22.307,56.093l6.102-20.538c0.122-0.328,0.19-0.385,0.558-0.351c0.299,0.068,0.469,0.335,0.401,0.636l-6.511,21.915  l-3.154,11.578l94.345,23.943c0.083-0.413,0.166-0.825,0.25-1.237c1.596-7.637,6.234-14.555,12.7-18.931  c13.42-8.959,26.872-17.87,40.334-26.764l-17.069-28.151c-8.179,4.737-16.371,9.451-24.585,14.128  c-5.439,3.052-12.053,3.837-18.123,2.055l-10.909-3.241c-1.717,6.219-7.253,11.186-13.621,12.134  c-1.913,0.284-3.873,0.233-5.768-0.153c-4.743-0.964-9.083-3.866-11.585-7.993c-2.386-3.934-3.065-8.808-1.894-13.282l0.117-0.436  c-4.792-1.421-9.597-2.8-14.375-4.273c-4.972-1.568-9.202-5.272-11.416-9.998l-0.053-0.115L250.072,199.088L250.072,199.088z"/>
<path id="color_x5F_1_8_" fill-rule="evenodd" clip-rule="evenodd" fill="#000000" d="M220.507,351.742l22.195-81.469  c-19.952-50.172-40.181-100.235-59.856-150.516c-1.973-5.213-0.062-11.586,4.795-14.778c3.334-2.139,6.678-4.264,10.039-6.362  c1.067-0.646,2.299-0.989,3.546-0.988c2.535,0.037,4.946,1.598,6.014,3.899l2.957,6.485l1.634-3.459  c2.106-4.057,10.006-3.423,10.053,2.349c0.007,0.791-0.175,1.576-0.506,2.301l-5.411,11.466  c11.691,25.64,23.176,51.376,34.937,76.984c0.218,0.194,0.344,0.48,0.354,0.77c3.188,6.937,6.396,13.865,9.635,20.779  c2.072,4.349,5.976,7.713,10.564,9.127l13.727,4.078l1.323-4.932l-2.084-0.377c-8.902-1.671-15.428-11.278-13.01-20.531  l5.152-19.201c-0.499-0.53-0.998-1.277-1.48-1.955c-6.413-9.017-8.985-20.812-5.492-31.436c0,0,0.171-0.885,1.089-0.898  c17.526,1.18,35.051,2.361,52.577,3.541c10.233,0.751,18.989,9.643,19.156,20.292c0,0,3.281,2.413,4.965,5.586  c2.427,4.569,1.826,10.498-1.537,14.553l-11.027,13.13c-0.021,0.02-0.042,0.039-0.063,0.057c1.012,3.781,0.042,8.044-4.012,10.416  c-1.892,1.107-4.152,1.503-6.323,1.184l-5.526,20.592c5.442,1.689,10.877,3.93,16.384,4.006c3.939,0.054,7.875-0.992,11.289-2.966  l107.326-62.519l1.705-13.607c0.738-4.513,8.445-6.368,10.285-0.896c0.252,0.749,0.324,1.552,0.235,2.343l-0.68,5.435  c3.432-1.999,6.777-4.746,10.233-4.138c5.27,0.926,6.906,8.829,9.375,15.329c1.893,5.152,0.051,11.312-4.627,14.524  c-43.57,29.248-87.558,57.87-131.203,87.008c-6.189,4.189-10.617,10.822-12.104,18.164l-14.488,72.743l0,0  c-4.397,22.077-9.025,44.109-13.375,66.195l26.361,2.132c0.024-0.001,0.049-0.001,0.074,0l11.712,0.945  c0.564,0.052,0.592,0.07,0.839,0.122c2.575,0.547,4.654,2.711,5.137,5.339c0.941,5.821,1.763,11.661,2.636,17.493h38.382l0,0  c3.963,0,7.926-0.042,11.889,0.001c2.874,0.093,5.499,2.142,6.257,4.961c2.691,10.971,5.251,21.974,7.725,32.996  c0.628,3.037-2.749,6.159-5.863,4.929l-19.497-8.309c-35.796,2.641-71.582,5.412-107.388,7.92  c-16.867,1.066-32.936-14.301-31.007-32.417c-11.079-0.074-22.159-0.112-33.238-0.229c-10.522-0.185-20.729-6.433-25.599-15.761  c-3.399-6.509-4.213-14.262-2.276-21.385L220.507,351.742L220.507,351.742L220.507,351.742z M395.409,472.081l0.628,30.898  c6.379,2.727,12.696,5.602,19.149,8.15c1.549,0.582,3.481-0.915,3.118-2.669c-2.468-10.996-5.023-21.974-7.708-32.919  c-0.529-1.97-2.37-3.438-4.468-3.46H395.409z M222.174,353.22c-8.305,30.096-16.715,60.163-24.907,90.289  c-4.189,15.857,8.306,34.236,26.228,34.426l33.287,0.228c1.865-11.97,3.954-23.909,5.974-35.857l-14.856-1.198  c-2.256-0.214-3.995-2.564-3.375-4.864l11.524-40.522l-4.249-1.263c-0.996-0.422-0.698-2.143,0.569-1.917  c5.327,1.583,10.671,3.106,15.98,4.748c1.706,0.572,2.844,2.368,2.623,4.162c-3.808,26.003-8.323,51.898-12.346,77.869  c-2.359,15.989,11.539,32.469,28.949,31.249l106.456-7.853l-0.623-30.636h-86.926c-2.266-0.032-4.187-2.235-3.755-4.577  l17.748-89.11L222.174,353.22L222.174,353.22z M336.539,448.257l-1.315,21.824h18.76c-0.854-5.719-1.662-11.445-2.585-17.153  c-0.363-1.976-2.066-3.571-4.071-3.799C343.735,448.801,340.136,448.542,336.539,448.257z M308.86,446.02  c-1.431,7.299-2.831,14.604-4.18,21.918c-0.166,1.066,0.717,2.127,1.816,2.143h26.724l1.325-21.984L308.86,446.02L308.86,446.02z   M257.966,396.291c-3.852,13.512-7.875,26.976-11.529,40.543c-0.251,1.048,0.543,2.177,1.637,2.281l15.016,1.211  c2.194-13.029,4.288-26.073,5.905-39.184c0.085-0.859-0.477-1.706-1.307-1.962L257.966,396.291L257.966,396.291z M426.875,401.75  c-0.834-15.847,4.3-31.997,14.866-44.18c0,0,0.295-0.708,1.203-0.567c0.672,0.214,0.87,0.708,1.189,1.079  c10.271,12.068,15.304,27.987,14.493,43.615c0.464-0.444,0.963-0.891,1.439-1.314c8.852-7.878,20.206-12.751,32.16-13.679  c0.411-0.032,1.015-0.064,1.146-0.049c1.129,0.276,0.815,1.179,0.756,1.953c-1.076,13.119-6.985,25.684-16.41,34.969h20.457  l0.208,0.022c0.973,0.316,0.967,1.855-0.208,1.978H387.285c-1.122-0.118-1.26-1.867,0-2h20.452  c-9.285-9.14-15.19-21.474-16.354-34.365c-0.027-0.302-0.052-0.604-0.074-0.906c-0.055-0.742-0.044-1.668,1.02-1.665  C405.198,387.463,417.563,392.858,426.875,401.75L426.875,401.75z M377.69,423.578c0.954,0.063,1.409,1.906,0,1.998  c-2.507,0.055-5.348,0.545-5.785-0.657c-0.214-0.588,0.246-1.298,0.896-1.341C374.43,423.543,376.061,423.543,377.69,423.578  L377.69,423.578z M427.109,404.794c-0.199-0.174-0.384-0.381-0.561-0.561c-8.825-8.875-20.733-14.442-33.178-15.512l-0.022-0.001  c1.081,13.17,7.414,25.859,17.302,34.857h16.157l-22.104-22.104c-0.569-0.626-0.133-1.768,0.826-1.7  c0.21,0.035,0.329,0.05,0.589,0.286l23.518,23.518h2.483C429.422,417.607,427.764,411.249,427.109,404.794L427.109,404.794z   M474.826,423.577c0.083-0.084,0.175-0.173,0.277-0.266c9.657-8.916,15.851-21.395,17.006-34.57l0.002-0.021  c-12.521,1.007-24.58,6.748-33.409,15.726c0,0-0.119,0.145-0.309,0.304c-0.655,6.472-2.325,12.846-5.055,18.827h2.485l23.518-23.518  c0.325-0.295,0.332-0.301,0.778-0.29c0.78,0.093,1.198,1.087,0.636,1.704l-22.104,22.104H474.826L474.826,423.577z M443.729,423.498  l7.401,0.079c9.789-20.546,6.48-46.381-8.304-63.944c0,0,0.002-0.261-0.219-0.001c-14.511,17.295-18.087,42.968-8.37,63.764  l7.492,0.08v-44.643c0.038-0.572,0.31-1.045,1.131-0.992c0.7,0.14,0.833,0.441,0.869,0.992L443.729,423.498L443.729,423.498z   M246.161,390.734c1.48,0.058,3.388,0.738,3.102,1.882c-0.457,1.83-5.947-0.469-3.609-1.758c0.121-0.067,0.253-0.105,0.39-0.12  C246.083,390.735,246.122,390.734,246.161,390.734L246.161,390.734z M190.475,378.197c0.954,0.063,1.408,1.906,0,1.998  c-2.507,0.055-5.348,0.545-5.786-0.657c-0.214-0.588,0.246-1.298,0.896-1.341C187.215,378.161,188.845,378.161,190.475,378.197  L190.475,378.197z M104.652,356.341c-0.853-15.786,4.25-31.875,14.935-44.154c0,0,0.4-0.589,1.052-0.589  c1.115,0.175,1.751,1.568,2.635,2.676c9.364,11.738,13.968,27.016,13.171,42.068c0.46-0.457,0.957-0.914,1.437-1.341  c8.88-7.902,20.405-12.765,32.16-13.678c0.431-0.034,1.015-0.065,1.146-0.049c1.56,0.381,0.708,3.015,0.392,5.266  c-1.677,11.95-7.46,23.203-16.046,31.656h20.457l0.208,0.022c0.973,0.316,0.967,1.855-0.208,1.978H65.102  c-1.094-0.115-1.238-1.87,0-2h20.453c-9.438-9.302-15.417-22.056-16.429-35.271c0,0-0.206-1.669,1.02-1.665  C82.936,342.078,95.315,347.496,104.652,356.341L104.652,356.341z M152.644,378.196c0.082-0.085,0.174-0.173,0.276-0.266  c9.665-8.924,15.858-21.461,17.006-34.57l0.002-0.022c-12.519,1.006-24.58,6.749-33.409,15.726c0,0-0.119,0.15-0.308,0.313  c-0.657,6.462-2.324,12.836-5.052,18.819h2.481l23.518-23.518c0.325-0.296,0.332-0.301,0.778-0.29  c0.78,0.093,1.198,1.086,0.636,1.704l-22.104,22.104H152.644z M104.892,359.392c-0.186-0.171-0.359-0.369-0.527-0.54  c-8.805-8.853-20.733-14.441-33.178-15.512c0,0,0.218,2.459,0.481,4.078c1.91,11.733,7.909,22.691,16.799,30.778h16.157  L82.52,356.092c-0.569-0.626-0.133-1.768,0.826-1.7c0.209,0.035,0.329,0.05,0.589,0.286l23.518,23.518h2.488  C107.232,372.213,105.558,365.85,104.892,359.392L104.892,359.392z M121.546,378.116l7.407,0.08  c9.658-20.302,6.279-46.586-8.285-63.945c0,0,0.003-0.26-0.219,0.001c-14.663,17.422-18.119,42.971-8.39,63.763l7.487,0.08v-44.643  c0.055-0.835,0.509-1.033,1.131-0.992c0.7,0.14,0.833,0.441,0.869,0.992V378.116L121.546,378.116z M233.993,309.849l-11.291,41.442  l98.165,25.138c2.814-14.13,5.603-28.266,8.412-42.398L233.993,309.849L233.993,309.849z M334.644,307.22l-93.472-23.722  l-6.653,24.421l95.146,24.166C331.314,323.795,332.971,315.506,334.644,307.22z M462.986,307.124c0.011,0,0.021,0,0.032,0.001  c0.499,0.04,0.904,0.442,0.944,0.944c0.067,2.471,0.002,4.945,0.002,7.417c-0.015,0.537-0.592,0.938-1.123,0.943h-0.011  c-0.422,0-0.813-0.253-0.865-0.889c-0.067-2.471-0.001-4.945-0.001-7.417c0.015-0.553,0.355-0.999,1.014-0.999H462.986  L462.986,307.124z M470.402,304.053c0.011,0,0.022,0,0.033,0.001c0.229,0.018,0.444,0.108,0.617,0.259  c1.797,1.717,3.555,3.475,5.271,5.271c0.532,0.61-0.128,1.627-0.859,1.631h-0.005c-0.185,0-0.374-0.065-0.549-0.218  c-1.796-1.717-3.554-3.474-5.27-5.271c-0.521-0.596-0.171-1.671,0.751-1.673L470.402,304.053L470.402,304.053z M455.577,304.053  c0.003,0,0.005,0,0.007,0c0.77,0.043,1.232,1.068,0.704,1.673c-1.716,1.797-3.474,3.554-5.27,5.271  c-0.155,0.135-0.351,0.195-0.554,0.197h-0.011c-0.741-0.003-1.57-0.782-0.848-1.61c1.716-1.796,3.474-3.554,5.27-5.271  c0.192-0.167,0.433-0.26,0.696-0.26H455.577L455.577,304.053z M249.827,199.756l-27.809,13.091l21.6,54.316l5.691-19.155  c0.159-0.456,0.558-0.739,1.062-0.71c0.61,0.092,1.005,0.674,0.855,1.279l-6.509,21.91l-3.019,11.081l93.339,23.706  c0.05-0.247,0.1-0.494,0.15-0.741c1.623-7.764,6.338-14.796,12.912-19.245c13.287-8.871,26.606-17.694,39.935-26.501l-16.566-27.321  c-8.039,4.656-16.092,9.288-24.165,13.885c-5.572,3.127-12.374,3.901-18.51,2.099l-10.454-3.105  c-3.446,9.96-16.706,15.269-26.059,9.396c-6.283-3.944-9.529-12.061-7.616-19.397c-10.394-3.017-21.392-5.18-25.688-14.521  L249.827,199.756L249.827,199.756z M477.247,296.589c1.207,0.001,2.413,0.018,3.619,0.05c0.976,0.08,1.311,1.891,0,1.997  c-0.811,0.022-1.622,0.03-2.433,0.03h-0.116c-1.622,0-3.245-0.028-4.868-0.028c-1.033-0.028-1.2-1.905-0.054-1.999  c1.245-0.033,2.49-0.05,3.736-0.05H477.247L477.247,296.589z M448.914,296.589c1.206,0.001,2.413,0.018,3.619,0.05  c1.003,0.082,1.233,1.897,0,1.997c-0.811,0.022-1.622,0.03-2.434,0.03h-0.115c-1.623,0-3.246-0.028-4.868-0.028  c-1.033-0.028-1.201-1.905-0.054-1.999c1.244-0.033,2.49-0.05,3.735-0.05H448.914z M450.367,284.018  c0.011,0,0.022,0.001,0.033,0.001c0.229,0.018,0.444,0.108,0.618,0.26c1.796,1.716,3.554,3.474,5.27,5.27  c0.532,0.61-0.128,1.627-0.859,1.631h-0.005c-0.184,0-0.373-0.065-0.549-0.218c-1.796-1.716-3.554-3.474-5.27-5.271  c-0.52-0.596-0.171-1.671,0.751-1.673L450.367,284.018L450.367,284.018z M475.612,284.018c0.002,0,0.004,0,0.007,0  c0.769,0.044,1.231,1.069,0.704,1.673c-1.716,1.797-3.474,3.555-5.271,5.271c-0.154,0.135-0.35,0.195-0.554,0.197h-0.011  c-0.74-0.002-1.569-0.782-0.847-1.61c1.716-1.796,3.474-3.554,5.27-5.27c0.192-0.167,0.433-0.261,0.696-0.261L475.612,284.018  L475.612,284.018z M462.986,278.791c0.011,0,0.021,0,0.032,0c0.499,0.041,0.904,0.443,0.944,0.945  c0.067,2.471,0.002,4.944,0.002,7.416c-0.013,0.488-0.491,0.864-0.977,0.933c-0.048,0.006-0.097,0.01-0.146,0.011h-0.011  c-0.094,0-0.186-0.013-0.273-0.039c-0.014-0.004-0.028-0.009-0.042-0.014c-0.029-0.01-0.057-0.022-0.084-0.036l-0.005-0.002  c-0.035-0.018-0.07-0.039-0.103-0.063c-0.004-0.003-0.008-0.006-0.013-0.01l0,0l-0.004-0.003l-0.002-0.002  c-0.003-0.002-0.006-0.004-0.009-0.006l-0.002-0.002l-0.002-0.002c-0.007-0.005-0.013-0.011-0.02-0.016l-0.004-0.004  c-0.003-0.003-0.007-0.006-0.01-0.009c-0.156-0.143-0.266-0.365-0.292-0.681c-0.043-1.591-0.031-3.181-0.017-4.772l0.001-0.135  c0.007-0.837,0.015-1.674,0.015-2.51c0.015-0.551,0.347-0.996,1.006-0.999h0.008L462.986,278.791L462.986,278.791z M389.704,257.683  c29.896-19.749,59.84-39.427,89.59-59.397c3.752-2.577,5.458-7.724,3.916-12.064c-1.401-3.812-2.848-7.609-4.388-11.367  c-1.035-2.433-4.297-3.589-6.661-2.233l-7.465,4.349c-0.763,0.272-1.434,0.033-1.496-0.988c0.374-2.991,1.584-6.318,0.81-8.822  c-0.84-2.715-5.931-3.175-6.449,0.572l-1.747,13.957c-0.149,0.522-0.334,0.614-0.489,0.739  c-27.403,15.963-54.689,32.13-82.126,48.034L389.704,257.683L389.704,257.683z M325.686,203.516l-0.875-18.131l-42.95-10.036  c-2.855,10.639-5.779,21.26-8.564,31.918c-1.911,7.721,3.329,16.334,11.489,17.865l21.241,3.842  c1.033,0.264,0.888,2.102-0.356,1.968l-17.191-3.109c-1.632,5.986-3.456,12.13-1.013,17.489c3.511,7.702,14.004,11.349,21.61,7.22  c3.704-2.01,6.496-5.565,7.625-9.669l5.777-21.525c-0.665-0.242-1.305-0.557-1.908-0.945c0,0-1.202-3.072,1.346-1.517  c4.988,2.958,12.976-1.857,11.372-8.391c-0.748-3.045-3.494-5.459-6.696-5.791c0,0-0.254-0.07-0.49-0.242  c-0.085-0.053-0.161-0.122-0.224-0.209c-0.072-0.09-0.129-0.196-0.157-0.319C325.689,203.793,325.676,203.651,325.686,203.516z   M253.387,236.937c2.393,0.147-0.402,7.479-1.944,5.135C250.665,240.89,251.936,236.902,253.387,236.937z M127.789,216.31  c0.01,0,0.021,0,0.031,0.001c0.499,0.04,0.904,0.442,0.945,0.944c0.067,2.471,0.001,4.945,0.001,7.417  c-0.014,0.536-0.528,0.84-1.031,0.846h-0.012c-0.461,0.002-0.911-0.246-0.955-0.792c-0.067-2.471-0.002-4.945-0.002-7.417  c0.015-0.553,0.355-0.999,1.015-0.999H127.789L127.789,216.31z M299.037,209.92l16.408,2.836c3.327,0.711-4.165,11.405-11.943,8.131  c-3.814-1.606-6.244-5.93-5.544-10.135C297.958,210.752,298.074,209.869,299.037,209.92z M135.204,213.239  c0.011,0,0.022,0,0.033,0.001c0.229,0.018,0.444,0.108,0.618,0.259c1.796,1.717,3.554,3.475,5.27,5.271  c0.493,0.565-0.006,1.683-0.756,1.691h-0.005c-0.204,0-0.426-0.081-0.651-0.278c-1.797-1.717-3.555-3.474-5.271-5.271  c-0.52-0.597-0.164-1.671,0.751-1.673H135.204L135.204,213.239z M120.38,213.239c0.002,0,0.004,0,0.006,0  c0.765,0.043,1.24,1.059,0.705,1.673c-1.717,1.797-3.475,3.554-5.271,5.271c-0.152,0.133-0.33,0.191-0.512,0.193h-0.005  c-0.727,0.001-1.502-0.91-0.896-1.606c1.717-1.796,3.474-3.554,5.271-5.271c0.191-0.167,0.432-0.261,0.696-0.26H120.38  L120.38,213.239z M299.826,212.103c-0.131,5.052,6.073,9.305,10.89,6.555c1.561-0.892,2.766-2.376,3.329-4.095l-14.218-2.48  C299.826,212.09,299.826,212.096,299.826,212.103L299.826,212.103z M248.997,197.936l-35.042-76.859l0.006-0.841  c1.919-4.068,4.136-8.158,5.706-12.116c0.576-1.567-0.162-3.43-1.697-4.178c0,0-3.286-0.676-4.393,1.594l-2.491,5.28  c-0.467,0.639-1.229,0.813-1.815-0.012c-2.443-5.358-4.236-12.073-9.044-11.078c-0.51,0.105-0.996,0.298-1.445,0.562  c-5.514,3.339-12.279,6.166-14.184,11.64c-0.809,2.324-0.741,4.925,0.158,7.221l36.521,91.837L248.997,197.936L248.997,197.936z   M333.946,208.106c3.488-4.147,6.995-8.278,10.453-12.449c3.563-4.406,3.168-11.367-1.221-15.313l-2.422-2.151  c-0.743-0.779-0.325-2.18-0.497-3.497c-1.09-8.36-8.391-15.439-17.14-16.082l-51.795-3.489c-3.138,10.006-0.561,21.568,5.885,29.844  l2.971-11.073c0.226-0.655,0.328-0.751,1.056-0.737l44.765,10.451c0.637,0.197,0.697,0.309,0.772,0.925l0.883,18.317  C330.419,203.456,332.663,205.524,333.946,208.106L333.946,208.106z M142.05,205.775c1.206,0.001,2.413,0.018,3.619,0.05  c1.003,0.082,1.233,1.897,0,1.997c-0.811,0.022-1.623,0.03-2.434,0.03h-0.116c-1.622,0-3.245-0.028-4.867-0.028  c-1.025-0.028-1.32-1.896-0.055-1.999c1.245-0.034,2.491-0.05,3.736-0.05H142.05z M113.716,205.775  c1.207,0.001,2.413,0.018,3.619,0.05c0.976,0.08,1.311,1.891,0,1.997c-0.811,0.022-1.622,0.03-2.433,0.03h-0.116  c-1.623,0-3.245-0.028-4.868-0.028c-0.997-0.027-1.453-1.885-0.054-1.999c1.245-0.034,2.49-0.05,3.736-0.05H113.716L113.716,205.775  z M115.169,193.204c0.011,0,0.022,0,0.034,0.001c0.229,0.018,0.444,0.109,0.617,0.26c1.796,1.716,3.554,3.474,5.271,5.27  c0.522,0.599-0.089,1.646-0.827,1.65h-0.005c-0.191-0.001-0.391-0.071-0.581-0.237c-1.797-1.716-3.554-3.474-5.271-5.271  c-0.52-0.596-0.171-1.671,0.751-1.673H115.169L115.169,193.204z M140.415,193.204c0.002,0,0.004,0,0.006,0  c0.764,0.043,1.24,1.059,0.704,1.673c-1.716,1.797-3.474,3.555-5.27,5.271c-0.156,0.136-0.348,0.196-0.545,0.197h-0.006  c-0.738,0.001-1.551-0.819-0.862-1.61c1.716-1.796,3.474-3.554,5.271-5.27c0.192-0.168,0.433-0.261,0.695-0.261H140.415z   M127.788,187.977c0.011,0,0.022,0,0.032,0c0.499,0.041,0.904,0.443,0.945,0.945c0.026,0.95,0.032,1.9,0.03,2.851  c-0.001,0.1-0.001,0.2-0.001,0.3c-0.002,0.446-0.006,0.892-0.009,1.338l-0.001,0.026c-0.008,0.967-0.018,1.935-0.018,2.901  c-0.014,0.54-0.549,0.867-1.063,0.872h-0.011c-0.037,0-0.073-0.002-0.109-0.005c-0.407-0.038-0.773-0.29-0.815-0.812  c-0.067-2.472-0.002-4.945-0.002-7.417c0.011-0.409,0.198-0.76,0.562-0.915l0.003-0.001l0.004-0.001  c0.003-0.002,0.005-0.003,0.008-0.004c0.035-0.014,0.071-0.026,0.109-0.037c0.004-0.001,0.008-0.002,0.012-0.003  c0.013-0.003,0.025-0.006,0.037-0.009c0.007-0.001,0.013-0.003,0.02-0.004c0.004-0.001,0.008-0.002,0.013-0.003h0.002l0.005-0.001  h0.001l0.007-0.002c0.008-0.001,0.015-0.002,0.023-0.004c0.006-0.001,0.012-0.001,0.019-0.002c0.003-0.001,0.006-0.001,0.009-0.002  c0.045-0.006,0.092-0.01,0.141-0.011l0,0c0.013,0,0.026,0,0.039,0L127.788,187.977L127.788,187.977z M374.523,110.325  c0.01,0,0.021,0,0.032,0c0.498,0.041,0.903,0.443,0.944,0.945c0.067,2.471,0.002,4.944,0.002,7.417  c-0.015,0.548-0.557,0.887-1.073,0.89h-0.012c-0.444-0.001-0.866-0.253-0.914-0.836c-0.067-2.472-0.001-4.945-0.001-7.417  c0.015-0.553,0.355-0.999,1.014-0.999H374.523L374.523,110.325z M381.938,107.254c0.011,0,0.023,0,0.034,0  c0.229,0.019,0.444,0.109,0.617,0.26c1.796,1.717,3.554,3.474,5.271,5.271c0.492,0.565-0.006,1.683-0.756,1.69h-0.006  c-0.203,0.001-0.425-0.081-0.651-0.277c-1.796-1.717-3.554-3.475-5.271-5.271c-0.52-0.597-0.171-1.671,0.751-1.673L381.938,107.254  L381.938,107.254z M367.114,107.253c0.002,0,0.004,0,0.007,0c0.769,0.044,1.231,1.069,0.704,1.674  c-1.716,1.796-3.474,3.554-5.271,5.271c-0.155,0.135-0.339,0.194-0.528,0.195h-0.006c-0.731-0.001-1.52-0.872-0.878-1.608  c1.716-1.797,3.474-3.554,5.27-5.271c0.192-0.167,0.433-0.261,0.696-0.261C367.108,107.253,367.114,107.253,367.114,107.253z   M388.784,99.79c1.207,0.001,2.413,0.017,3.619,0.05c1.003,0.082,1.233,1.897,0,1.997c-0.811,0.022-1.622,0.03-2.433,0.03h-0.116  c-1.623,0-3.246-0.028-4.868-0.028c-0.993-0.027-1.357-1.893-0.054-1.999c1.245-0.034,2.49-0.051,3.735-0.051L388.784,99.79  L388.784,99.79z M360.451,99.79c1.206,0.001,2.413,0.017,3.618,0.05c0.995,0.081,1.188,1.9,0,1.997  c-0.81,0.022-1.622,0.03-2.433,0.03h-0.116c-1.622,0-3.245-0.028-4.867-0.028c-0.968-0.027-1.496-1.882-0.055-1.999  c1.245-0.034,2.491-0.051,3.736-0.051L360.451,99.79z M361.904,87.219c0.011,0,0.022,0,0.033,0.001  c0.229,0.018,0.444,0.108,0.617,0.26c1.797,1.716,3.555,3.474,5.271,5.27c0.492,0.565-0.006,1.683-0.756,1.691h-0.006  c-0.203,0-0.425-0.081-0.651-0.278c-1.796-1.717-3.554-3.474-5.27-5.271c-0.521-0.596-0.171-1.671,0.751-1.673H361.904  L361.904,87.219z M387.149,87.219c0.002,0,0.004,0,0.006,0c0.765,0.043,1.24,1.059,0.705,1.673  c-1.717,1.797-3.475,3.554-5.271,5.271c-0.152,0.133-0.33,0.191-0.512,0.193h-0.005c-0.727,0.001-1.502-0.91-0.896-1.606  c1.717-1.796,3.475-3.554,5.271-5.27c0.192-0.168,0.434-0.261,0.696-0.261L387.149,87.219L387.149,87.219z M374.523,81.991  c0.01,0,0.021,0.001,0.032,0.001l0.019,0.002c0.022,0.002,0.043,0.005,0.065,0.008l0.004,0.001c0.038,0.007,0.076,0.015,0.113,0.026  c0.008,0.002,0.015,0.005,0.023,0.007c0.003,0.001,0.006,0.002,0.008,0.003c0.08,0.025,0.155,0.061,0.225,0.104l0.005,0.004  c0.009,0.005,0.018,0.011,0.027,0.017l0.014,0.009c0.006,0.004,0.012,0.009,0.018,0.013c0.032,0.024,0.063,0.049,0.093,0.076  l0.006,0.007c0.014,0.012,0.027,0.025,0.039,0.038l0.009,0.01c0.069,0.073,0.128,0.157,0.173,0.249  c0.002,0.004,0.004,0.008,0.006,0.012c0.037,0.077,0.065,0.159,0.081,0.245c0.008,0.037,0.013,0.075,0.016,0.113  c0.02,0.734,0.028,1.468,0.03,2.202v0.116c0.003,1.699-0.028,3.4-0.028,5.099c-0.008,0.3-0.183,0.549-0.427,0.714l-0.006,0.004  c-0.063,0.043-0.131,0.079-0.203,0.11c-0.007,0.003-0.014,0.006-0.021,0.009l-0.011,0.004c-0.031,0.013-0.063,0.024-0.096,0.034  c-0.007,0.002-0.014,0.004-0.021,0.006c-0.008,0.002-0.016,0.004-0.024,0.007c-0.026,0.007-0.053,0.013-0.079,0.018l-0.012,0.002  l-0.004,0.001l-0.007,0.001l-0.005,0.001l-0.006,0.001c-0.004,0.001-0.008,0.001-0.011,0.002l-0.012,0.002l0,0  c-0.008,0.001-0.016,0.002-0.024,0.003l-0.006,0.001h-0.004c-0.041,0.005-0.083,0.008-0.124,0.009h-0.011  c-0.169,0-0.334-0.039-0.475-0.123c-0.006-0.004-0.013-0.008-0.019-0.012c-0.012-0.008-0.023-0.016-0.035-0.024  c-0.009-0.006-0.018-0.013-0.026-0.02c-0.011-0.008-0.021-0.017-0.031-0.026c-0.074-0.064-0.137-0.145-0.187-0.243v-0.001  l-0.002-0.005c-0.043-0.086-0.076-0.186-0.095-0.301l-0.001-0.002v-0.003c-0.006-0.037-0.011-0.075-0.014-0.115  c-0.001-0.058-0.003-0.116-0.004-0.175c-0.002-0.083-0.004-0.166-0.006-0.25c-0.031-1.46-0.02-2.92-0.007-4.381  c0.008-0.87,0.016-1.74,0.016-2.611c0.003-0.127,0.024-0.249,0.062-0.361c0.05-0.146,0.128-0.275,0.236-0.378  c0.078-0.076,0.172-0.137,0.281-0.181c0.007-0.003,0.015-0.006,0.022-0.009c0.009-0.003,0.019-0.007,0.028-0.01  c0.006-0.002,0.012-0.004,0.017-0.006c0.109-0.035,0.232-0.054,0.368-0.054H374.523L374.523,81.991z"/>
</svg>